<mxfile host="app.diagrams.net" agent="Mozilla/5.0 (Windows NT 10.0; Win64; x64) AppleWebKit/537.36 (KHTML, like Gecko) Chrome/131.0.0.0 Safari/537.36" version="25.0.1">
  <diagram name="PÃ¡gina-1" id="k37wcRQfC-LBgSmliXWl">
    <mxGraphModel dx="1444" dy="749" grid="0" gridSize="10" guides="1" tooltips="1" connect="1" arrows="1" fold="1" page="1" pageScale="1" pageWidth="3300" pageHeight="4681" math="0" shadow="0">
      <root>
        <mxCell id="0" />
        <mxCell id="1" parent="0" />
        <mxCell id="5LpLA7wXrQh5jvGzeRih-75" value="&lt;b&gt;Google &lt;/b&gt;Cloud Platform" style="fillColor=none;strokeColor=#6666FF;shadow=0;gradientColor=none;fontSize=14;align=left;spacing=10;fontColor=#717171;9E9E9E;verticalAlign=top;spacingTop=-4;fontStyle=0;spacingLeft=40;html=1;whiteSpace=wrap;strokeWidth=3;dashed=1;movable=0;resizable=0;rotatable=0;deletable=0;editable=0;locked=1;connectable=0;" vertex="1" parent="1">
          <mxGeometry x="500" y="89" width="1490" height="856" as="geometry" />
        </mxCell>
        <mxCell id="5LpLA7wXrQh5jvGzeRih-76" value="" style="shape=mxgraph.gcp2.google_cloud_platform;fillColor=#F6F6F6;strokeColor=none;shadow=0;gradientColor=none;" vertex="1" parent="5LpLA7wXrQh5jvGzeRih-75">
          <mxGeometry width="23" height="20" relative="1" as="geometry">
            <mxPoint x="20" y="10" as="offset" />
          </mxGeometry>
        </mxCell>
        <mxCell id="5LpLA7wXrQh5jvGzeRih-13" value="" style="rounded=0;whiteSpace=wrap;html=1;fillColor=#ffe6cc;strokeColor=#d79b00;" vertex="1" parent="1">
          <mxGeometry x="785" y="162" width="800" height="665" as="geometry" />
        </mxCell>
        <mxCell id="5LpLA7wXrQh5jvGzeRih-70" value="" style="rounded=0;whiteSpace=wrap;html=1;fillColor=#b0e3e6;strokeColor=#0e8088;opacity=60;" vertex="1" parent="1">
          <mxGeometry x="1614" y="227" width="289" height="484" as="geometry" />
        </mxCell>
        <mxCell id="5LpLA7wXrQh5jvGzeRih-61" style="edgeStyle=orthogonalEdgeStyle;rounded=0;orthogonalLoop=1;jettySize=auto;html=1;entryX=0;entryY=0.5;entryDx=0;entryDy=0;" edge="1" parent="1" source="5LpLA7wXrQh5jvGzeRih-1" target="5LpLA7wXrQh5jvGzeRih-30">
          <mxGeometry relative="1" as="geometry" />
        </mxCell>
        <mxCell id="5LpLA7wXrQh5jvGzeRih-1" value="" style="shape=image;verticalLabelPosition=top;labelBackgroundColor=default;verticalAlign=bottom;aspect=fixed;imageAspect=0;image=data:image/png,iVBORw0KGgoAAAANSUhEUgAAAdQAAAFaCAYAAACnnazEAAC2NUlEQVR42uydd5zdVZn/388531unJDQREoqAigngKugqFhIhIRS7M7u6q7vq/sDFwlKTWPbOdUWS0BTbwq5r3XWdsbACKQRI1rUr9kQ6QkJvyZRbv9/z/P74fu/UO8kkpExmzufFfQ2ZufV7zzmf83nO83we8PDw8PDw8PDw8PDw8PDw8PDw8PDw8PDw8PDw8PDw8PDw8PDw8PDw8PDw8PDw8PDw8PDw8PDw8PDw8PDw8PDw8PDw8PDw8PDw8PDw8PDw8PDw8PDw8PDw8PDw8PDw8PDw8PDw8PDw8PDw8PDw8PDw8PDw8PCYGMRfAo9dDxUU6ELY2CN0ABsO2vGxNnee0tMDczoUuqCrSxEBUH+NPTw8PKF6TB3SLHQJc+fKIFlufFLp6XS7nfBUhZ4eM+J152xQil0K4snWw8NjryDwl8BjYuSJwHoT/3u9oyiO4jjEWfhBnnpqBpqdQb12ANbMxLg2lHZUcuByIFlEFQzgQEVQSqA1jJQg6INoAJVeMM8SsIWg3sfc3q2IREA09oWLUCgYmJe8z3nJe/Qk6+Hh4RWqx94m0Fh1jiWvwq/yVJ+dDeYYcMeAvgiRw1B3GMiBKPshtGADwabA2AkOu2Hcpw6iML45V0M0Jld1T2HkIZxuQuQ+xNyH2geoZh7mmpPLY56yo9sy5yCJP0uH8wTr4eHhCdVjN3KoCj0YenoYQ6CfXZnhydSLcOZloCeh7nicvhCR55POWUwwRIAuGrqpA1RBHKqj2HIio1MERRAMIiAWjInJ2dih4RvVoFYJQR7FyD0Y+SOYX+OC31AJ7hlDsh3dlo4O6MAhnlw9PDw8oXo8VwyGR+fFIdzB36/LUg2Px9hXg74O1RNBjySdF8SAC4eUozoHuAYDggoISPJzl40x1ZiORREU1eFEaDDGYAKwATHBK1RLgD4I8luM/RGR/h/V7O9HEGzjGnTNizy5enh4eEL12HElugEdQaKX3HIoaXsKTs9A9bUY8wLS+VhlhjWI6qAaATpMOcokGkOKMpxsBRGLTUGQjpVtrQxR9CDCTyBYSTp1O8XXPjJCuQI+LOzh4eEJ1WN8dHRbOoDOYeHci247gqwswrm3AK8mnZuBCNSrcRhVCeMxIruBPFWbDMVdPx6VJOtYFbAEaSGVif9Zr2xF9aeI/S71+kquWPjIMJUexMlXRecHj4eHhydUL0eFbgydMlTKsmTtAVi7CPgrnHsDmXwL6qBegchFyZmnQTA7TJDaNBw7dBaKChIXkib1pM04VofOW0VHEq/EtK5IElLe8fGruOQzgjGWVDZWr9XSFsTcAuab9JVu4XNnVgHo7rZs6Bip5j08PDw8oU4XHlWha72lOD8c/N3HbjsZ5T3Am0llnw8KtQq4KIp5Sc0ECWp0aBXAYqxgLFgbJw/JMD4eTFJKEpWcA6U2/CkBg7FBnHw0LPFo+POMTnpykTJYPiOxgt4hJT0sYcpYSzoXv0a9ehfIN3G1b7L8jD8PKvw5nlg9PDw8oU4PFAqGuV1Cp8Qk8+GV7bRl3oHq+zH2ZFKZmESjepQkDk2ARAdJRxOFmJxLpmLiVIWwClGtDPI4yGOgm3E8jvAI8ATIswhbcdqPTfUT1SNSWiEy8Wtbp0RqCVIZ6i4NtCC04txMjJ0J7mCQg4Hno242Is8DfR42nSPIgJGYpKP60FmvanLWq2ZQFW9XYeMAIZUxBBmoDvSBfBsxX+DT8387RKwb1IeCPTw8PKFOByK9dOVsUtn3obyXVOZIXAS1ckPN2e0STBwWdYgIYixBGmwqVm/VAQfmQdTdBfpHxPwRcfdS1YeouycGQ6W79fOuy1IuH0gqczhh/RhE5oCZg3AsyhGks2lMEGcjhzWIwkYmcoNcJ/b5jQ3I5KFWjnD6XdArWbbglwB0q/VlNx4eHp5QpwoaFnyNRKNLbnkh6eA8VP+OdH4/6hUIaxFxxqvZznPFpCNYgowQpBMCLZcQ2YDwM1R/BvJb0vZ+ivMr476nzh7DnFHevRufjIlnTkdCQF1NHpz8bmNP/Nhmz7GtDNzrfpXigb4j0NrxCH8JvAqRE0hl98OkYvVar4BqmBCr2fYcSFSriCXTAvWKIvKf1KvLWHHGhphYu+2IRC8PDw9PqB77FJMKhWFnpEtWH4NNXYDK35HOtVAbgCgKt5tcNKREA1IZsGmol8G5uxBZj+qtmNTPueyUTWNVoppBK8I97qWb+AhvnCuDpDueo9NFa55Hxp6IMh94A/AXZFosLozD3+rCRLmabWpW1ZhYs61QK5eBL6LV5Vx+5pNxLSv4MLCHhydUj30JHd12kDguueVQUvYi0HNIt7RS7QfnQgQ7/tlok7PC2gDAHajcRBStJnforykeVxtJoOsSO6TJ7I872rC/SdnLx2+bS+hOR+TNoK8m05pKnJY0UejbPldWjTDGkmmFenkzkf4zy079yuA1Gp4I5uHh4QnVYxJiuAq66OstZGd/ELiIVO55Q0QqdtzvtFEuYqwlk4/Dn2H9TyDfQ2rf49Nn/HrE/bs1NjnY0LVvJ+AMD0GPJruP3/ISnH0LSifW/gU2DbUSuChk22fNimpEkApIZaFWuQV1F3D5aRu9WvXw8ITqMZm/o8K6ofDux27rQKVIJvcSqiWIwm0rUtX4zDGVtrEaLW0F+QGi3+TJe9dx/bn1ESp0qhvIN0LVw60GVYWP3z4fx/sQfQvplpbYVakeMZTI1Ozaxqo222IJawOE4cdYvvCzYyIJHh4enlA99jKGL8qXrppLkFlGkD4bF0K9uj0VFaEqpHMGY6FeuRORr0DtW1y2aNMIEh3t5TutVP88M6pe92iU9wF/Tzp/aEKs277WqlGs/FugVrqJcukDXPPGh30I2MPDE6rHZFKlHd1pXnjAYpAlpDJ5KgNR4jhktkmkmRYTtz+r/xjVz9Nf+/5gScugZ+0eaAa+L21e4msSb2AuXHcgWff/EPkgqdwsaiWIwigJq4+nViOyrQH16iO42vtZtmg1Hd2W7g5fXuPh4QnVY8+rJjWDavHS204mkGvJ5E6k0g/ObWtBjx+TySdEGt2Ki65i2YLVI9So76qyY6p1ydoDEPOPCOeTzh9IpY8k49eMq1aDtEVQovCjXL5gGQL8c8H4c1UPD0+oHntsMU9ChOdcl+LAF/4zIksx1lIrj39O2jjHS2ctYiCs3w6s4NNvWJPcQejuMXT6Dio7hNH2jZeunE2Q/iiYcwlShmopGjcjWNWBgXyroVL6Kumnz6XYWRuxWfLw8PCE6rGbFu/OHkNPZ8Ti1S8lSP8r6fyrKPdqYqG3DTWUig3ea+XfgP4Lnz7t+4NKa+Nc8Ykxz/nLGVnz+7HbTkZlOenca5Ps6nGiBqooEfkZAbXSOsqPdnL13zzljSA8PDyheuwuDE88Wrr2HzHBFdighWopRCQYh0gdgpBtF+qlR3FyGU/fcz3Xn1sfQc4eu3bT04NJ7B2FJWsvwNpPYlPb/q6cC8m3B9TKf6RaPpurzn7Qk6qHhydUj12NRoh3cfcM7P5fJJ1/F9VSowPM+KonnQ+I6orwBVzfp7j8zY+PIWeP3bgBSsLnceb1v5LJvZZSnxvRnm7E1+ZCMq0BYe1BKuWFXH3W3RQKAcWizwD28PCE6rHLyPSSVS8nlf066excyr3jl2co0ZD1XenniLuYyxb8aNhzRfiM3T3//XV0WI4+91Ok0kvibjfjZAKrC+ONULSJemUBV5xxl1eqHh6eUD2eC1SFLoSiOJas/hts5jqMbaFWChEzXog3JJMPiMIyzn2Se5++gp7OyHc82dukqoYuFBFl6S1vw6T+HWP3o1Yeh1Q1Ip2zRNEmXPUNLFt0r48qeHhMHRh/CfbwAiwSN6n+6NrLSLd+Exe1xAtwEzKNS2GUfHtAWP0J1drJXH7qMnr+KqKj29IpvgRmb6IoDpFYrV6+8HtUyq/FhRvJttnEdH/U9lUstVJEEByGSa3io6sOoaczGrQr9PDw8ITqMQF0d1uK4jjnB3mW3tZNpu2j1EoRLtJx1ExIKmOwAVT7P8k9z7yeK0//bexspHhVM3liDhTnhxTWBVx15kZKtddRL99KfkaAahNSNZbqQEgqewyaupHCutbByIWHh8c+DT+J94gybZyX3nAo6bbvksq/inLvtrJ4Q3JtAbXqA0S1f2D56bfH5RtJqNhjcqIRvj3nuhQHHP0Nsq1/RWlr8+9ZXUhuRkC17yYuX/hGutXSia8VnjRzVg0be3zZmYdXqJOSTC+68TgyM35IkH3VNhbZuLVaXGZxA9VnXsXy02+PVangyXSSoxG+ve6ckMtP+2sqvV8j1z6eUg0obw3JzjibS1dfTadEFNZbfxEnCZkWxcXfp/o10sMr1ElFpheveQ2ZzA0Yc+A2E1ZsymIsRLVPcPmCTwH4TNB9EMMTz5au/Q+ybe8dfxNFSLY1oLzl71lx5te8of4kmbOL17wecQez7Iwe/514eEKdNGS6ehHZ7HdQbSGsReOel6ZzAS56ljB8L8sX/A8d3ZY5G9T7v04FUr3lm2Tb/6YpqaoqNnCIqVEtv4orz/y9tyjcSzjnuhTXn1vnkpvmk8rfiDEtVMtv5oozfuBJ1cMT6t6emIvXvJUg8200ShGGDtPEQlBdSLY9IKz8icpAJ1e98Y9+8k4lUu0SNs4VjtnvRjItZ8Rn56Myup1zZPKGenUD1ZZXsHlzzXeo2WvK9I0EmW40yuKcI0hFlAfezFVnrfLz0mN78OcDu2NiXn9unUtXvY1UpgcXBkTjkamG5GcE1Mu3Uu5/vSfTqbZdTQixu8MRDvwV1dJvybQEqI4M4RtjqJZCcm1zSW+9ip7OiB4/N/c4mS655Z0E6RvQKEsUOtSBiwKyLd/h4lWnDWZze3h4hboHJ+alq95GKteNhoYoamJur/HZWX5GQKX/P3n6vvdy/bl1X+Q/RdH4XhevOhKb+TnCQYT1Zk0P4tB/pbyIFQvX+PPzPTln15xLJvevhFXFuaHvRtURpAxIiXL5dK4+80d+0+vhCXVPTcxLbn4LmZbvEIUmqTEdTaYKEpFtC6j0XcOyhRcOhgb9eek0GB8rTyWdvwUXOtTZEXNQ1ZFKC2H4EMpLyZ7WN+jE5LGLMayL0OI1l5BtWUG17FA31o/ZqSOVMii9VEpncPXZP/Gk6tEMPqy0S3e5Ny8g0/Lf45KpqoJxZFsDKv3/zLKFF9LRHScpeTKd2miEC6848zbC0seahn5FDPVqRK71CAg/FZdu9Pg5ujvItKPHJGHefyHXtoJqOWpKpgBGDPWaQ6SdXP4mFq98mQ//eniFujvQCMtdsPJV5PNrUddKVHdNydQYRypnqQ5cyPLTr/Gm9tN487Vk7Woy+dOp9I/O/FYQhw2ESu1krjr95/4oYFdy6XAv7bWfIdd6PuW+ENQ2bRY/8rERqYxF3VOEtdNYvuh3Xql6eIW6q9CRkOmFN7+IfO5/gFbC2vhkms5bKgPnezKdzlgft3kz8n5qlWewKYkjF8M2uerABoZArwEV5nT4MbJLNjMFg8BgfXCu7XxKSYen7ZFpHEGw1KsRYg8kyKzkwtXHUpwf0t3tDTk8vEJ9zpOzWHRc9N3nkZnxY2z6mKamDaqKGEc6F5PpitOvHSyr8ZjeKnXxmr8l2/oNKgMRgh2jhrJtlmrv37Js0X/G1oTiVepOX/Oktvec61Lsf9R/kWt7B+XeOpDaCZUbkcpaNNpMqTafaxbd6xPIPDyh7iwaYSPWp6mFt5HOn0ylv5kTjgJR7ITTF4d5PZl6AIMEuXjNzWRbzxwT+lXiBKV67c/UWufSvqZKV5dPUNoZNELmF329hcys75DJL6K0DS/tiZJqJmcJw/uIqqex/Iw/+9C8hw/57swmpGt93DmmUv8K2baTKfeNMzklTLJ5/3kwzOvJ1ANgAwoqSPp86tUSxkqcAT44ygz1qiPX9gIy/edSLDq6vNfvTpPpBav3JzNrNen8onFtIHdoFRBLtRwRpI7GptdyyQ2H0tMZDSYZeniF6jEBDNWaFmnZ75/H92hNTBvKW69i2ekX++QFj/FV6upPkp/xiTGqSXEEKSGqPUomegnFM/qSaetV6oSubxKGveSGQ0m130Q6+7KmTlXPBaoRmbwlrG+A6gI+fcajXql6heoxITItJBmaqzrItf1zrExp7s2bbw8o936TZadfTLdaivP8BPMYpZ5wFNSQzayg3LeZIG1R3AiVGtYcufZDqdj3g6jvSLMDG9/OzoiLVx5Nun0dqfSuJ9NBpToQksrMhcwqLli9v+9S4wnVY7uLX7elWAxZuuY4bPYr1KpJYf6o7MBGL9PKwK1kUu+loIYO3+fSo+lirLDeUJzfD/ovpDIjw77JnahXFDifwg/y8cbMNyPfLpkW54csvvl40rl12NSLqAzsejId/IpMQKUvJJV5KbnUai5YvT9FcZ5UPaF6NIMmpQuX/KgNbDfGtuBCHVMErhqRzgXUyhvRSmdcFtOFTyTxGBfF+XEP1cysr1LuvYdU1qA6UqXWa45c2xFUcx1epU6QTC9d+SqC3O1YcxjVUvScz0wnSqrp3CvIBT/gvO7WmFQLfo31hOoxAo0kJNN/HZmWl1ArhU3KY2LPzyh8hkrlrSw7+1k6uo13QPLY3naNuV1C8bgaYi4nSAmja5NFIAoV3IcpFAxd/vigOZlq0jJx1WmkcreAHEit0rxl4u4i1XJvSDr/GmbsfzMXfb2FYtGTqidUj0F0q008WM8jN+Odzc9hVDFWEaOEtb/m6rPuplt9YoLHxNCJQ1XIpL5Fpe9+Uhkz4iwVLLWyEmRPpPL61yKi3kxgFM75VYqihFyy+i1kcjeh2pbYBe7Z6yQmoNxXJ9PyetKHfI+/+0qWYpd6UvWE6tHR3cjCfCnp3NXUShE0S0IiItNiqZYvZMWitXFChC/C95jwKqxxFGR+BccXCDICOjqy4bApIDwXgB5/1YaU6bqA60+qc8mqd5POfA8XponqzVsm7pGvU1KUt4ZkWxdy6OHfi034uxT1Z99Tfib7SzAOVIXOHsOcg1JUw1+QyhxPtTx2kqqLy2NKvd9g+env8eUxHjs93kRgydr9gbsxZn+i4ef0qhgrOO0lrL6YK89+LHnMND6fH9YxZsma80jlvkC95tCIJq3x9jychrTMCCj3fY/Mj/4KupzvHjS14bsljIeu9ZaezpBLV19Fy8zjKW2JMMaOUabpfEBl4A9kqx+go9vSNS+iuI8s4F0IG3uEOQft2MZq45PKnA71i8MuVTWa1KU+zeI13aRbP0C5NxqaoyJEUUSurZ2KexvwxcToYZpu3lToIO4Ys3jtEjL5y6mW3LgdY/YGjASUtoTkZ76Nymv/i8ulEwom7uDo540n1OmC7m5L5/yQS1cvIJOPu1GMPjdVVWwKXDRAVH8nxTeV6Oi2k3KiDKltYe6TSmdnlLzP5/ZeGxuHjm4bP/c8ZUOXUiw+9+eejuhJ4rhOvky9fO7YGmcBFynKO4Evxkb701TNd/aYuGn7LZ8m17qUSn+EOjNpyHTwKzMBpa0huRkdLL31axRP+zs2zrWoOk+qU3Bf7C9Bk51vAeGZVa20pH5LkDqSerVZb9PYVrDc+z5WLPrKJAv1CgUVWG9gvWuaabxk7QE483yIZhPIwTh9Huh+IG1AOjb1l+QsT/tR048xTxNFTyM8gYkeo5p7gqvnPzXupmTDQTLu63uMTxYCXLrm52Tzr6BWGX5uryCCSJ3QzeWKhfcMmr5PFzSSe4pFx5JbPk+u/YOxw5ROrGPM3vti6+Rnpiht/TLLFv5D7KbU4evTvUKd6uoUQ6dEXLp6ObnWF1DaGiFmbCeQXHtAufc/JxWZFtQkRgEhRVFIMkWXrjwIghPAnIhzL0fkxQizMe5AUlmwwci91ehlafiUVwdRCGEVMvWnWbzmceBexPwRMb/D8jtOeMO9I5OykrMuT67bR9d6C/ND5Jb/xKRegZZ1GE8I6kKy7Slc35uAq+JNE9PjmsYdnuLRuPTWr5Ftfc+Q9edk1waSorS1Tq7t/SxZW2PZgvPiEL96UvWEOlXJNMnqXXrLKdjMByj3NyNTRypjqQ78GcwHKaihi713bqqamPXPDxOl4ujotrzwoJeBW4DTU1F9GUF6f4J0zI5RPSZFjaBWdju4IEuskjCIPYBUcAA2mIOYN6EOqqWQ3952L0tv/wUarofU/7FM7qWYnPUVCoa5c4VOvztvjiSMG+oPqA4sx5hM0i81ZgwRwYUg+paEUKcJmSZKvKM7zdH7fZts61t2icn9nkWKUm9IfuY/sviWMp1yUbwZ18jPhakBH/IdrqI6egyvbQ14JPg16cwcapWxzcKRiCBlqA+cxvKzbt9rRtiFgmFul4xQgkvWvgIbvJ0ofCPGzCGThyiK1WQUuWGlGAZ47skb8UKv8WKgjXCkJUgRkzdQLVUR+QWq/wP2Zi6ff+fQZ1gX0DUv8mdJTZWYY8madaRb5o0q14pD8aoVrD2Wy059cPD+UxWNOXZedysz9v8+2ZbT4l6mkto3l5rE67vUeyXLT7/EVwZMHfg61EF1Spzk8LBcSr59DrVK2OTcNCLXaqlVrmX5WbdTWBfscTItqEl8hR2dEnHRmufxsds/yMdu+ynG/IJUdjFBag4uhFJvSK0UxeUXGESC5LZrkjdEJH4ubPy8WFClXnOU+0LKfRFohiD9OjItV4L7HR+9dQ0fu/1vuOSGNorzQ0SUwrrA1+gNx7xk3JnvY2xj4zK0CXYuJNuaJaq/YeT9p2jUqKcz4oPfO4CZB9xCJn8apa3hPkum8bwJKPeF5NsvZvGaLorzQwrrAi9w9n34kG9jB9yJY8nqYzDpJVT6XZMuMhGprKHcfw+5Az8ak9oetIArFAwb5wrFRJEuvXUOYs8BfSep7POIQqiXodwbgpiE6IJkAk9479z4b2wcQyYa0RAEgWQzoqrUyi5OcjJpUrmFiCxE2x/go7d9hXr0ZYrzH6FIo52ZY9pnCM9zSTDkFqr947QHBFROB77C3Cen5vUqrAvonB9ywY2zyOVXkcoev1s6xuyttbfcF5JrL7B4taM4/5Neqe778Duixi64szPi0tU3kGt/M5W+Jv6fEpFKWyoDp3HFmbcNPmb3h4eEniRRCuDjt70UZy4A99ek8xlqJYjCKCayCRWzK0oSqh1UPgkBN3hQRnFs465OQdwoxbQj4eM4UUoVgrQlnYVq6RmQ6ylVr+UzZzw6uMGZ9raNKhS6hOprfk0q89IRxw9xn1RDWNtEbeuLuaaznHxpU4dYG+RyyY0vJN2yEps6hurAVCHTwckNJiKTDyj3XcKKRVd6Ut234UO+g2R66wKy+TdT7Y+aGN9HZFst1dJ/cMWZtw32WtwT701E6ZSIS1a9mKW3fwUnvyCd+Tucy1DuDRM3HbtNMlUcqiGqMfGm0oZs3pJrD8i1B6RzBmPAuZAo6iWqP4ULn0p+Pou6MuoUkxLSOUuuLX5ctjV+rA0EVY1fg2iUD+3oDZxFxBLWHaXeEHR/Mrkl5DO/5WPrLubDKzP0dEZ0dNtp3aassD4O66uuw6aBUX1So7pig8PIzJiTbEKmzlxukMrFN/0F6dZ1mOAYqgPR1CLTJHSkzlItheTbr2DxqvOHhX899smww3RX6Bs2xGd4ldqVsXZLLOCGk1GQFqoDTxDWF8d1cLs5s7JQMNAFnZKcHe13CeiHSGVbqPRDuS9KFGWwTRKNk5AsqYwhSMcOLZUBR1R/gHr9LgwbUe6B+mY09SgBW6jWykRBjXaFXiDrLMZkEZMlrO9Ptf48rD0Yp0cDR6P6QoQjSWVmEmQC1MVJUGGYvL4YpMnGTTAghihSSr0RNngeqdwVtOu7ufSWS1mxcM20Vqtz58Vq0+n/4qJ/at4qMB9Q6X0NcMcOu11NejK9+TVkWv4HkQOolcdm208dTo1JtTIQkWn9DItX1yjO/xLnXJfi+nPrnqI8oe5LkzcuN1n66veTm3EC5d4moV5VUhlLuW8xV7/pqeScL9rtCwpF+Oht7wHzSdLZI0YRqR03hBSrQxOTaMZQr0AU3k1U/zHK/2LML+mv3cfnzqzusve8dOVB1OXFuPAk4HUorySdmY1NG8Iq1GsOVBMSlTELCgREoVLujUhnTyBtV/PR27/Elqcu5Yud/dMyDLahKybUsP5LqqUSxuTRSBm120PlZODaKXGOOtjLdNXppHLfAW2lXo32eMeYvUOqhno1ItP6RS5dXWHFoq94Ut0XFdq0RXJGVXpZCza/EZuaRVjXUWoqIp2zVMs/ZvmC19GR2J3tTlVaFMfS1cdiMlcSpM8irEFYC+MkqXHOKRtq1NiATB7CGrhwA8oPMHITh8/4JeeeNHJiNkwgAOY+qWzoUOiCrq6xC3NXV/y6G+cKHRA7IBF7+ja7Hst/1MaW0iuBM1FzJqnUsdgUVEvgopA47DvOZ1EHAvl2Q7W0gXDgfax44y92+0Zmso5RRFmy5pekcidRH+aapDhSaUO9cg/PPjg3Xnj34WPUocbg7yCV/0/UpQlrDmOmz7GUqmKsw6Yslf6/48qzvu7PVD2h7lsTeMmqpeT2+3TsiDRiJxwn7tgU1KuvZsWiX+y28OPwBKclaz+CDf6FIN1OpT8aNFEYn0iVIG1JZaFa2gryPxj9GoH54YiJ2K2WDesF5jmKjdrRXbYQDHkFjybZQnea2oGvQ/TdKG8lk2+nXoawvh1idSHpfIBzFcLKB1m+6D+mnV1bY4wuXvMlcu0fiDNcG2F+VcQI6upgjmXZgvv32XrUQTJd/V7S2S8ThbFn8WToGLPHSdUpJlBsYKhU3sGVi77rleq+g+kZ8i0UDF3zIvrWHYjUL6I6oIxO0GrYC5a2fJ0VZ/xit2X1NkoDFv/gcIKWL5LKnUW1BJX+8UNdcZati4k0A9XSJqoD/47Tr7J8wUMjnnvjk0pPh9ut6i42ZhhpNdiREGxxfg24DbiNj91WoNL/PsS8n1z7rMEM5WafU0xArRJhTJZs+5dZeusxXH7aR+Pvbrp169Bfgn5g9EVPzlFT1MrHAfczt0vYJ1odDdvQN45dlqz5COn8Z6lXHS4UxEzPhEkxsRMWOLLZb3Ppqk5WnPE9r1T3DUzTLN95BhElXfsw2fYDkkV9+NmUYgJDdaAfCT6Bapy8tGvDOxIrivkhi299I6m2nxFkz6LcFya78/HINMIGQq7d4twDVMsfoWRP4PLTPsnyBQ/R0W3jDFmE4vwwVot7mnwkVqnF+WFMrsl7uuzUB1m2oEClfgLVgY8BT5Frs0mGsGuy3FpcpFT7Q7KtS1ly65cpJiHpaWEE0ahHTf+OWpkm2eeKDUDlBIA4ArHPbBKE7u54/C+55WNkWj9LvRLhIkHM9C7nEyO4CFxoSOW+xcU3LfLZv16hTtJ5rIIQsXTlQaj5ENWBJp1kiMi1BAxsuZYVix4iuy6gWNx1u8O4zVsEKEtu/RdS6Y/jwoYqDcZ533EdYq7dUis/Qa18Nenqlyie2TuoRmMbv0l2zihKT6JeCwUD8wzF+c8An+bSlV8HPk6QPhcxQr0y1sSgkbRU7q2Tn/E+ltyah9PeRRcSR+WnsFLtQmPBWbqfKPUMNrU/UV1HbP7i0uDjAfaZxKRGL97Ozogla5eTa72Ucl+E6uRrv7bXpo0YoshhJUW29QaWrDqb4vxbvVKd7CGX6YbBc6lb/plce5HyqLPTRp/TKHyKrDsWfrqFrq5d10i7kVxzQff+5A/4KumWN1LqdUlnLtNs9UGJi7/DugN3HXX3Ka5Y+MjQ55m3j5lrJ91nGgvD4tvegJXPkc7NobKthXWwBdZXWbbwvcl3GW9Mpu4OcGRiUq08zOBBHemcoVb5LcsXvmzfmH8FMzifFq/9Evm2D1DeGp+n48m06Ubapgxi+gmrZ7H89B96Up28mGYhXxWK8yLO//5M4DxqJW0yiSMyeUG4iuKiZwbDw7uKzDsl4qKVc8gd+CNSuTdS7q0nPrtjvwslQoyQaw+Iaj9D9HV8+rTzuGLhI3H4R+Ow7j6n0kQpzg/jsPe6gOWn3k6991VUBv6NTIvFGJqGgJEUpS118jP+nsWrlydhsKldUtHd03BHuiduszfCNEOI6oAezpKb9hsi4ElMpsWio6tLWHrrN8m3fSDx5Q08mW5LqdYcuFaCzM0sWfOXPvzrCXWSTOj1FkTJtvwd+baDiepuRAatJok+5d7NRPkvxqGpXeTXO5RVfBq5/A+xwUti311S4+xMQzI5i9gK9dJS7n76tVx26k8GjeT3SSIds1jExNrRbbniLX0sO+0cqgP/iAlCgpTBjUeqvXVy7ZeyePX7pvzi0ihREr1rTEBJJD5rEzsTSc2Kx9kkjToVNCbTD6/MUD/l+2Rb/4bSln2t/dpemifGUK870FZseiUXrXyFJ1VPqHt9WNI1L+KzKzOgH6JebaJOVUnnBOc+yxWv7aNrvd0l6nQwzLzyb7G5VahruL80MT1PEnTy7QFR/WdE0clcduoyujviPqeNDi1TCT2d0aBaXbbwX4kqZwJbSKcNzo0lVXUBtXJEkPkSl6x6eby46NQey2LviY2vxjgmxfWoEYcBsLFn8hFqR7elKI4Pf6OdtuxKMrk3xWRqPCFMeKUWQ1iLENmfbHYlF914XDzuC/4aekLdGzvkdTE5Pha8mWzrMdSrTdRpylDufYxq5t93mTodJNPVHybd9g1cPfaxbZbF28jgTecM1dJVBE+dwvIFv6GwLkBEp7QFX0OtnvOrFMvOuJWoshDlGdLZsUpVRAjrgrFpbPBNLvhJLrl+Uy9suDFJNHI8RFQDxmwcHDYFokcCTDoLwkb7taUrD6J91lrS2TfEjcE9me7EHLGxc5Q5kGzLLVy6ai7FoleqnlD3BhL/XdUPo07H5mOpI50T0C/y2flbdoE6laEw7+qPkW2/lrASxSG6ZuelLiSTt4h5hmq5g0+fejHFzlocKptGCQjXn1SPleqZv6RSXoTqswQpGXOmaoyhVgrJtb2E1NbLKIqjZwqO5zlJuZbwCPVaiDEyrEvQMNjDJ98mthA3kfjIDw5HsusIMq+cQu3X9i6pmuAQgvRqLl55NMX5Id3d1l8cT6h7Bo2G3EvWvgKbeg3Vso7od6qqmMBS7t9CnevixI7naIDfKFhfvPbjZGd8iupAhHOmaY2dakh+RkBY/w3l6mtYcfp3hpKOxE27UVmcH3LOdSmuOvOXVErvwJgQG+iotnEgxlLui0jlzufSW19JpyRdaqYQGlaQytOIPBM3HB8zgAB32CSLCMWlZpesejGtresJUnOp9Hky3VWkWitH2NRs0plbuWjNC+jsjDypekLdQ4TaWHeic0nlJOnCMhxxZq/q17nq9Cfo5rlZuA0q0zWfINfyL1T6Q9Q1KQVRBWIyrZW+S733FK5edOdQWrxM30bb159b55xfpbjqrNupVT5IKmthTI2toArWGgivRlUGFd3UWTzjn9nT+lB5JulXq8P+LnFTHw6OfzFv72/ABnuZrno5qcx6bPACqqXIk+luINUgfSSZYDWXrpxNZ+fU21B6Qp1s0LiAvPCDAxHzNmolRqjThtKplWq46IuAsOE51DUO+ZJ+jFz7J6n0h+Bsk/ZbCsaRaQ2oDlzFZae+gyve0jeYeOQRh3/PuS7FikX/RqXva+TagqSn63BKtVRLEbm217DklrdQLDq6dSotKhqXm4gDfRpjQYaNT1XBOVA5MFb3ezmi0Rj/F930etLZWzHm+XECnviFfneQanUgJEi/iCCzlotvev5QL2EPT6i7ZYKvjwdXNfsOsm37EYXRiExJ1ZBMXgjDVVxxxl10dJudXpSG2k99hFz7pyj3h6BjC9bVKWKVdNZSHbiIT596MR3dlkLBTMven9vCIY9EFNSQdR+h0v8gqbQZ08BcBDRSVD9BQQ0dTK0w+ca5SekMTyJmVMhXiM/l2Y9Cd3pwE7lXlenKM8m2rALdb1q0X9urpGoCqgMhqcyxpHMrWbryIHo6oymf9e4JdS8hztQV1P0dLmxWP25wERhidfpcF5PFK/+WbOtnqZUi1NmmZQ4mgCAQaqW/Z9mCqymsC+jpdPtkp5DdjWLRMbdHKJ7ZSxT9EyaQEQothqVaVrItL6O6ZiEiOqXOkxqZu6rPxiHf4WfJKskJRgvMbk007V4g08SX+tJVnaTz30ddjrAe9+9FdUI3VfUDfmihmPBNjKUyUCeVeRlkVlNY2U5R3PTwu/aEugcnucYuR4tXn4BJvZJaWWF4MhKOdNZQK28kk74dVXZKITbI9OKVCwlavhJ3zIhMkzCvw1rBBBG18jtYdvrXOOe6VBLi9YvJeGgkXFyx6AaqpbVk8hZl9PfkEKPAhwDi/q5TDNY8M1ahDPJrnrC3Jd5Edsken2cAS9acR6792whpVIUgZbGBYFPbv5mUEKTEGyY1VuYJXjebEmwgBKkU1RLk2l5ONXUbF697fjwOPKnuSUzxJIH1Jl5o7V+TzRtKvaOcWdQRpA316ldiUlsXADt2ftk481x88/EEuW40tEm3mLFhXhMIEkTUBjq44qwbfJ/DnSEV+Wei+mljogkiNj4ft6exeNWRFOXPccnRFMqSdm7r2F8mSUlojijK7Z0ogjgKanBrfku99mrCfodJC9EE96ZOBKOKmhy472CDA4hCnX5G+aoYK0RRP676drBbMSK4HVDufU9GmGw7DMTRHbo8oXpC3SUQivMjCt1pyu4d1KvA8PpPVYwNKPeXcOF/JwS8Y4tvoWAodjouWvM8bHADxsygVht7ZqROMSnF2Iiw3MEVZ/2PJ9OdUKkxQf6MS1evI9v6BmqlaFjEQXAuJNeeodT7NuDqwQ3V1BnSfeOtxMlCHCtUutjjfVHjjctPnvPzLF7zADZ1AC5yI6JJ0wYChohK//9xTWd5Fzyfj3x5Qt0F6O42dHZGVA54FemgmTNSRCYXUB5Yw4ozN8dKc0fCvSrM7REK6wy1+rdJ5Y6K6+xGeZPGPSsdxhpqpXex4kxPps8t4qBY+RIib4i7t40Qa7G3LbwxIdQpdiatpfH4FLFgbB7Ye/aDBTXP4bUtczpCqms3YexJqE5Tv3wFlYBU6wF0dD/KnINk0C1rR9DT4TyZekLddWiYihO9nSAP9YobqVAx8aTVbwCyw5ZthfWWzs6QxWu+SH7GPAa2hJjRdXaqiIkIsgGV/vex4szveDJ9LipoXtyqLZ1eTaX/UYL0IYS1YaFBNYQVEHkF/7TqEIpnPDrY4WRqrLWlpkftKsk1sOm9+/3Ic6ndjk1MFq95OJmm05MMNFmXJRfQc2YUZ/77ZMV9BVM1KSnuxlLoToOeRTgq3Nvw7a0OPEo2vRbQZLGe6ORvFK7/A7m2f6S0tQmZApiQbEtApf8SViz6Cuf8ypPpc/ta4+zd4vx+YDWpDDA8OUmEKHJkci1k5UQA5s6dOjJHCZu6Dgoal9NoBhgyMtk38bhPTAIC59WlJ9RJgo7u+HNV9zuRIH009aqOCPeijlROEbmR4vz+uMRiguGRRhLSJTefRCr7BWrl4ed4w8VpSK4tRaX3GlYsupLCuoDrT/JkumsiD4KR1TG5jFl947IkzF+OjFTsw5ibhPyMlGJXpCaMIwJRlJ0CW+FnUC/IPPbRfdCU/FSDdXucRToLYS0a9VkNUV1Av7tDz1soGOhQCivbqWf+E2PS1GuuSXlMSK49oLz1eyxbdGGsaOd5w4ZdgvUOUIz+kmqpipFM0uxABpklXpCPB9ip86dJq1C3I93MFKjjVLNlnI2Sh4dXqHsFXfMiUEF0EWF95I4+biJuqJU3k6n+CIDOzgluiefFZRgV+RLp/Iuol8MxnWNUIzL5gOrAb8hU302hYOL34xMEdgmKxfg6vnTrQ6h7EJsCZaTRQRSC6jHDnKf84jzpVfi8+DuMomqcZOUviYcn1L2PQiE2c1iy5miQ4+Pz09Hh3owirKb4plLi+7p9shs0b1j19+RmvKtpGyrV+Gw2qj+Jq7+N4ptK0MWUawi+lzUMBY0zuIV7sClGbVYkccQ6mMpr2xoP8Zjk6OmJf6ZNP9PZMEkE0DquvxKLgy4/eD2h7k3MM8nAPIVsSxrnRisUg4sE5MZkJk+MpIvzQy6+7WjSmc9SqzQ5N1XFGIcYiKrvYvkZf6ZQCKZl+7XdjvUm4ckHxljxCUkzIWlDOCD+/nxx+76zXXJ+viCOqvgjIk+okwCNMzOnpzFGnqhiU4Zq6Rmo/R8AnR3bm8AymClqwy+TyrQT1ccmhigR2daAamUpy864dbAfpMfuRJOMUJGkhjGDce3x77r8ldpnViQ7fRXZ0Cev0Rb5tcMT6t7f2sWdFtZlgZPHuCOpOFIZEPkxy85+Nm5ztJ1wbHcSXrx09T+Rbz+FSn841glJI3JtAeW+G7hi0fKhfqYeu3cB0i1Nw4OKwwYQ6t41OvDYcURM756pIqBUebIeJiuahyfUvYRCYgRdrc3Fpg4jqo8ul9FE0dwCsF0zh4IaOsWxZO2LCNKXxU2SGU2mjlTGUC0/BPIPcSbweh+22iOjNzUw/nmbgPWZovsMOjoam6GW6ZvgK5ocYVQ4iJofFPsepthuMPFuVV5FOi9x4tAwK0ARS7XkUPnf+Bfztk18c3sEcBB9iVQ+T6U/GhXqVYyJDfBc7e9YfsbTdHRb39N0QvJS6OjZuQ3dM2VLR7ei22kk7qLptTIbEQpqePZ6Q2FnMnu62GuuUhvWN76rDAhjbCWnx5xIkpKkTLGzPkiyHp5Q9wrmDtYcvmZMZqfiSKUN9cq9PHvgncC2rdK6uy2dnRFLbnkv2dY3UG7q0xuRaw8Y2PJpVpyx3od6d3A33sPObjzixy1Zk0ZMc7JWB9bEu/w5HdNjUVIqyZh2cO7OPcfetmo0rm2oJ900Y1SRJIKmJUBRFV8h4Al176GzM6JQCKjwcsIao7rLJK3aaj/h+pPqg4Q53qKyYYOydOVBqFlOrTraBzhOQkrnA8q9v2bLgV2xg5I3b5jQgt3VpSxZu5RU9mRqpVJs27gDikrFIISozqFegpEZ14oxQlh3mKB/UHlNbSY1cb6AWcaSWy4ENTumbBQwEUFqBtXatcC39lrrO9WZ09rTQQwgW5NhK/iaL0+oe22hLhYd1dcejrij4kxclbG7XBObOWzLkm7uXKGzM+KS1ZfT0nIQ5d5RLdlUMRaisIa693H9SfW4ybLfTe7Abvw7uPAjzHjewVT6wexEp66oDvXqqIxrBQwIZYRkYepSisUpfTFRB0HmpTt+HTXey+RnQO8T/0om9f14Lu2tsWz3m7aJOJqoctFnAZ9M5wl1b2KegaJDOZ5MPhV77A4jQRFLdUAh+mVy/+a7745EuX701lci9r3JuemoRCQcuVZLacsnWb7od3GoV3yodyKImx4bli24m8WrXsXAs/+HmEOplePsaZ3o4VliTzfGqQqwBqL6Vp6qxgvTdFmW6hW3QyFCdYoYJZ1L0fvEUi5fsGyvvfeGUxJ64PQ2djCgPAOwwx2wPPY6pqL14MuII4g6ggBtSnDuYWq9d8cL+7ZCKSpE4dXYwDSZ3BHpnKXc+3uyvct8qHdnSFUc3d2W5Wf8maj6JqCPIJVOzowswgRuYkdmcA9unGJzfOVhrn9TCVSmTeQg3lzYCd1UBWMtqWyK2sCHuXzBMgrrgr22/Wg4Jak+P6kjns5x3yf9IuEJde+iYeig7i8Sp5yR2bhBGtA/cE1nedz6026NM3QvveWvyLa9pkmZTByScZEieh7FziS13Yd6dxidnRGFdQHLz/wNtepbEVONifA5tq2KG7qDyH3xd9pj/MUec40cNjDYtKM+8B6WLfr8sIS6vTOWuxODFZGD0Om8P1UQnvCD1BPqXt3S0dMZ0d1tMeZFRGGsMoetIBgDxvxq/FCKChtQLvhJDsNlRHUd0/FC1ZFttdRr/8blp/+YwrrAl8g8F6U6P+Sc61JcsWgdtfK7sNZgUm5EdGF75Km4ETfEIeJANwJTo33b4ChXRdWBOnTYbYcSujQiSBmMLVPpezvLzvjG3s9OT7JZC91p4Hm4CHQ6nqQmLl/wuF8cPKHuzR13/POXMw9G3RFxQtKwCSkiuAjgt+M+R2G9pSiOTN8/kptxFPWqGxFSVBw2LVQHniBMf8wbOOwiXH9unXOuS7HijO9RL/8/0hmLmGj7JKEQpIVU2oy42SCNWIPIhil3rRwB6ZwhSKdIZw3prCGTN5hAJiQsVSNSGQtmK9XKWVx59v9MilKvwbd+0P6oHoiLkoTCaadODVEdokShTqXWg55Q9yF0JmE9cUcSpPO4aLi6VMBSq0RY/hT/alRCkqrAekdh9f4gS6iWxqpTVElnDBp9gqvnPwXs3Xq9qUaqhXUBy8/4d0r9S8i2BrDNJC9FLIS1TYS1+wirfyas3k9YvR8X3k9p632EUUKoU2jTo+5ZqgN/JKz9hnr1d9Srf6Ra+ilR+OSYvIFmZJrOWdQ9Rm3gNK5YtG7S1E13JZvfeu35GNuKczoN+6EqIkJYVQIXK9TpUj/tCXWSoRHCFY4hyADDOjWogg3AuSco60PA2ISkrvU2Lrnhw+TaDyKqRyPVqbo4Eanv19y38MtxjV7Rh3p3JYrzQwrrAq5YtJxy3wpy7SlUw3HIQbEpMOYeMpUTeObPLyKTfjH3bX0RL9/yIu579sVcccZd8fNOgU1Po176ikXr+NS841l2+su5b8uJLFt4PC5aSiqThLvHJeKQTN4SRfdT7p/PFWf9alKZkMxNykPqcjipbKzFp586bZSObSWdeSrZaHhC9YS6V8fkCzGjaqFFHDYFwgNcdfpArEaHJRE1GoAvvfVgsB+hOqBj/HoHr5ZcSo9EyQLgB/suJ9V5Ed1qWb5wMeWt/0F+RgDUx9xPxFArO7Ktb6Ca+xrXn1uH9Y6ezojOzmjKn2s3zu4Xr3oz6fxqVA/GhdI0M1ZdSLYtIKz/gahvPle/6c5J5+jVOOe2egzWMuEz9Cm1dklc267yFI/evTURCB6eUPfGDjc5axA5aszRmyYmDMo9APSM/szz4obkLvwgubb9icJoRLhJNSLbaqiWVnL5wtsG61Q9dgNE6cDR0W1Zdvo/UO77Prm2FOrGLv7GGEq9Ibn2d7B49b9TLDoK64J4wzR1LxDn/CpFcX7I4tXvIch+H42yhDU3LpnmZgTUqz+l76lTWf6mh+jutpPWHlM5dtpuU4V4nUIf5fpz62M2/h77BKaGscOGDY2Bd1ic0DB6cREQFxPqkAl3fHYqRFy47kBM+I+x8cMoowAxQr0WIXwU8Ocau31hkTiTtasg/Dl4F4f0rybXfkrc6MAEo+4bUNoSkp/5fhaveZLi/KU8el2qqaqdAhImTpw7qc7i1R8mnb+WelVR58aYW8RjOyQ/I6BWWkO9r4PPdfZN2s1g17yIIiDyQlw4PWtQGxt/JD6W6lpvAW8W4xXqXtjbNdQJPD9OuR+uUoS4LtXcP3Yir4/rUTP1c8i2HUgUjsrs1ZBsiyGsfovli34X7+7FJyLtCVKlC742v0K5/y1Uy78l0xqgTQoURYJEqS5h8ZpLBhOcphqZdvQYivNDltzyMbJt11KvOtSxTTItl77DkzPeyBVv6aOgZnKGwhslM+uyqB5NFE7TkplkrTLc7xcAT6h7c0LGP3qr7YgcmJTHDK9BtUQ1kCQhaTAVXYXivIjCulZUz6NW1jFmEGINtXKNdOpTcZ2qV6d7DEVxFNTw2bduIew7i7B6f5yl2oxU1VLpD8m0rOCSle8bTHCaGspFKCR11kvXXkG27VNUByLUNTkzVVASMu39D5ad2sH1J4aJN+/k3AgWupIexuHhiBxCFNLUAWt6qFRQvc9Pfk+oe39CBuYAoDXetQ8bocYI9VqIapKKnoSHC4k6rdX+hmzbrPgcalRmbzZviOrf4lOn3hUrBK9O9zipdndbrnjLI9T7zsRFj5PKWJxzo2Uq6iz1akQm/+9ccvNbpgSpFgoGSa7DkrXXk227mHJfCGrGkGlsrB6Rawuo9F/NsoXvp1AwKJM703luMn/RY0nnA6avTVKy8Xf3j9z4e3hC3ZPYODeekCm3HzaViq3rksVGAWNAZAuZJBW92BUP1K55sfWd48NEdR1V9qZxJmmliktdDir+7HQvoWFReMVb7iIqvxHVPoKUiR2CRnCq4OqGKFLSLd/ikpWn7NOkGpdmOc65PmDJrd8m1/b/KG0NEYImDl6KMY5Mi6XcV+Dy0y6KPaa7dNL30xzMaXAvi5MHp6MzvirGCvVqBRc8OGLj7+EJdY+io/E/wQHYAHREzUxsABB3b+gf/HW3WkSUan0hmfxcqpXY/GFofEdkW4Wo+l2u8Op07yvVhBiXnflL6tW3Y2y9qZGBGMGFgMuSzt/A4tUvpTg/pLvb7ltjOjmrP6+7lQOO+QG5ls6YTGXs5kCdYqySylqqpfNZvvCTdHdbejrdPpElOujBLS+Pcx2m4fmpimItCI+RffaxeMwXPaF6Qt0bO9ykhi2KDkCEETvywVR0nqU4PxxMRd/QIF33ofgxo5L1RSy1isOaK/DVYJOLVFcsWku18u7Ej3as76+IIaxHiMwkSN/MRWteQGdnFDdE2EfItKczYsn3DmDG/mvI5BeNT6bqMIFgAqFaei/LFlxLYV2QZPLuCwtyfDb84ZUZlBOI6jAdu4sLikkB5n6KnbXY1tTXuXtC3buDsj1Wo6NDRgKS9BfsQuJQmjiWrj4WkzqNaklHZEqqRmTyQlRbw6dP/y0d3cYb4E8iUo3N9L9NrXQe6ZxFZCx5iFjqlQibmkUmWMlF330ePZ1R3AR+EqNh2HDpytmYmbeTzp0ck6kZS6ZOHTZlMEGVsPp2lp/+1Uln2LDdz5tk47eaF2DNYYSjPLinjUJt1MpHd8a/mOc7JHlC3euY0cR+Nz4bVd0CwMYegfXxZ1beRyafSrJGZeR+0YHYq2PF4AfJpMKg7++iL1Hp/wS5tvHKaSzVgZBU9ljSM2/kvO5WiqLJ7n9ykmlxfsglq15MKruOIH0Clf4QY5op04h0xiDSS610FstP//4+R6bA0Fy0J5LOW9RF0zoiJOYPfoJ7Qp0sozHfNEpiDEBs5bXfUXEt30VrWlDeRa3CCCOH2LPXUCn/hsxpt6Mq3hVpUirVpJfq6Z+i3HfN+BaFJqDSF5LJv5IZ+32XwjqbfM+Ta9EeItOXk87ejgmOoToQjRPmjU3u0cepDCzkijNv2zfJdPj3pCcn03CahjnFEFZBk5aDPsPXE+okCJu0Np+OAsbECUmH9MULamAWxaUyo0zwIW5ObfhXiuIStxKPSfhtD/r+Llt4IeXer8dm+k0sCsUElLeGZNsWUql/k2LR0dNjRvbLnQxkuvIU0tlbETmUWjlCxDYZ47HJvQv/TK33VK46++f7NJkW50WoCo6T4/PT6Vh/qoo1hnq1nyh9NzDUbN3DE+re2+SNY2ivCk7L8T8OcsmO+O/G7IbjDiaWcv+TlEvdQFxa4zFpZQ2die/vfVveR6X3JnIzgm2Qap18+1+x+JYvxKU4k2Cz1CDDJavPJp1bBexHreKak6kLybYGhPUN9G+dz4o3b9inybRQMCDKktVHILyEsDpNz0/RweYdLeufSJyj/PT2hLrX19fxF0ijtXhHfFyNj60+DJHTqJVklDqNSOdA6Oazb91CYV2wB2v4ZNhtcm5XJuX7E2XOBqWnw1HZ0kml/8dk25qTKpKitDUk334ei1d/cq/XqA6R6d8QZG9AXY6w5jDGNCXTXHtArfILqs++gc++9c9xac0+HOZtJN4Y+0oyLRmci5ieTBJ3w1L+SLHo6OjxGb6eUCfDsJS2bYzDgSHatG8l05rDuXAUQVhqZUcU/QewI+cYhrjJQLPb9lSQTW467GZ34nuRbbyHYCeI0Ix6/8Pfnwz72+5aACV5D3aczzN0fYpFR6FLuKazTDV6E/XKH8f3/cVS7g3JtX+CxavO30ukKkNkuuY8UvlvEtVN7CMtzck0PyOgVr6V/kcWcNXbnxgsrZkaCu0N0/v8lHgfofJrYKi3s4cn1L37SdRtg2yTz6kC7q+adLRolMr8kivO+DWqsgMLliPuCtHsFm3n2kfJzR500EGtCYFEyXPuyHej23gP4Q4sVnbUZ4oAZs+enTv44INb5syZkx72WtGwDcCugB1G/pq8h2iczzPyuy4W49DvNYueIRo4i7D2IOlsE99fEVQtlYGITOtnuGTVu+NSnF+l9hB7CN3dicn9mqVkWr9Avepw2zK5nxlQHfgefdWz+dy7eyevyf0ObiqK8yO6uy2qpxDWptZatGOXwlCvgTV37OBG3mMSYgp15ZC+7Qqmj689lsi+glpFR0xgVTABiPkmMNHWSQLo4Ycf8hpVeaGIjFC8qghoZdOmR75PnIE6vCm5AG7WrFlvMIb3AyeBthx22Kx+4Mf1enTlY4899qfkPbrtvYcXvOB5B4dh6nSRMcSpqho4Jz9++OGH7xn1HkaTuw4j0FeCWwjySuAoEW1Pp63p69taP+ywQx8Tkd84J7dYa1c/+OCDlWGP39HFQEZtLAA4/PDD93POzTbGHazKASCZ5LOpqgYies9DDz364xGfp6czXqA73/QQF608k2z2hwTpA6jXHGYYWYkI6gz1qiOd+yqLVz3D8pNu3u3nkapCF3HW+JK1y8i2LqbSH6HONO9lmnSMqQx8lcv/7/3QpZPa5H5HUFChKI7fzHgJxr6IsKpNNxRTHqqYwFCv9BGyAYgTkrxG9YS61+HctpbtLCDU3ZvJt6Uo9Q5znlHFWEulv5+I78W/Wz+RRUviBV6usjb4y9F+EsYIURRtgsZzjiSQ2bNnXWWtXAiSeFFIY71/cTrNOw477JCzN2169P+2Q6oWCOv14MxUyv6Hc2P5zBgBwjcB9wwjr9HP0SDSd4rwYRFe3ciLGfpcjVkuR4rIq6zlH50L7zzssFmXb9r08NcZOmPdETU8SKRHHHHoq6NIzgJerxq9RIQDwSRVT0MrjLWGMAyvAH7c+PyDf+zsjDN/O2UjF970JnKttxAE+THhVBHBRYqIEGS7uXT1Aorzf7LbSLXhfFMUx9K1XyLb9oF4DKptanIv4si3B5T7PsuyBf8UP75LJrXJ/Q5hfXw9nJxKrsXEvW4lmHarr6KkUkItvJOrTn9isJWdhyfUSRA5qY5Pe2SShf4tcXuoYYuYEpHJBVQH1nHFwkcGnZS2T6bu4IMPbgFmR1E0OkwbGiMB6I+SBb9BHhaIDjtsVtFac2EUuTDhHzO0L9DIGGkH+a+jjjrquPvvv793AkR1vHMaOefqQGrwk8WPqzgnvxn2u9Hffzh79uzjRbjWGJmnqmiMiOaJSKrJDkBEjhWRrx122KzXbdr08AeGPb9ORJUec8wxmVqt8m7Qc1TlFdY2NheadLJSpxr3JEsQqaoF9+NxX6dTooQYf8IlKzvJ5H8Ql2YkBDpEqvG5ZZDOE6Rv5KIbT6E4/48JIe+6kGpjPK0nYOmtXyfb+s4hK8FmRiTGkW2xVPqLLFvQFScfdewbvrwTxjyXfHeL4naL0zatNXa7kuqv4rGy3lL0TcX3ZUylMMtA81CJAXERi9fOwAQvp14BhlvQNSaz+3a82K+fyDURgHQ6fSTIIcl1TDGUZGRBLMgfR5PIEUc8/yXAx6PINQi2kWRjACNCSlXrxtjZ9Xrl/Wz7nDIhfjke1I56D0Zimfnwww8//FgTAgqAcNasWR0i/NgYmeecizTu4jI88ciMujXes1VV55yrW2v/YdasQ/+V7Z/9DoaWDzvssDfXauVfici/gbxC4ycLVTXSoQYHZvjnAdJxYxW9e5vEPWhReOZKqpW/I5XZhu9vLcLY/cm03MziHxxOp+w6398GmV709RZOfv0NI8mUJmRqlXTWUh64kMsXdNGtlp4pRqaahHuX/vAg4OS4XEanr9WeOlD3E09FnlAnm0RtfoYqApgAo6eSa0uNTM9XxVpLtX8rtdoaGoYBE7xuIu4lJi5zcGMJVwH9w7CF3wBEkfnb5DHK+Ie+JlaB8m6ah2kHVfIRRxyRBV6cUMWIBukigip3DlPJjYXZxmT6/L+1VrpFaHNukODNDo6fVBRF9SCw/3D44bPeMUyJj4YF3CGHHJI/7LDZ1xvDDSDHjUPiTa9LLDD1sVpNHtyuEr7+3Hri+/ufVPrPJ51PfH9HWz2LpV6OCFKHY/IrWfK9A2Lf3+doUdiddIy5YPX+ZGatIpM/i9KWbZjcWyEIDJW+f2D5gmtik3uJppYypZGfIGjpDWRb2omiaNoqVGMCqqUQ5345TLl7eEKdFFu9Xpol+qoD1Zkob0z+PrRAKY5UFpT/5eo3PRWbp098AVPlpU0WdgWscy50Tu4c9juX8PvJOvzQtDlsIqaOP+KI5794OCGPVsn1ev1wEQ5J7i+j3gci/H74/RPCig4//NDTrA2+EYdV1TUhwUaGrWMo69dtawPgHP+SZAI7RpckQXTooYcelkqZ9cbI/xtGpM1IXIe9bjTs9SNV7nr00UdLTOS8tuH7u+KMayn3fZJcewDSzKLQUi2FpPNzkfYfcM4P8nR17bzvb6EQd3y54MZZ5NK3ksq9jvJ2Te5r1CvvYMWZX+ac61L7do3pNhBnsSrYN8VzTafnmaFqUn/q7iefvS+OrPgWkZ5QJ49CfTY2tR+x2zWENRD+AuUU6lXGEEesYP+HiYd7B8lKlRNGkdUwZSgP53K5h4YvnbNnz84BxzAxk4TIGGOjKDhtnO9KAKy1L5FY9Yw1+UcR4XejHqPPf/7zD1KVb4wzDhRwImKNMYGIGBExjf8fh1Stqqoxcmx//9bXjtoAGOIQ79FBIOtFzCuSs17b5HUb5CmN1xURm/xMGWOsyOAmZWJh2Ybv74rTCwz0fiG2KNQmbkoSUOkNybSczP75bjp7DBvnyg77/hbWBRSLIZfc+EJyLetIpV9Gpbc5mapGpNIGY/qISm9k+aLvcs51Ka4/tz5FWSQuRyusbAc9jbAi7Lqyq30NjiANRn66T/bs9ZiihNqo2xLzFM6NND4XMdQroLwK9MiYXIeFe+Ps3gpwa7ygTzi7NwKsCMc2U4bJK9x17733VodfY2vDI0EObfKY8V4HEXfG4ARs8nfV6KXJRxq907fOqVM1fxr2eAO4VMouN8Y8X2NiGU1qIiJGlfVRFH0oDN1pYehOU9WPqLo/JKTaTFU4EVHn9NRh7880CBx0pYg5ysWGGqkmalgSwjRAv6q71zn9jXN6h3N6h6r+QtXd4Ry3NYkKbHvzU5wXn4uuWPghKn3fIr8Ni8JKb51c61kcs99X6OmMYt/fCRYyNLKEL77pL0i3rsMGL6TSPx6Zhkmt7FPUSgtZduYtFNYFU5dMIbF7FErmDaTzz6Ned01LhqYH4s/t3A+Bob7OHvs09v0s3zkd8cLqwmcIaV7PJiYYu/6KI5WxVMt3sHzBQ3GNX3HC5TKHHHLILFU9vJlCBUFEfz9s06IAURQca62YYeeV29zsOOdQlVcfcsghBz766KNPMTLM2fh5QlMpICLOucfr9dqfh28EZs+efRzwHufc6DBvo47Ugf7jpk0P/9uo57ztkEMO+bK1usYYeW2SBWxHXRcBeeHoRSMIzH8bIy9KyDRopsSdcxXnoh7gO6rmjvb2GU9u3Lixti0FvwNrl9Ktjq6CgeA9VPr3IzdjUfMwbMOicMa7WbLmGTpP/6eEKLfdtHvQ5P7G15FuuQEx+8cm983I1IVkWgLC+iaqA2dy1Rv/uM93jJn45lcJ7NswRpEdNjCZQnRqLJWBEJdKMtb9+alXqJMBXckiZ4OncK4c25iNPpdpsg6qxp1lkFuTAT3RayEAqZS8yBiTZex5YSKOB88uh6lNfekOqCsBImvNTGt5bUN1jiIUA/KSRPGakWoRRLj78ccfH0j+1lDm5xkjtsn7dsYYo6rnP/TQw//GSPtEC2QeffTRkohb2mQTMXhJQQ8AOPHEEwWIZs065J+ttW9IwryjycXFYW33P8ZEL9+06ZH3bNr0yA82b978cEKmMs5tJxaw5Gy8a15ELXoH1YGfj+v7KxJQ2hqSaz+fJWs+kWQNB9sn05VnkmlbBexPvRKNb3LfFhDW7qTad8q0IdPBcO+6mTh3BvXy9A33qjpSaVB3N39++l7An596Qp1UgRM4IP8M6LMYCzqRxCIx1KtgwtuG7Z4n/IqqnJBEq0ZPBBuLP7ehQRpDBDpIqM1IodmESlSjLGr2vc2ePfsQEY5snpAkNMp2TjzxRAuEBx98cIuIvqkJAUciYqMo+tXmzY98ISG+RlJSw3yhBkgYcqdz7tnhynuIhwSRuC/pHXfcUZ81a9ZLjTEfSxR5E2UqJor0E5s3P/yWBx987E+MzPIVRnoID7/tHIpFRxfCVacPQO2N1Mt3kmkZz/c3oNwXkmn7JJesOW8wa3g8Mr10zV+Tzv8PLmohrDXvGOMSk/uw8itq5flc9eYH6FY79cmUoXBvtXo62dYDiaJoGod7HTYN8MNkkxHg4Ql1kjCqggoXnVxGeBRjQbaz6KoqQWCoVx8jnY1ND3o6J7pDbCQkvbTpNjxuQfW0SPr+UWrSqkqzM1eXlIP8SJU7RpG0UVUR4dQkezYcrtJU9YUikmecEhzn4oSkrVu3GoBMxvyFiJmVZBmbke9bEJFvblvWb/O6Nq7L48NU+lWxwcWYTUQS5tWlmzdv/hRDCUrDPYJ3T/ZnUWLf38vPfJLqwJmE9c3j+P6CqqVWisjmvsClK/96MGu4cYchMj2XTPZbuLrdpsl9y4yAWnkd4dOnceXZj9HRvWtNJCYzGuFelXfFP3U6m+ELGoHKWk9BnlAnH+KWR4BsihXqdh8REWQAfkFxfn9cLjPhBbxBdnOahVoTYXXvgw8+uGU4icyaNesQET2iGaHG9oCyDvQGiUOTwwlVQY7p6+s7Ydh3lmT4ynEJAY+xE0wcj/44kmDlL7Z1f+f42TaI0xAnDh0qIjPHI3ER7gZk9uzZpxsjpzo35qw1yV5239606eFlxAlKjm17Fu9aNHx/r3rzA9QqZ+HcswQpi46qu4otCg1h3ZHKf4MlKxcOmuk3TO6XrrmUXMu/Uq854hLnZnOqTn5mQGXgBzz80Jks79w6pTrGbFedFmJD/4/eOgsxp1ErS1MFPy2gmpyf9uNqsaGD77vsCXVSYbDlkbu3+Rlqs12iAdHEoWT9jpyf6uzZs/cHjmme4TsUamWYSYG1vEjE5Ghy5ho/jW40RldqnKVsRhEQEJ0+Wumpur8YRymKc9rrnLsXYMaMGQ2ieOk27r81iqL7R20aRo8VFdEFJt4BjEPi5kfxc+pFzSzfRcQ4Fz0ThtGHGTKt2PNqpTMJtV155u+pDLwFTAVjpTmphqCRxea/y5Kb/pLrT6rHJvdrLiPTvpxqOUKdIKa5yX2uPUWl7xtc/n9v5WvvrQwSzLRBkp/gXAfZ1jwuCmG6WsBLXPsu8guuPPsxCmq8f+/UwdSK3YvcNcF8H0NYBZWfDgtHTXQDEgHHGGNmjmfQ4NzYhKQocscFQUBiZmDGEpF7YNOmx35/2GGznhSRg4Y9t8R/ZxFwGSPOZDluHFIX0Psfe+yxJwG54447ksVbxr2/qt732GOPPcWYWlYaySP1gw46qFVEPtQkZOyS53ho8+aHfzx79uxjRHSec2PuF4lI4BzXNN7bDpLpjt5/22j0Qy3O/yGXrPor0tkb4mBzM9/fuiNlW5HsTSxefRqY95CfcSGlrSE0MblHFSQi3x5Q6fs8ly/4cNJxxkwdk/sJomteBAVD1b2HqD51NvI7J1AVY8HpmmGbeZ+Q5Al1EqFBiM7cRb0WN5Le1oC2gSGsPUMtCYn2dEx0QDeU8FwRS1I6MvwamoSwhlsOCoAxZhtq0m21NrMJCFVZZ4x0DntuEzcgkRMPPfTQwx555JFNAEcdddSMer16dPMMXzGqg0lRFgiPOeaY9kqlfMxoM/7G/UXcn5L3kxqmPgdLafbff//2bDb9n8aYI5OSm9HPEYD7LyAE9y5jbKpJmUzgnENE/mb27FlvnSBBqggG9IFNmx7p2OVqdohUf8DiVe8j0/YVauUQdSNJUoyhXlGC9IE4+QVBKk1pq4s/37gm9wHlvk+xbOEnEn9gN+3ItKM7tnxcsvZV2NTLqFXc9GzVNrg5s1RLDmkQqi+X8YQ62dDoIRgF90K1H2tbcZE29QgVcQRpS618J9csegbdqZZJ44VOjaqWRGS4eXtjwswdh/ysKvc9+OCDT8bEy01A5zClKMRh35xzbh7wTUDDMDwaOJBxzjJV44SkOXPmmI0bN1Kvl44WkQMT4/lx70/cuxWAI444Ilur1Y601i4Q4UNJLeloMlXimtleVfP5+BLLwm2ZV8RdaiZ+sY0xhGH0VHItLTtUg7pDpPpVFq8+gNyMK6n0ja2ZFSOEdcWYNGFNx0k+Skzuc5ZS/yWsWHhl/NzzomkZ2usAegDcP5DKQFh18XnLtFSnjnTWUKv8iRN7/wiIL5eZWpgaA7uxULWsfwLhgdgjcxwlo6qYAJCYQGKz7omi4cd7fMMqd6SSElR5cPPmzY8O//3hhx++H3D0SJU7/DH6pwZJRBHrnIvKjDSz14Rsz2DQJCKaG5+tjiGXRCWbPwDUarUk5GzmJGefrtn9VeNz39mzD/30EUfMvu2www79eRSFG4PA/NFauVaEZmQKECb1q5/avHnzw4cffvghwAlNNg/DvwK3A7eqqkYi/LTJ9dv1pLp80VWUt15Orj0Yx6JQYtJs2hTcYSwEKUOl/5whMp0/9UzuJ0YgcUP1pSsPAnkbtdK2o0dTH3G5jJHVyRm+txv0hDpZVWq3pVh0qPwem4JtnksoqP56R2mbIT/eF43X3UVE/zRMSTVE31HAAeOduTb8dk888cTUww8/vBn4xdjyGYeqzjvqqP1mJOQ6rkp2ztWstXcCpNPppJzFnTCcnEffP5WKNiZ08R4ReYOIeaUx8gISo/8mZ78AdWNMKoqi2zdvfuRqQKIoOlZE2hjH8GLYuJvoLSC2efzDbh9DDd/f5Ys+Snnr9eRnBMMV+4hvbKwyddjAYFMhtfJfsWLRvw0zuZ+eSSeNzarad5Jtm0kUhtO49ykghqgG8ANgR3I3PDyh7mE0vDBFf7FNESNY6lWQaMMODupE6dkjQMbt7jIsdDqYratqtqMmY5vCRr2oc7JqlD+vUcUZYw4Jw9wrktf5i/EUL7DpwQcffBhg48aNUUzAcsI27r/5z39+bNOsWbNmAftHkYvivqTaSIAKxiNT59zd9Xr0zuR+agwvGsfwYrjKn+gtiq+Hi8BuHB4l2F2aatD3d9np51Lp6yHXlmrqpjRSiUUEGYPYASqVN7HijO6pbXI/UUKdF29QVP9fQiTTOBkJRyplqFUeJJ36ObAjte8enlD3MIaI8efUy+OEllQxgRDW+pFUXCLSvWMJSdZGxyaNu8d0d0lCrb8frQTHM4FI1GHVWncXwL333hvF99c1Tbx2nYjgHKfFGkmPHb9shzsTZWWBaM6cOWlVXjze/ZPaUScixyWlPY3M3mbG8I44zJtSdRvq9Wjh448//sScOXOC5L0fvs2LONRFZiI3a4yxoFvr9fqfmyjs3aEilO4OR6FgSD/7t1QHbovDv+OQqmpEKmtBn6FeWciVi1Z7Mk0iRiJKXU8l03LctE9GQh1BVoFVFOdXEoMQr1A9oU5SNDJ1M+kNhPXHsSkZ48aixOenYjZx7zNPJSv8hFfaWOnRrLuLEpe/REHg/jTsdw2yHvfMVYRNBx74+MPJ7yJAHnnkkT+q6l1x+csIkwdAXn/44Qe/AOT546lkiMt25syZYwH6+voOA2aPf3/5Q/LZxrNTbLRWixqt3JzT7zonr3/sscceBMzGjRuT82WZOb6Q05qq+13SRWYitzuc09+A3DDhHqi7hFOT885iZ41U7W1US3eQbR1LqqohmbxFo81UK/NZsegnU75jzIQjRknTirD6TzTvhjT91tqoLli5YQcjYx77EKZQHaooBTUUpZ/Ft/ySIHM2YX1UWYvEhvj1ygP0dEY76FbTOIt8aROTl6SW0z0ahmZED9QjjjgiG0XhOGeuoCp33nHHkJpM3m8I3CIixw47u2yEh1/inH2HDCnw0XWjg4TaSEhyzh1rraSanIMmpv1xgpZzbq61Jkxev/H3hkOSTe5zF+hlmzY9/I1hm7LtdQ1p1LpurdWi1ySG/TsXONtTKBZdMp56ufims0F+SDr/wqSDjEWj2OS+XruLct/ZXPPme6eHyf0E0NFtKYpj6a0nIGYB1ZJOX2ck4nBvkDbUyg9Ra4vbtflwr1eokx8NxyO9vXlmvirxWWYc7p2zQz0IEwu9QT9eM5YcuXvz5s3l4X+r1+uHi4ynDgXVwTZvMpI0dFUT1yREZAZwwTjv0TrnnKpshKGEpG0oT+Oc0yjSPyTP/XoRExhjssaYIOlPKsDTqu7GKNK/DUP38oceevgbDIWDRz+nG0edIiIHZLPZwxgKKcsO3PY8iuLo7rZcefZjhKWzxIWPSipjxUU1ybUHhNVfU9/6hphMC55Mx9BI9E+kc7Zp84HpdSka7kg3cs3JZR/u9Qp1H0FSJG3sbVQHmnf8iIfx/Tux8XCzZ89+Prgjm6nN5J+/H7VRcdZybNLvs1n/0NFt3gYJKZut/rRazT0hIs8blR0sInLIeCrQOX2yUqk8ANAIwzLUM1XG3t89HobRffHfdEUYujw4jJE68Azo/WGodyf9WAeJm3FqQVX1iWbhA+Jz10A1fD3xGa9hV9eT7hIWQCggzEXYgECndhYK6Z7iG+/RC9eeRc6upe3AAyj3rpvhHn17/xV/8+zVn12U+cgzxYhuLB04kWm8WBYKhmKn42O3HYFzf011YHqr03j4G8IaSFyRy1wf7vWEui8gLpIW0nYjldrdpLLHUh+eDCGCOjB2047OiFjp6YvB5MYpIRlOqMM1cbNylWFq0ozOXlXA3nvvM72HHz7rf0Wko4kjU7PyG5eEge95+umn+4YRloDOaWbKnyjue5IQrGza9MiXtrOpaCjSbRChub8JecOghaKeB1w/7DPs9cVFFaEn/j6lk4ji6PdUjCioCYrymxlL//sfBur7//3c1I/fdUexWALD+eevrp4/+vm6sICT4jSzlZs7Nx4jUfhhcu05Sr0hItO3PZniSKUN9crdHHXAT0CFTm/m4Al1n9khr4v7Sy65ZRWpdEyoDfITYg/fKIzPOXewZAY4LjFiaOrHC+6PTcjzpeOrSfdEtVp7oMljGh6+N4vQ0YycxhNXoIM9UO+44476C17wvIPrdTlqvKSoxv0Zv9lzI7lqe4tAkpRU/61zgWvyfFZVnTH2pYcddujHNm165DKGwr7ROJuO3bvWFTDrwYgMto1DC5jeAzlGlONwzBXLMS7iMEFmRp+R9rz569A6ojL80n1WBgT3pDH8WeBu5/g9KTaI8ATJObSCrC9g53URTXnlWigYOjscS289GPQf4rNTprk6VUcqYwir3+Hck+L2f0X80YAn1H0EDZJUvYmwdsEI4ouNqQXD8wDo6Ehs0SasZF7avIMKEjfdDu4bRgyJMby8pHmbt1hNPvnkk/1NlJoDNIq4XTWqiEh2HFU6lvlFR/RADcPMC43R1vFUdeP+CZ7LRNdY5b7+ztmzf3KnMfKSJib6xjkXiZhPHX747PpDD21esVeWuEKiRmP16PQKWqo5TnHKWQPKKeJ4cVuWYLCFukLkwKmiCBFCVhQjihl2yh2GUK2zZeBz/E6EW1zEKjmf31AkpAjrCgRTmljnzhUQR7T6Q7TMmDHt1Wk8wSzVUoSG/x3/wnv3ekLdlzAnSddX9zj1iiLGJA3SYs/e+DjnEuAmNkx4YUsUlB43TnKRAPdt3rz5mWF/08MPP/z5qtGRE2zzFo4iVPPII49smj171q9E5LUJIW5rt2/jxJ9glKNQdFxi5D+OqtY/7iJ1mBhA9IRwaLeI6UpC1abJ+1RjzPLDDpt1JuiXnJMfP/zww4+ym89UG6Fd6Yxfp/o5jg+Vvy8Jb8sGHGkshHWohNBbJkJQaTxOGt/fUO9zgcbp9qABR2CYmUtxilhOGShz2cC1/DRl+XqpQvfMi3iGImg3tvEeppQ67ehwLP3hQVA9j2pJtzNepwMi0jlLtfQLlp/1h/h82Yd7PaHuU+iKf6TS/YRhFSNZdNAFz1IdcKTzr2fpLadSlNvo7rZ0brN0RgA94ogjZjoXjtvdBbTR3WXwb865FxkjLeOrQ363jdc18XOzMiFU3Z46VHV9tVr9Hhjqgaoq2+qB2p9KRffsIkJtbAQA8+/OuYuB/DjKWpxzTkROEZFTQPsPO2zWI6r0MpSs5UCsc/rBhx9++GcMlefsHJl2Y0XiWtqBL/AKUS6pO97akiOo1qCvipOh8h8ZVpa0zVLl0X8LI7QvwiVkHLRkeLWxvDqrfLz0Oa4Pq3xROnmqoZSnzhnrPINIyKWrP0J+xv6Ue6Npn4zU8A0X+frgNaLoCXUKY+o5l3R1xcQQmK2IlBAZRRWiiAF1HwWGCtC3c41U9WgRDhiHIBAZUf7SaPN23DjlKomadNtShw7AGF3dxDVpzNRNXueBxx9/fEQP1G0Z+YvoAw888ESjL+mumOgOsJs3b35YhE+Z2G9xvDCyUdXIOY2AVhF5kTFykjFyojFyooi8QoSXq+ozz1WVaiFWpU9fyWGlz/Flo/w0l6bDKUFvibAa4gwYgUDinztdpiMSk7Ekm9X+Cm7rAJHCrFyOYirL7wY+z0cKCZmuK0yBTW2hYOiaF3HxuucTBB+kVlJkGtsMNkaeDQIqfVuQ8Lvx2jRvmpcPeULd9zAkGfpRfRpjGdHpQ4j7EQbZ+Sxe83qK4pJeldtSqERRNCdJFm7qxzus/GW7CUmJOuyrVt09I5XdmPvx4IOP/EGVe0a5Jo0hsiSEvDF5nAXcQQcd1KrKMYm2NU3uv4HtmzLsFKk+9NDDVzrnbjPGpIDaOPe1yU2TzjJR8jMEdarunkMOOeSBnVXQiSpVKeJ6r+Xcliy/zmV5Xz3Cbi0RQawiZTfOAxGMEWwtRHv7CYFD8xk+u/R5/HDL5zhpfpFQCxhV9mHT+HkGEcVULyXTsh9RGE1vE3xAiUjnAP0Bl5/5ZNIX1pfLeELdB4dyoWAozg8R8zjGDj/jalCkYgNB3b8AQ+eu27pQ2+7uUqnXdXgP1IR0Ze74/rl6f0NNjkMWDVP6EHTVdgznGxGmOyDugQqQTqePEuGgbYSLR5tK7Jrrn2QFi9gO59wvjDHpRKm6bWxaDMP8g0WMUeWeO+64o578bocWo8Y55SOf5aDy5/luW5Z/dcqBvQOxYjYymGG8p/Z5IkJQC9HeAcK05TVZw4/6ruUCKca1q41kqX1LnaqhOC9i8bojsalzqQw4n9kLce1pHUT+w18LT6j7NuJaOFB9EGNhLKFYKgOOTMvrWbL2tEFHnPEV1/B60ibkKA89+uijDw///THHHNMuwgvHOXMF5E8MZgJvk5wA81/baNjdIHVnrd40chHXOUnYdXQrtW2p6l1FqvLQQw89m8mUFzjn/tsYE8RnzUTDyFW39bmNGWOUMbEXLxBIJ9GTV3PS/gE/yWZ4W2+ZsB6hIns3xNog1r4KUT0i05rj6oFr+c+HriInRZx27GNktLFHQBStfpJMLo+L1KvTpJF4vfJ77t3yI1RlByxOPTyhTjI0Wrmh9447t0U0Pl+N/gVUxjlLFcDNmTMnDXp04nbUMDaIiDu6RMMahA8uhlFUPhLYLyGPaPTNOX47AXUYAWbz5s2/dM7dboyxqtQYSjV1qtTiBt/0PPjgo3cy0qh+bvL69WGvHQLqnKs6J3ftJkJtbETMvfc+07tp08PvjCJ9F+gfjDF2GLnKMEU/6qaR6uA12jEyLRJu/Qxnt2VZZw3HbB0gFAhEJk9YVQTrHNpbIsznedcBaW697zIOlh6ifYZUG17YH7315aQy74rVqXh1Chr3ZNZ/p6czGuwL6+EJdR//dHfi3HikZamVI7Ktr2LxLW+JVaraJoRKX1/fC40xRyVkkEp+WmNMxlprjeFPw+5vAOp1eUUQ2CDxxA2GPyZp/7Yj5SpirX5Q1T1jrUmLSCKMxQSByai6DalU+vxh32dDVZ8iIg1v3sbrB9ZaKyJbs9nspt1IqAxTxmbz5s3feuihh090LnqTc+4rqnq3qtYkbl9jR90ycYav/Gn455komT77Gd6eTXGDc7QOVImMTM7En7jZEEFvP/V8hpMPmcHtm6/kMOkh2qfCv1G4giBlUefPCFUVG1iqfc9Sz3wL8MlI0whTtOg6KZ4W7qRW1m32YXSRIvwL1/3qJjYQxXkqg8kDSejRPK0avieKcIlhfbIgilMNLQQ/HqYoG/hFFEXvcU4iVR3z+kEw+JiJOBCZBx989M7DDjv49ZD6hKq+EmgX0ceiSFeJ2E8/8MADzzLqPNYYXeFcdL1zoo33LSJqjDNgHr/33nuru5lQGaamLVDftOmRG4EbgeDwww8+TNXOdk4PVNWWxvtTVTFG67lc/q6JEuogmV7FW/Npvl0PMZHDmX3gPE+E1NYS4Yw8c/ZXVvVeyTy5mKcmdVlNQ51esvotZFtPpVLyZTKNNSCdDyj3dXP1/KfoVouIJ9Rpgil61pGQYmFlOxV7L0HqIMK6Is18jjQi124p9X6AFadfN4lbcA3WYR5xxBFZIPvggw/2DiObSeGLO4HxZppsPp7bt50kID19JSe35Lk9ikiHDpV9LALjlHBGnmCgwk9b2ngDf6ZGFzr5nJU0biDQ25MhM+N3BNljCKvbK+2aNhoVEzii2oksX/S7HWwR6bGPY4qGfEVRFYpn9iLchU2BjOdQIkK9ohjzzyxeOwPWu5iQxxBBsI2bjHNtd/Qx21WqgH3wwQcrDz744BaGLAzHI1O7jde3e2WxGTonHZ7Za3f2/TVqTAeuYlY+y3dEydSjfY9MAYwQbC0RtuR5dd8WvixFXGKyP7k2vt09seNPuu0icu0vpF6JPJkSl8pk8kJUv53li35HQY0nU0+oUwONRADlV5igWaZvgyoNYS0i13YoGl0aN5Yek0SgxMk8493GM2bY0cdMhFQbZNS4Rdt4rmgbrx/t9eVnZILXDr8/JW6zpt1YF/Bf2TSHlOuEZh82FTBC0NdPva2Nd235LB+WIuG6wiQiq4LGFoMf+98XYNNLqJR8mcxw5a6ANZ8FYC7ir4kn1KkmVn+WWA+OP7hFLJV+R5D6J5asPYqueREFnczXRhluKjtd0R2r02c389HWFl6/tUQ4WROQdvDLDUplokzAFc98hhPmFwknT+bv+tjEoV65hlS2BRf6MpnG5jWdFar9fyQVrEFV6PRnp55QpwzWxyFeK7+gOlDDyLbdkFykpHN5NLoCEWVuj18kJjPpJKHevs9xfD7DxwdKRDJFlJIIEkaQDsgEcF13B7ZnMryx7u64NeKlq95GruXNVAZ8ItLggFSwKYHgsxTnh75UZnpiipNGEoJZcstvSWdPoDa82fg4u8xU1hLWFnL5aWt9QsEkFqcd2M4eoi3XcHt7nvm9ZSIzxUKPCmF7nqCvxLnt53P9Xu1Soyp0IVRubUP4AzaYTVjT7cynaUKmOIKUENUfJpN6CcV5A8ny6suIvEKdQiisb/hn/hCbhu2VX6jGTvrOfYYPr8zEloTqlepkW7+6YzJ99hre0p5nft8UJNPG/KxUUYGuZ69hJh24veb527Xexq3HouVkWw8jrDlPpoMj0pHOCiJfoDi/P87B8GTqCXWqYe68eFBbewsupGnZzAi9LoZaJSTfPoecXEhRHIUuH7qZbCGVjrhLi0AxcuhUjbMImFpI1NrCISKcJ4LSsxfmbCPUu3jNG0jnzqXS70O9w3bh2MBS7n8G5d9AxRs5eEKdmuhIFKnr/Qm18rMYa9l2X9G4G02l3xGkP87HVh5NsTjZE5SmFVzSQebl+3NGW54TSnEf0ym7uItgqrFK/eCTy2mjc0+rVBV6gMK6VsRcj6qizkdtBi8PEem84Ny/smzB08OiYh6eUKfcaqQU1LDsbU+j+mNSWUDcdpcwFympbJ7Qfh7wCUqTCRuSzGbHh830yHI2lTquvYVD0xneIaBJbeqeQWF9nEdQqV1BrvVo6lUf6h2uTk1gqQ704tKfi4+H1vsG4p5QpzLWJ59R/ifO7p/AGhyX0YRk2xaxZNW76eyMmvj8euzp5Sux4nvyGl4cWOb1V2KT+an+uQVwEQq8F6CLPWRH2Aj1XrL6bDL5D1DuC32od4Q6dWTzgkb/xpXzH6MbQ7HoCdUT6pQm1KR8xqyi0l/CWDtBVjXxbjx1NUtvPZgNXXGfVY+9Pl4zhnfkc6Tc3jen2DOEKthSFazl1b3XcmyxiNvt5vmFQmzgcNGa5xEE/0ZUV9QffQwTp4qxhspAL5FcHXes6vKhXr9ATXEUi46CGj592sOg/0c623Do2Z4sMEQ1JZM/kKj+hXjnOc8vKHsTXTGBOnhjFA2Kt2kBB1FLlkCUM/fA3BWYFxs4WP130vnnE9Z9qHckIrItQlT/N65Y+IhXpx7TRKHCYNhXTTdiBJ3gRlLEUu4Lybe/nSWr3klxfuhDv3sHhQJGBC19niOs8NJKbTqNX0ARdaDK6UMcu7su9rrEwGH1P5Gf8UYqPtQ7Wp5iA0tl4FlcdKVXpx7Ti1AbaewmcyOVvq3YwDJxVjXUqg6T+RwfvXUWHTgf+t3zmJeM1SjiL1szZCNHJEwrr1RTrYODlz9zHTOkuJuyfTsabkirX0kqs4JqKfJevWM2N45Mi+DCz3Pl2Y9RWG+9OvWYPoQqonR0Wy5//ZMoK0nnFJ3g+ZtgiOpKKnMALvy3OCV+ngFvfL2HCTVZy3gl8dWfVopABKmFaDbgQFviWIBdXpOqKszZoCy5aT9s8F+IpHCheK/eEddICVKGct8TSMs1sYOUrzv1mE6ECtDRmBDyNVwkO/TZB7N+Z5zB4lXnU5wfUljnd+17Fi5h1OPVwdS1c9gmqUaZNNiAOQBs2MXXoCtRWpr6Kpn80dQrkT83bTIOUzkBvZxlr3uWLl936jEdCbWzMwIVclvWUR24h1TGoDtwDiVYqqUIm13B4rUvozg/pKPbk+qeEAUgEme2Bk55QRg3sJNpeB1AIHSJQt2VKKwLYjek1f9Mfsab4hIZ48f3SHXqSGUMlb77qLZeR6FgKHp16jEdCRXiIvViZw3ha6QyEPd1m7g+0AisTSN8k8Kv8g3J64fRnmAS6D2QGcZwUBhNT4WKxoFugSMAmLuLwt4NMr3k5reQzheTetPAD7wm34BNC/AJrjm5zNwu8Z69HtOXUAdrUvk65f4SxgYTT05KHlkrhWRb51B5+vP0dEZNmpF77Gp0xeSpNfZTpSVSpu8JdkyoBwFDrlHPBY0kpItuPI507utEofP1pk0Rkclbyr0/J/Pjb1NQ4/udekxvQi0WHR3dlssWbULdDaTzTDg5aVComoByX0iu7b1csvKc5DzV7+b3AAJDqzWkNCaVaUmpLm4r35psNJ4boRYKhp7OiCXfO4B0/nsY20ZYixPxPJpc/AisXkKx6LwdqYcn1JHE+HmiGrAzSRdqqZYj0rlruWjlK/x56u5Fz8aYPEMhZWID3+kZZhPExbWoeY17JyV7i51RuipsnCsU1gVI63dIZ19IrRxhjCfTsdcqIttqqVe/zeVn/B/d3TbOyfDwmO6E2tMZUSgYli34KfXKj8nkhB21sBMRXCiIZMiku7nwBwfS3eHrUz32lVkrdA2a3v8H2fZ5sXmDT0JqxqaYQKiV+yG9BFVhQ4c/N/XwhDqExELQmKtj56SdWZLEUK9GpHJHks7+F11dEicp+CSl3ba0OSKn07gAWFFjQKAkcUWkyM6o9UEnpFXLyM94N+XeOmL8sUXzax6RbTGEtRUsn//noUbrHh6eUGMU54egwpH730il70+kM4adMVpv1Kfm2hdQPfkzdIpPUtoN6JgTk4Yx9EWOMEmtnJYqIbFYKAGDyVo7hHN+lUrI9ELyMxZT7g2BlB9lTcWpI5WxlPvuoT7jSgrqy2Q8PKE236Wvt5x7Uh0jV2FTsmPJviNWuIDS1pBs24e5dPWHKM4POec6v0DtSiTJNxLyrMCAMUzXU9SGJH0SgLk7SKjn/CrF9SfVuXjV35NtvYrqQIh6b+ptXGzFWEG5gGtOLrOxx5fJeHhCba5S58VGD+nqtyj3PbjDRg8jJl5i+pDOXsslN5/N9efWfebvrlzY4h93t7EVeDJlmXbWg8l1UGJCfQjYMaekwrqA60+qs3j128nm/oN6LcI5i3hbwXHUaZyIVOn/LssX3ExHd3zm7OHhCbXp6qSx0cObSggrCDLCc5CpuNDgIki3fIsla06My2kKnlR3DZ+qFjAnnUtd4cEg7mir0/A6gIKBu3dMmV4Xh3kXr3kjQeZbRJHiQuPJdDwyxWECoVruJZW/YNDj2MPDE+p2VKqqkKl+lUrfnwkyBtWdVKlGCENFaEVSN7LkpqMoFn05zS4eq6pskGlojg/gFFurA8pGYGJOSedcl+L6c+tcevMCgvR3URfgQjyZbpNRHdm8wVU/zmWnbBr0OPbw8IS6HZXag6H4phIqK0hnhOdyOmeSzN8gdQgmfxMXffd59HRGnlR3HazwC2Jzg2lFCKpoOkAqdZ51UUKoHds5oiisC2IyXXU6qfwNqAuIQvWG99u80BGZfECp9ydkf/4Furstxfk+1OvhCXVC6Ez6m9Zavkqp9774LFV3fjcqYqkNhKQyLyE98yYuuaFtsPbV4zkJNIAo5Of9ZerGYKdZpq/LxAcIv515Ec9o0nB9m8q0OD9k8U1vJp27EXV5T6YT2LaYAMJ6jZBzKRZdUnPqw70enlAnrFLndgnXnFwG80mCtDznCSQmoNIfksm9gqD1B1y0poVi0VHwHqk7fUmThtrX9HK/gz/kUiAwfcJwghoLIqzd7txtKNNLVv8VQet3iKIUUeg8mW6PT4nItlii+r9w1el/jJsG+JpTD0+oO6hSJSa7bPBflHt/Tzpn2Zm61JFKNaDcG5JtmUfafpdCd5qieDel54IubLGIQ7nJBtPLglAUW6rgQuXm4Yp9FCPIYOeYS1f/PzK5/8aFFufJdALiNA71Vnp/STa9LA71+ppTD0+oO7c3ndsjFOeHiFnKrlp7xMQ1qpmW06nt9/2YVL1SfQ6Iw74R3ylXiASmy9l0lM9CGHLHfufzB9W4P+woQhAKxGN46dolZFuvJ6y5JAHJj7ftsGkc6g1rYP6B4vwwDvX6mlMPT6g7qVKT5KFlC1dSGbiVTItF9bnvUMUElHpDMq1nUjvgfzivu5WiOJ+otBOXMm4ybva/iD/UIn7SkgFVpryKcArWImL4ighK16iNREENIkpRHB+97TNkWi+nVo5QJ4jx2bzb307Hod6w8gkuP+33dKu3F/TwhLrrJphbTFiLiBtvPPddqknclDL5Rcw84CYWd8/w2b/Pbcxa4fNipn6mb5Lda/pLPOVCvg1A17BNRGPxP+e6PEtv/Q6ZlvOp9IbgfJ3pxC5wRLY1oNy7nuWLrqBbLZ2eTD08oT539HRGdHdbrjjj19SrXyHTap9Txu+IK52Ef1O5U7AHruXim54fZ/96R6UdVKmRKtL6DDf0lbgzl8boFE5OUnC5LOKU62ZexDPajR3M7i2sC+iUiPO/fyQHveh2Mi1vp7QlBAkGXX89tkWmik0J9epWrL4PEdjQ5bN6PTyh7jJs2KCoCrnMJ6gOPItNPQcHpSakWukLSWVeQTq/ngtvfpFvUL4THNODkSI1I3wqFSA6dV2TXCZABko8I8JnVZG49nRY8tHiNa+ndeaPsKm/pLw19F1jdggRqYyhXvkgl53+QNyFxxs4eDyHDb+/BE0wuFjdcj65ts9Q7o0Q2XXhWdWITM7iokepVd/BikU/GXxNjwmNWy3EY7d3Jj9ryfGKgQqRyNRKUlIlbG8h6C1x0YzzuVq7sbJBdfB8b8ktH8CmrgVShLVdO0an/LbMReRmWMpbvsbyM/7ezz8PT6i7b7YJHT2GOQcJ1fovSWX/gnolYldmlapGpDIW1RJR/e9ZtrCH7m5LZ4fz2YUTuHwFjBRxW6/h1Zk0P66Hce7OFCLTKJ/Blqv8oe1ZTgLCkx69zt5x/bl1LujOkT3wM6Qz51ArKc55w4Yd0v3OkckZ6rU7qbuTaF1YpgtF/LzzeG7wk3AcAQTEfVOFf4ojvg1r8l31EmKpVx0a5Ullu1m6dgmdnVFs2u/LarZ7+Yo47cbOuICfVupc09qCdcqUUBgKai0aOZwq50pR6110BHdcf26di9YcR/6g/yWbO4fKQIRzvixmx3YqSpBSnKsShX/DVacPJPPRk6mHV6i7FY2WTZeu/gr5GX9PuTdEJNjlE1xEybYZqgNfp/LMB7ims+xDUBNScUInhtcS9Ak/bUnzsr4KkdnHQ79OCWe0EjzbR2H/C8wnVZ2IoCxe+z6C4Bps0E61tOvH4vQYNCG59oDSlg+w4ozr/Dzz8Ap1T2HOBqVQMESymMrAk9j0zvdMHV+pCqih3BuSaX0P+QPXs2REspLf9Ix76VDmoHI+VY14Zy1kazrYt7N+nRLOaCHY2i+r9t+in7I45EPf25+P3v51svkv46J2qqXIk+nOkKkLybcHlLd+zZOphyfUPY04489w1elPoOHFpDMGdDcs1pJYFW4NsalXErT8hKW3viMJOauvV93GlRsK/d5VqvIua8AK6vbBzF9VwvYsQW/F3DmjVf9KiuLsklvOZObMX5DOvZtKf4SL1Ccf7dTFjci0BFQGfkOt/R/p6LZ0eWtBj12+kntsF93dls7OiMWrV5NtO51K/+7LqFSNsIHFpiGqXc09P1xKT7Hmd9PbuWwFAikSPnsN75uR58ulKlHoMEb2jTGuStiSlaAUyiNtkfsLuffuqm1/cHlk0h9AFepVH+Ld+YvrsIGAbMXVXsGyRfdSUOPdkDy8Qt0b2NChoILY86hX+jGBoLp7FJCIJQqVWsmRabmQF77+hyxe/dI4BFwwPmFpXKUaaoFgvwv4j94BPpJLY60Bp5M//Bs5orYWG0ik97Wpe4U8+stX2BkP/TZKtX6AWtVRrzpPps9hq2JMYuBQezfLFt3rrQU9PKHuTRTFUeiyLFtwP2F9Kdm8gd3oISsiiBhKW0OC9F8SpH/K0rUXUCy6+L34s9VtkerMC/nc1gp/n7a4bArj3OT1+62r0ZktWAmjH33xqQ++Wx65o2gzlZsjDV4QJ8FhfBbvcxoVIdk2S6W0hCsW3TToLuXhsTtGm78EO3CtursNnR2OxWvWkW09hcrA7i+mV40wxpJpgbB6C7XKhaw4YwMwlIXsMfKSJeHfLZ9hQTbFf2YCDtpaJhTByiQZ8xGCAdpTGpVc+rYTHv3WT+/TQ99vs252NNDvko2VJ9LnAudCWmYGlHq/xvKF3rzBwyvUybROs2FD3NIpSL2fenX3hn6H1KpFnVLui7CphaSyP+ejty2lozs9aLDve6w2V6r/xNqtIa+u1vnfGa0EBsTt5e40ihCqpUVU263W/r339LtaN93yvPvMIQVjBmZHA/0RIl6VPucL7UJybQHlvh+R3XKOT0Ly8Ap1MiLuRhFxyaoP0DLzS7ulNnW7arUVauU7cNESli24FYjtErvmRb5Afdjl6sZKJ1F3B/bs1/FRY/loJiC7tYITRfekVaEiRBjSRLQY+H39cC7a8sHareXXGcnWA2plp4j4DjG7aJ6kchZXv59q+GquOv0JCgXjfXo9PKFORgwZk99Itu1sKn170EdVFSUinQtQB859A9Eil51639B7mxd5+8LkahUwdKEiaN9nOMEGXJa2nG0Eeiso4ASM7KZsYIfghhHpUy7H5/vfzhV976SkM7Gmj8iJ84p0l00PFze0YCvVgddx1Rv/6I9GPDyhTmpCLRi6upSPrX4+pH+HmAMI6yTHYntu4QAh2ybUK73AtbjoMyxb8PSQksb7Ao9SqwCVz3NmpFyaspySCqBUhTAaDAU/J3LV2J5SIzViBMmJIy3wVJTjv8oLuLa/g/vqx4AZwFInwpeU7sI5odjAYayjWjqDK868bTCi5OHhCXUSo1Gbesnqt5Br/T61Ugjs+dIG1Qhj46SlWmkz6q4mzP07V7y2b1Cx+lDwkFolNoMA6Pss843h/QJn5jLsB1CpQS1MIrQxQwoNgtVR86XRl1RRBFXEWGNM1kYEDiIHG8NZ9JRP5Rulhfy5fhRIDStlHGbM03k8RzIVE5HOBpT7/pYrzvxPn4Tk4Ql1n1KqjdDv6i+Qn3kepS17qR+lKoojSFlSWaiV70flWvorX+FzZ/YOKtYNXerPkWK1Sgeu0ah74HMcqspCYzjbRbw6CDg0k07u7CBMyFEVnMaTRgSMgDVgAxOn99UdhDxZdvLY98un5L5WXnTY/1Zfmq5GMwWpYKWCYnB+2u3yrxQlipOQei9k+enXcM6vUlx/Ut1fGg9PqPvOrljo7DHMJk12v58TZI6nWnIYY/bS+1HAEaQtqQzUKveD/CsafZ3LT3s83gSoYWOP0OPbxGl3HG9thIIB9LO098JxBl4GHAe8QGEWMEOVjEAWIXIqdRVTsURPthn+hGHjz6tH9368/7yjbqu87BSNWuZAPYeUCQhxnkh357gPyc8IKG29jOWnf9wrUw9PqPusSk0szBbffDxB/ueoponqZq9mayqxngrSiWItPQF8k5D/YMWpG0YobOa56e4ao4qs78LOm4sOJ9cR97mO/Ib+9myd9ly7fTY8asbA1sx7qdQAFvcdj3vonZiBtxOEL0LqBFE5VrQY/CH2bv326uRmpCj3foFlCz+UkGkE/rJ7eELdN9FIfLj05v9Hfr/rKfdNDt/VBrHawJLOQ3WgjrAKE3wZq7dQnF9J7igU1ltY76Z7SFgVoQfDhnhudFGgyDwoviEcsUYv/s2RmC1vFdxfGyuvlHQWrZXRek0Vo+qzdveQMp0ZUOn9CpcveF+c1+AjLx6eUKeAUh08T/0q+Zl/t/fOU5suPApEiAnI5OOGOfXqPRjzHcKoh+ULfjPszjG5bnxSp2VYWFXo6TFsOEiGhw0FSBdWHVmv20WKeSuqryfbmtWwDvUyxM3Nra8j3dPKtO+/WbbgXRRU6EJ98p2HJ9SpshB3IfT+NENu4GfY7AnUStEka7WliWoVUhlDkIFqvyLyM0S+h9ib+dS8P41U392WDQdJHBpGpxjBCoWCMHeusOEgaZoNvXTdceAWoO4sRF5FJt+CczGJOheC99rdC3OtTn5minLvd1i2oJNCQejq8mTq4Ql1aqnU5Dx16epjMelfoLQQ1Sen+01MrHEXk1QWbCoOCav7DcasBLuGvvJv+NyZ1RGP6+i2zDlI2Pik0t3h9p1FTIVCl7Bxrgy+/2bF/pfcciiBeyUE84HXo3oC2VaDi6BeARdFiABq4lxfjz37NbqQ/H4Blb4f8PR97+CQR+Lv0Geve3hCnYqkmoR+L13zDrItPUl9qp3E1zrODI7r+AJSmZhc62Vw0X0IP0VlPbXo5/QdcFfTUoRBFQtsfFKZs0Epdu0FNatxIUwXwtweGXxP450NqwoX33IkaftS1J0M8mrgBNLZdkwAUQ3q1fisTkQ8ie511Mm1paj09/D0/X/D9eeEFLrEk6mHJ9RpQaqrL6Nl5kcpbd1XmkPrYOmNYAkyQpAUZFb6FOU+4NcY8zOwv0bs3Xz6lEe3SXAdPYY5B40cZ3OfVHqS/5/TkZBuV5PHJ7/b2BM/vgOGSHLUc/V0OraV2dnRnebwGbPIpF5EFJ2A6MtRPQGRo0nnMxgLLoSwCs5FyXVoZGv7eTIpyHRGinLff7HstL8ZjDh4MvXwhDrVkST2NPx+c+1nU946eZKUJk6vcVgYQCQgSMfqVUxMPGG9F3gAdXchshHs3RDej0s/TI6nhrKI99hGJkvd7AeVg3FyOKpHg3kRwtHgjgYzi1Qmg03FLg1RPVahqjGBehU6ScdhUmda7vt3li04h4IKdPkwr4cn1OmjUpOWapXXtmHMTwlSL6FWnmxJSjuoXtFBggWLtYJNgUnFtkHOxUQbRQOoPoORR1B9AvRRVB4HngZ9GmueJWIAcWUkKoN1qClhXawwK4AEBuvy8StHOWyQQVyekBnADAz7I7IfqgcDB4MehMrBCDMR00YqA439i4ti9RnVwTkHND6DiW0FPYFOUiJVRBy5Nkul/zNcvuCCOE9hyiXHeXhC9dg+qQ5PUsr8BNWZRHWdOlmhmpBsg6BEEDWIFYxl8CYSq1pN+FgVNIIoIbqYrmsjR6YKSCqmvSbP1eBA1cQTMBq6xZwfDfaqFZHYk1c9ee5TZGqUTN5QGyhw+cJPxl1jfJ2phyfU6axUA4rFkCVrFhJkVxHVFReZqV2vqIqKIgndMrwJe9LLZTTBNbscgw8b9nyNxXbkMG7+nB776vBxGGsIUlCv/P/23jvO7qLe/3/OfMopW7PZZJNNLyQhhR6qQoBQpVgIqOhVUcGv9+r1qtgu3gR/Kk3U68XutXBFNBFQEJDei4QWQgrpm57t7ewpn89n5vfH53POnpM9u1kQhSTzfLiGbD7nfD6fmffMa97vec/Mv3LtWT8ypycZjKAaIlGNkpSuvPdTVNT8mEzvW3Myzdu0+yz5o7x5Gjs9eMQ0wHEttMjgZT/M9Wf90ezNa9hfMIcx/jN47DeKxY/YfPuM5zjukhjJ6lPws54p/4JYRl7l3j+YDNuDSkyVT6zCRund+H3nc/05fzViajAeqmFoT/XL991MsubDpLu8wjyhwXCwi2mixiaXWYHKXsS1Z28wYmowgmoYotOIjnubPUqQ8+4iVnU2fV0+Uprwr+FgbRNRJm+1RabvLlTrh7nu4q5wo/uLA1NAhv0JswfpP3X4IqJdhBYE5PRF5FLPkKiy0cqMwg0Ho5gqpCWIVVhker/DNaddwHUXd7FYSyOmBiOohn1z9dWKxUsEN56VIu2fh5deQdyIquFgE1Pl48Ql0k6T7rmMaxZeyeLFEq3FwX4+r2E/9plMEbxF5NeofuG20cRq7sdNHk66x0OYOVXDge2WoglIVNnkMuvxcx/i+rOfMweDG4yHavg7PFWhWLTU4sb3NZPtOpNc+m8kaxy09kvXbRoMB4yWKhCQqLbJpf9EZteJRWLqGzE1GA/V8PexaKnFsosDPr20ktqRP8FNXEompdFKm3M2DQeQmPo4MRutFSr4Otcs/HaJ/RsMRlANbwqLF8vCRt9fuf/fsNzvgbbxc/vz3r8GA4XTixLVFl56E773Sa4762EWa8kSzKHgBiOohn9IxyNYtizMbvzyvQuwE/+H7Ywn07u/HP1mMOxt0wGWZeEmIZf+PZnUZ/juBa1mfanBCKrhn+StRp3N5++YQKLmN7jJU0l3B2h9gO//azjAvNKAeIWNn+vC97/IdWf+AjAhXsMBjQknvt147DeKpUstPn9RJ3LyLYxtrMZNnAhaoFRg5lUNb3uvVFqSeJXEyz6ISr+H6855gEVLLVYthYvnmiUxBuOhGv7ZnupiyZIl4RzTV/56KZZ7E5ZbS7Z3/zuo3HCweKWKeIWF7/UQeP/FtWd+P7RlE+I1GEE1vB3qZ/EjVhgCvnMW8YpfEKs4ib4uDZgsYMPbxyu1bAs3AV72PjzvP7j+zDUsXhzaZz7hzmAwgmp4673VaIR/+U8dRh5yNVJ+FQF4GeOtGt5KIY3WlVZKvEwLSn2daxb+1HilBiOohre5qGrJ1SL0TL96/+kI54fE4jPp61GgMd6q4Z8opGF4101YaA1BcDPZ3FV89+xtxis1GEE17D/1lQ8BX760hvr6/w8pP4MQkMv4CKzoHFGD4R8ipVF4146WwrwEfJVvn3af8UoNBiOo+yfFSw++8sBCLOu7uIl5ZHqJMoFN9rbhzfZKQ7uKV4GXbkHpa9jw+A9ZdnWOpUstFi1SZpMGgxFUw/7awwmWIrlYBFz+0yQjp30FKb+IHUuQ7lUITBjY8GYQroGOVwq8jAf8jLS+hu8t3DFgcGcwGEE1HDDe6lfvm4t0vo3lnI9S4GUCwGwIYXijQiqIVUiUD1r9kaz3Lb5z1ssA5nQYg8EI6oHrrS5+1CrMX33twfeA/AZuYi5eGnzPBywjrIbhC2lShglH3oMEXMN1pz8MYMK7BoMR1IODxYslLAmPhvvII3Ea9RUIvoSbaCSXgiAwiUuGQcZkBBAJKYDvPQ7qWr698N7QtnSUvWsO/zYYjKAeTJSEge8ZhUz8O1r/P9xEHdkUqMB4rIZQRrVWgCRWIdAKAv9hpP5vvnn6neEVWnDxMmnmSQ0GI6gHd93ml9gAfOEvk4gnPofiMmLJanJ9EPg+CIkwB80fXDIabV4vZbj8xc8C+l5QP+BbZ/zVCKnBYATVUL7zFCyLsoEBvnzvZGTs0wj9MdxkPV4G/FwACJMVfMAToDXYjoWTgFxfGsRtCP1jvnX600ZIDQYjqIbhsHixZM4SURDWr907Fu1+HMQniMUnEfiQSytAhx6rCQcfUN4oWLgJgbTBS28H8VtU8CuuPWNdwT5WzxFGSA0GI6iG1yOsLJCFUPBn7qmmOnEJSl2ObR+DtCGXzs+zSuO17p8yCii0BsuJNq3PgAqeRspfEvTdzrXndQDhfPvsRdokGxkMRlANb9xzESwpWmoDgq88dAaSy9D6XcQqKvFz4GX6PRyTxLQ/iKgO50YTYfPOpXcj5B0I/dtCWBfCdaQ8qsyeuwaDEVTDm9cP9++4lOc/75sC9iVoPoC0DsN2Qw/H91TUcZvNIt5uIipEKKLShmxvBikfIeBWYom7ufrE9tK6RoFZR2owGEE1/ONYtDTcAzg/j7ZYS/xHT0ar96PVeTjxcQgrFNfAU4AyWcL/9MiCBqEg8kSdeF5EfeA5sG5Hiz9z7akbCp9Zqi1WYcK6BoMRVMM/nb3nWQG+/EANljgNuAj06diJBqQELwt+LgwLCyFAm4SmN9sLzR+XJoRAWhZODISETF8OKZ5D67uwxN188/RVJXU4Z4lgEWZXI4PBCKrhbWEfi5ZKFgEXF2V//sdf66iInUwQnA+cimVPwY5B4IGfC0+8QUehYYQR2DcooCCQ0sJ2wXJB+eBl25HiKRT3op2HuPbkdUUfDbegNHOjBoMRVMPbup8XLFoWhnaLl1b8x9MJkun5KHUmmtMR4jDcRBIhIciFAqt1EM3zCbQ2868lxao1QqhC+QhhYblgO+G/Z1MeQr6K0k8i/IfJVT3NjSc1DxTRBcqEdA0GI6iG/U8EBMuWSVhESTITwOInJuIHx6H8BcAJaD2bWCKGsEIPy/dAeRpNtOZVCDQi9GQPZHvUGi00ouCBRuJpg+WE86A6gGw6h2A98BySxwh4prBWtFDGWsKj0niiBoMRVMOB6LnOHiW4ekEwIHv0Kw9MRVpHooITgPnALKQ1Gjcemp/yIYh+tIoSnaAgtGgRRYz3B1vVYaQbHZaDzpeFREqJzIunFV4Srvfdg5Br0PoFhH4OrV7kmrM2Dpj3XPyIzZwWbU56MRiMoBoOFvLJMKseFSVJTXm+/HwNomMGljiMQB+JVnOB6QgxBicRemwQemtBEAquCgg9Wl3qjYUhZBGasQ593H6TfjNsW+f/VxgoiOj8T6118YOAlkgpkFYomNIOE4fQ4WDBy+ZA70TrjUi5EiFWYMmVyOR6rj6+e8Cdly61WDVKGC/UYDCCajAMFNjBxGHxnUmCigloOQXfmwl6FtKajFKTkYxCU4ftCmy3yGQ1qEhjS37yjmEUYkVT8Oj0MFqC1mHoOT/PK0QojEL2/7eM/p7/kFbhXLGf80G0gd6DEE0IsREVrEO665B6C93Z7fzPudmyZcQCyZwFmlVLNFdfrTEHdxsMRlANhqF9vmjz9dmjItsbygPTgq88WIcIRoE9Fu03IsQ4NI0gR4EeDXokWlQhqETrSoSIAU7BUxSyP8Q6pLlH+qVU6BGHPxqEh9BpIAWyG3Q3WrUh7WZU0IK0tqPVToTeiWfvpqKipazHWRDP/PwnwALFErQJ4RoMRlANhjdLZQWLlwjmzBFhmDMSm+FmrV7+vMOIjiRSxHGtBLlcJYGVRARxBHGQLkLYaF0RJgUFpXavLY3QvSBUKJ5BDi37EEEa5fQivTR+LkPywtSwn2nRUqswaFjdopm9SnP1Em12KDIYjKAaDG+NfWoNS5YIVs8R/V4tMKdFs+otECmtBUsQ/V5mhBFNg8F0WKYIDAeEhwth1HbJEgFLYPWyfttetCj8c9Wjg9v7nAUalsGy6O+zF0WiuASWLNFFCU9GLA0Gg8FgMBgMBoPBYDAYDAaDwWAwGAwGg8FgMBgMBoPBYDAYDAaDwWAwGAwGg8FgMBgMBoPBYDAYDAaDwWAwGAwGg8FgMBgMhoOPA2AvXy1Y/KhlqtJgMBjymIPpDQaDwWAwGA/1LfBMEZor72/EdU7Hz2mEMKfnGAyGgxilcKskXvoFrlm4Gq2FOcD+n4e93z75omWSZQSgjiJZezO5FAhpatRgMBzEehpARQ109P4XsJolj1qAbwrGCOrwsESOdI+Pl1aAUVSDwXAw4yNtGy36TFEYQX0DIzIhENiAQhgX1WAwHMRoHfXr2vSFbwGm0A0Gg8FgMB7qGxxFCIGM0pcCraNBXT9CgBXlN2kdXrP355TWqDJT/ZYUhUwvv+gCO/qgBoKi31tCMFgqlY7uo/eRUpB/3r2/e0BlSzHkwFZpjR5QVuF774tgiOcUUbkMGmSI7j1UPQ2FP8Q7F9dl+XsPrMc3+s4CkEX1X6hDNbBch7rXYOUxmG3ty66LbSxQ5ep4YDkPZt/lynaw533jdTL095V73uJ2ui+KyzEYom72bjPlynzv9luuzQ7VxgfYVPQ8r+cZDUZQ3zoEqJyP8qMlWq4NtqBgsQK0r/FzXr71gRsucy39nAW2ZG9LD/q8KOwiIG6HvawGP+WF/yGi3+evz/oQqMF7W8fCsuXgQilAK42f8UBKRNwqL2wa/MKzle1lwLWQQvR3ZgKUp1BesO9yjdkMpn5aafy0N1SvhXAtQKCL711c3kMRtynbYwnQvsLPBYMbgyOxXKu/fF/POxfZjpQCFeii+i+qw5hdWq5FHXvgBaicosSQLImIWQhKP1P47r1saFC7tsIyCTI+KDWgnoQgvEcuQPl7va9jlZZLubINNH7WK9TfsPRsmHUiHQvNwAGLkAKVLfO8kf0KUWRDg4lWcR3FnSHXOpS025hduFaISMSLyzb/D25pmx2yjZezZSkI0uXrzGAE9W3kmYad5TsPqeewsZUA3L22lS2tKYQdRr+1r5hQl+SC2aMAWNfaxwOvtYLWnDKjnrljKkHDPeta2dycQjpWodMTwPuPG09d0sELFLe8vJtU2icZt/ngseOI2ZKutM8tL+8Ku0+leddhDUwekUBpTbFvE2hNU0eap5u66O7KIBPOgA5ZCCDQVMZt3n/seJo6M9y/tgVhy9LOTYNrSy49ZiLJvTo+AWQDxZrmFE83daKyPjJuo7VGe4o546pZMHUESpVflaTRSCH40+pmdrSnS+4tIjEdWeny/hMnFkbwxc+fygWs2NnDS9u6wt85VvitRfU02L3z5fS7l3fTk/YQUvSPi6KOe+qoCs6ZWT+gfAHa0x7Pbu1ky65eiEei5wUc2ljFadPqyn4m9IY0Ugr++lorG5tT2K6Fn/aIJV0WHjqGI8ZWUR236Uz7PL+jm4fWt6FyAdKNbCUaZAV9HuNGV7Bgah0zRyVxLcnO7ixPbenghaYutCD8TKBxLMEHTpxAVcymzwv47Uu78XwFot+uT55Rz7wxoV3/ZW0LTa1pEHD+4WOYOCKOUpo/rNxDe28OaUmUUuhcwJwJ1SyYVsf4mvCaTe1pHtrQxpbdvYi4PcA7EkKg/YCGmjjvnjOBF3f0sHxLB8KRQ4qqFKB8xSENlZx5yMiy5duR9li+vZsNO7tDgZSiMD7VCnTa49DxNZwydQQTa+NIIWjuzbF8exdPbOxAoxC2NaioWkJwaVSOXqC5+cWdZL0Avbd9abAswUfeOZGEY5H2Am55eTdZTyEsgY4GXCfPHMlxE2upTzqkfcWqPb3ct66N7u4MdsLB9wLOmjua6SOTBEoXohGiyKMtjgrcumI3Xb05LjxyDONr4qBh2co9NPdkS+zbYAT1bRHqVbmAjxzVyMfnNwKws3sFW3b2IJ3QCw1yisPGVHLTBbMAuHNNCw+sagatueyYcfzLUWMBeKqpk3fe9DcEOuwfIy/lhnNnMK46BsA9r7WS6s0xImHzs/fORgCtqRy3rtiNQqN9xRffOYkFU+sGfebtXRm+fv9Gfv3MNmTcLhFVgUD5Ab+4aA4Xz2sAYP5Nf+OFzR1YMZtA61BYlCbpSn7y7kNx7cGnzZdv7+Zf71jN8i2duEmHXMrj9Gl1/Pf5M/dZtuta+9gRDTDyoTchBDoImFAb56YLZw0Zbv7rulYuv2012zvSuDGbXM4rqaeheGB9Oz2pXNjR6f66DnKKY8dXF+qyHH1ewA+e2srX7lmH5VgoL+DUaXVDfibPB36/ko07e/A1nDqrnh++ezaHjq4YcN1z27q4bOmrrNrVg4zZEGi0Ulx93gw+e9IkavbyNpWGe19r4dN3rGFrexpsScyW/M8Fs6iO2eQCxW0rm/G8ACFFwa4/elQjHzsmLK8d3Rma9qRACr68YDInTaoN7XZrF+1dGYQUxKXge5fM5ePHjMOxSgWlNxdw7SOb+NYDG6OBQJGgao0tBXd+5AiOHV9DTzbg0BufYmdneuBgbkD7U5w4sXbI8s34ilte2sVn/7SGtK+QlgAVJnx8f9FcLj92/IDnBXhkYzv/8vuVbO/MlAx0C4M7rbEtyU0XzKIqZhcGRz9/fAt2hVsI6VpSEPR5nHdUI//7vjmhpxpo/rymhawXgK9pqIrxf++fxxmHjBzwHNs6M3z+7tf440u7QMO/nziRc2bWD6uPenhjB11taa46bQrHjKsB4IUd3TR3pBExe5/et+Et1piDMeTbm/PxlcZXmpyvS0M+AnKBLvx7d9Yv6mTCz6VyASdNquWKd0wiSHlYRY27o8/DV5rOjF/ohJSG1lT4+/a+0tBnVzb8zqyvCJQmULqkIxhfE+dXi+bwgWPHodJeYS4y9EoCpo6t5H1zRpP1FRr46NGN6EANiIBqDa3Rs3mBJtB6QDhv/vhq7vvEMUxrqAxDclKQ9tSA5wt0/48XKJQGb4gJt3xZ+krjqYH3FgLOmVnPfZ84muq4TaAUSFEo70z+3rr//n50/z4vGHy+TUDW16XPr3XJXFjCsfjKgilcedpUvIwHUpDZxzvnAhWG+5SGXMAxk2q457KjC2LqKc2unmyhTI6dUMOdHzuK2goXAo3yA35y0Ry+fvq0gphmfEV3xi/U7btmjeLRT81nTHUMIk+0Paq/1j5voKdSzq7zNpYpLUeEQPmKX15yGJ86rl+c2vo82iL7rHQtvnnWIVzxjkmotF+wO0uEIdeTpo3k2PE19HkBVTGL981rQGeDIedG++tEDaiTYnuI25KPzx/H7y49HJTGkgKV9bn+/Bn86wkTCs+S8RU9Re3z1Gl1/OWyo0i6Fig9aCQ3X46+0nx5wWQSFS5B0H+91hrpWPznqVMK9tLa54UDBQ0W8IcPHV4ipt0ZHz+ywwm1cZZdejinzayHjB/ZaBgJyn9f/idQ/bac9oNCBKMz7Ze0GYPxUN/WnqpdNI80oM2L/mSE4g4i/zllhXNb3z5zOne+uofdXVmELQqjW1uKAQlA+d/tnZxjif7r/2XZq7zc1IXjWjQkHT5/6hQWTqtDa7junEP486vNpP1QLPNeybtnjw47nGhccP6ho7iyKkbaGyiqMnqvps4MF978MkprXCGYO7qCJWdNZ3xNnBEJm8VnTONffrsiDCfK/mf/3lNb+dWTTdhJp0SUpBBsbOuDQebcBP2JSU9u6eTTf1yF5VrYAk6aVMvVZ04n4Uhmj67gUydN4vr710ehzP6y+exdr/HomhashF24h4gGKzu7M2DJskk0+bq0peA3L+7kxgc3YiccXA0fmj+Ofz1hAoHWfO6kifzk2e10d6QL5WRLwa9e2Mn3HtxY9p23dWbAkXz1tKnEbYnSmqUr9/Dt+zeyI5VjXIXLd999KAun1zG1LsHlJ0zg+j+v5R1HjOHyY8cXOsyrH9zI7Sv3kA0UhzdUcuMFs5hUm2DKiARXnTGNf/vdK1iV7qC2tS+7top+LwWQ9Tn+0NF84PAGfKXpSPt89s9reHhjO1pp3j2vgZ+851CkEHzzjOn8evkOckEY7RACUIpLDmtAa3CkRAMXH9bADx7fMqzkpOI6+f2K3Xz7vvVYCYe4EFwwdzRXnjwZrTUXzh7FOXMbuOf5HRwyuZbPnDARX2mkgG88vJlbnt9JVimOn1DL9y+Yxcikw+Fjq/jQ/HH87NHNJV7n3nPXthR4SjOtLsn7j2rkV0+EXqqO5ljPOXwM88dXEyjd33aFgIzHOUeP45QpI/CjgdPn/ryWF3b0UOtKFp99CBccOgoNfOmUKTy8poUr71nPNx/eHEalPM0vLp7DsRNq8ALFe3/7Clta+5COJNCa7V3ZcA69uC6NThlBPZDJZzaOSNh874JZXPKrF7Fs5+/+3lV7Uqzc0glJG7IBD23uYPXnT2LayAQTauLMa6zibxvbsfKh35jNxfMa0ICnFAjJxNo4J08dwX2v7EEmnbIdXNZXrNjWGU7gCMELa1tZ257myU/NR2s4eXItFZUuqc5MSWPe0ZVh5bYuqHTpd78j99eRDCeVsTPtsbKps5BU8/zqFjpzAb++aA5Kw9kz6rj+YQleaRLHhrY+Vm7vgqRDiesPYFvD6nV29eTC8q10wVf8ramTU6aMYN6YSsZUxTikPskLLamSrNvdvdnB39mWkHCYWZ9EE0YhLv3Dq6i0j52wae/s5lN/Ws1P3zObVC6gtTcHwOnRIMmWgv9dvoNr71wbfr8QNG3tok9pHvj40SgNp06tg0Qo5m9GxyqFAF9zZGNV4Rm+/chmfv/4FqyRSZTS/PyxLUypS3DM+Gq2d2ZxXYtsn4eUAj9QVFTHOf/QUQgBvlJYUnLchBpmNVaxdkc30rWHnfW7p7eoTpTm2dXNxG2L/3jHRLSGd80cyT1PN3H2jPqCwNyxqpnFd6wpJPA0NTURcy1+syi0offOHs3Pnmjad5ZyVI1feuckbnl+B140Vy9syVWnTkGXmfNHw3tmjy6U3ZX3rOP2Z7ZBTZymjM9Hlr7K7qtOIelYnDptBNU1CTbv6e0fVWYVXZFXrYGXd/WwbWcPxCzQGuHYRkFNyPfgQkWNKVCai+c1cP4RYwn6vCGXhgyHpCORMRvHsYlVx8ilcjyxpaPQ+MbXxMMQmACVC5g7roqjxlUjgF8+v5NXd/eG3sK8MQyVvSAE2K6NdO3QU6yN8/z2brZ2ZhACahIOIxJFwhXhRSFOPNX/YwvkYFm25UZwUiBjNrZr47gWdnWMB9e3k/EVUsCoChfHtaJs1tJBwIB7OxbSHX4HFLMEdtwmHrOJV7jYQrChrX9DmaqoUysJVwfl39mK2wgZpnqqqOetcC2OHV8NvsJP5UDAxh09LPzh37jwly/yy+U7IG7RWB0vFNcjm8IBkuvaWJbEqgnroq3PQwqoSzhUxO3I03qTeloBuSjrVANHNFYiKlyClIdO+2AJvvanNZz50+e57NZX6En7EM3Vkg3nmPN5At9/aiu7enLYUvDeOaPBU68rIdWxQntwXRs37mAlHO5e21Kw0/E1cRCCuQ2VBZO+e20rli1xYzaWLbGqYzy8sZ10dO9D6pPEkg5KqSFLLIzsaGaNruD9RzWisz4q53P6oaM4cVJtOOearygRhfhdizkNFQgRhpyf3dqFVR3DsgRWhUNP2ueTt69myYObuOr+jWitkI6FFdm8jNn930loM/n2IF0bsxu58VAPQkHV3LpiTyHs9YPzZ/LwujayZeYuX69QK60RWqPDaTM6o3k1AcTzSzRC14CL5o7GiXqvHz27DSngyMYqzpk5kuoRcbr7PKQlKbeKLb/OMD9KF5rCyDlhS1wrFAtRNAd79iEjiZ03M1xOocNVGbes2M22tr4hMyuLya/TQ+vCsohcoOjLBcRtSdKxcKTEK9JTreHDR47l6IZKpBOGGH2l+flz2+lJ+yXJSEPhBRo/F+C7AQQaAlUQBgGk91qiozWcPGUEV543EytmEahwdcatK/bQ1JLCidl4vVle2tnDvDGVuJbkrx87ir+saWFTR5pd3Vk2d2R4YUcXLe2ZMNkq61PhyiKPPSCIbhauX9SkfUVXxmdk0sG1BK4l8AL9ptkutmT59u7Iw9R85KhGZtRX8GxTJ3tSObZ2ZljTnOLl7V3hkhgZLkXJP8Elh4VRkbQX8P0ntzJ/fA2N1THeO2c01z60aci10APsQedtMbSFgDDzO0/cliAFI5NOwR52dGcIIsNVSqMFtKdztPV5jK+JURWzSDoW2VwQugx6cHuQImx3Xzp5Er97cSe+F/CfC6ZEdho+m22FuciB1gjHCgebhIKa8hSBDhO1tAZhC373t+2hfYWNNhwZqPy99IDM3nx7UFoPa/2zwQjqAUXMlvzwmW0o4NLDxzB5RIIlZ03nyttX/91e6t7iU9y5JN1wSYmvNFbc4T1zRgOwuSPNmu3dPL65g08fP4GxVTHOnD6S257fgZWUqGHeS+zV0RUTaM05M+sHZCs+tLGdbc0ppB12hn/3O+uB/V+gNR89uhGOLv39zS/upOd16ExtwmZ8fRKnwkV7iouOGMPR46oJtKYr47OhtQ9sWRgYBFpzypQRnDJlRMn3PL65k6bdveHyRMfiGw9uZOEhdTRWxaixbC49cmzJ9S2pHDc8toUbHt0MlqTC7T++t88PwpIvWu+T81Wh3jW8qUsllAZcixVbO/nO41v44smTAThhYg0nTKwp6egfWN/G/7t9DZvb+sJBlK8YMSLBWTNGIoDnd3TTvLObJ7Z0sHB6HUc0VnHkxBpe2NSfZf567R0RZl7nl9sm7HC9d6IoO70nG0TroorLTNObLzM9jDIAtnameXFnDxfPa2BOQyVnzqxne3eWBVPD+n5wQxuTRySYNaqiNGM4aihpLwg9fVFqv27SLXjp2SiBzWBCvoYhQ1WSz/95Db25oJDUMn96HR193ptbQUUjVivKCvFzAUdPrGFuQ7jm8IH1bVhewDPbuunJ+ugiL0K/oXtSdnlNfjeaIPJu076iJRVmxr5Ze7nEbEG5lT0qurevwntvaOujOzu0B1IiyioU5VVfPZmXP3s8q648iRvOnRHuSiMEv35hJ20dGbBLByCl7xxm+LakcmCJgseysbWPd/7oOf53+Q42t6dJ5YKSTnRUhcv1587gkydMgD4PyV51WiYUmc+8FfwDptS0xo3ZfOnudXzyttU8s7WL9j6vEAbO291ZM+q582NHhgM5DeQCzp4xklEVbn/oVQge2theKMdFc0fD3xmpKf5sXphKE8IGKrEQ/b8f7r1dS3LjE02F+vqv06dy/dmHFLzT6x7bwpCBgXINTEAu7ZHpzpLpzqIDo6bGQz3AeTNMvCpm0byzh/96YCPffdcMEPCjCw8teB9vpD8RZf5eGbMGjKwJFBfPa0CKMNT5fy/tItCwdUc3j23u4LxZo1g4vY7R9Umau7PDepjiDkkKEYaSi9xWWwp+8PRWfvnUVuxokwlfabZ3RSKk39g75u+dP9ZA5ufqir7PloLP/eU1Hl3bihVtOpH2FDlfgRj+YnfXkrhWqVrbUvC7l3fztbvX4cRtvKIBUT4z+HsPbSq8c6A0WzrSUVZxGKrDC9i0rYtP/PolkiOT1Fc4jKl0GVfh8vHjJ3DurHq01vz7iRP5+cObS5ZiFeZtRb6D1tiy3yPzlCa3V0KSHqRc9eswtFw2AD/gF/dv4Bd/28ao6jijKhxGJxzmT6zhqtOmknAt5jZUcvrMeu56eTdYgksOG1Pwzm5dsZvAEjy1oZ1Xd/cyb0wl757dwNfv2zjkdpCD2YOIXq6yaC5Rh6ECenP9ZVYdtxHFZYYmZlthWRZCtcNrw8u3d/Hbl3ZxxXHjOW5CTeGeD21o47EN7dTGB+8iE64VDjyL1j5rL+D8w8dw2Ngq/EDzs+Xbae/NIaQEsy2DEdQD0i0v0oqYLZBR56nLDG8Hy1b0A41IOvzg8S1cNHc0J06q5Zjx1WVH2cMOx0XPIWW496evYVSyP3u4rS8HWpOojBXCvZ7SLD59GrlTpqCVZuaoCgKlqU04vGtWPb96YiskBm4cIKJ7iWgLOWEJRiZDz6M3F9CRjjzPotff1J5mRVFGJgIs2yokaA2nuwi0xhL55UOCAJ+kY1Hlhs/Y3ueF4U5ZGrpb3ZxiRVNnf5avENjRfOpw5uykELywo5vHNrRj2eHnmntzPLG5gyc3tIEtI6+w9Lu2dWUGvLO0LWxbEPiKqrjDFadMYUyVy9+2drF0+Q62egFbW/vAV9y5vo1NV76DibVxxlTFIOnQkfYK9jeqwkFqjSNFeGhloEm6FjVxB61hV0+WvpRHMukUns2OBhG2DCMWlhT4OkxqG2rgUvDuPMU5R4zlpEm1uJbk6oc20tKdoaUny2qtefSV3VhScM3Zh6A0zGmo5K6cz4QJNZw2rS6qR/jJuw8NxwCBZmSUUT5zVJITJtfy+NrWkiVOg9tD/xKa/L7H1UUi1p72INDs6e0vs8kjEmgVllkgQOUUoytcRkZtpb3Pozfr9Tf0IUK/cdviO080cdkx4wpRZEcKrn18C3qvgYwlBDqa3waocCxGJGw6uzMIaRXa41WnTWV+1BfcumI37SqLsIzYGEE9QN3TXT3ZwuD2wtmjue2ZbWRTXpTW7nPh7NGFyze3p/sVaO9ojwiF5FN/WsPz/3ZctGm3eF1ZjsWXOlLg92ZDJcn6NDZWc9q0ukJHsrE9Db7mHVNGMLUuQaA1riVYOL2ubCTqksPG8KtntoUhMShs81blWqEQ9WTDpR8Zn/edNJHG6hgqKp/m3jCsKYoGHw2VbrgnaaAKLkDgFe1tPOj6yP4XHZFwCHIBgR/Ng+UCLl04JlzfqzWb29P42TCrtHhQUp90wAsgsAr39vP77casfY5ghIC/rmvjqltfKV0CE+2bmw/v5q/Nv3Olaw94Z+WpMCxsCWxLcO3Z05EiXN9739pWuroyYXnosBPORxJU+H9s6sgU7O+ieQ388okmMlF505vjvKPHURsNgu5Y1YzO+qRtSWvKo7E6Rl3C4bRpI7jz6W1Q4eLnfJI1cU6ZWleYe9zenS0rKFIIyCnOmVHPZ06cEA2U+vjJAxvDgVf08qJoi7xAaUROcd6seqpiFr7SVLoW5+41nx5E7eSSwxp4fHXzoKKe3wdXCKhwJX6fFw4mVDiB/uEjxxYee21zCrTm5V09he/74BFj+eHjW/rLLOXxgYXTcKO1yGtaUgRpHyvpDCnoSmuqYhYbtnaydOUeLj0i9L6Xb+/m4TWtxBP988A6ip6Q9Xl1Ty9HNVbjWILzZo3ie+vboApIe0yYUMOM+iS5QLGpPc2OaI20jnYtMxhBPWBQ4fCTO1Y1880zpqO05kNHjCX42FEsjfbXffe8Bj45fxx+tKD79lXN4RpLr0xqj9bE4g4rN3Vw3WNb+PppU8PMwWFknQoh0ErTmfYLGbc3XTCLm8dW0Zr2aKhw+eQJE6ivcBHAK7t7WbOrF2zBornh/KhE8Pz2bnZ3Z6KQUtgBnjS5lpq4zcmTRzBpdAVNzX2kfUVOhTvTjKlyuf1Dh3Pf2lb6fMW8MVVccfx4PF/h2pJ7XmvFS4eb7XdlfAThHNbHjhlHeyrH9u4s+bF7fl/bhze209yd3SvjNuw1uzLhHJWvNceOr+HnHz6c57Z24gead0wdwUePbiTrK2K25I7VLdE6T+jJ+oVMy/88dQojXIu2rA+IguAFWnPva62ksn5YpkOUedKR2JVuyYL/4lNKtAh7+650/zt/8PAx7OyaxbauTOGdlQ5373mmqZOmnT3c9mozi+Y1MK46xlP/dhw/fqqJV1v6GB23uez4CYytdhEiXHNINuD+da3od81AKc05M+r5w8eP5pbnd9DjKY6dUMOXF0wB4LXWFLe9uodR9RW0tPWxdOUejmisIhcofvW+OVw3Mslz27oYWxnjsydPYsqIBELAS7t6WLm9G8uxwo3Z94642ILfvryLz5w4gYyv+O/zZ3LE2Cr+srqZlKc4YVINXzplcqENPLa5Ax23CmuehYAntnTSlfYKm9E7tuSUKbVY0go3F6mO0ZdTJblD+T9b+zyECL25i+Y10PHBw1m9pxcp4bzZo7nw0FF40f7Fd6xuhqTD/eta6ckGJB3JiRNruPvyY/jZ09voyQWcPauefz9pIrlA4VqSP7yyBxjeul0VJZYtuX8DC6fXURWz+OLdr0GgBkw95F/+1hW7+chRjXiB5htnTKPSkTyxuYNRSYcvnjqFStfCkoIHNrTjp3IFezN6agT1ABNUjRWzWbOtiyvvXcd3zp0BhNv1ffToxgFe1Tce2sRLmztwky65XLaQrLD3qNxKOnzrgY1cNK+BQ0dV4KuwMyje0D1yTvrFJlKEP7yyh0uPHIsUMG9MJTeU2Tc3Fyg+86c1ZNMelTXxaE4uzIY859cv0dqS6t9YIeXx448cwRXHjifuSM6fNYqbdm0m2+dxx6pmPhttUn/h7NElnnhxaPVbD24K929V8PimjoLYjal0ueFd5ff1PeOXL/JgWx/SdgoCpTRIR9LUkuLRTR0FT/oT88fxifnjSj4fswX3vtbKb5dvD0OFGZ971rby1QVTkEIwp6GSH753dtl7T7vhSTb1eQin/EAmX2eBjpJblC47x6e1Bsfiyc0d9HkBScdidGWYUFSOD/5+JU3buvjaves5YVIt46tjzBldwU3vGficqVzAV+9Zj4hZrN7ezZfvWVf43ovnNRT2Ys6bhq80Sdvi0U/O5wv3rOPmJ5v4nye2cPbMkZw8eQR1Scl1ZZ6rJxvwqdtWE/gKx5YERbZXmFuM2zy3qZ0bn2jiC++cBMAVx43niuPGD/i+XyzfwXOvtTJ1Yi3HTahBa9jakeHknyyHnJ8/sgZyigc+ezynTatjQk2cU6bUce8ru5FFXqJSGhGzeHZzJ9u7soyvieHEbL5w8qQB93UswXefbOLZ9W04FS67W/tY8uBGbnxX+M7nzqjn3BkD98d9YEMbt7+8Cxl3Bp3HLW6LSmu0I9nQmuLIHzxL3JFs3pOCuF04Ai9/baA1xG3uX93C71/ZzfsPG4NjWXzjzOkD7rGtK8M1D21ElNnkYkBfMMQzGvaz6cSD7YUDpZFxmxsf3MSHfr+S11pSA65Z39rHZX9cxeJ71hVOXgFwpYjOr+zPvtWR+mZzAR9ftoqujI8tBZvb03T25gph0LgjkSL8M9+5yLjDXSv38Ok/rWF1c4rMXl5wby7goY3tnPrT53l8QxsIwbkz6xlXHUMKeGZrJ60daewqF+nauDEbmbD546t7Cv3cR49uRLoWwpFcde96bnp6Kzu6swNCYW19Hje/sJPTf7qc9lQOLSXSlmxv7eP9t77C2pbUkLvfDPZvmvBBPvqHlfxhxW5aUrmS5RTh1oFZbnhsC++7+WW8qJOTMZsnN7TxubvWsr0rM2jno9TQ58Vaor/OnH3E4pUGaUt2tae5+JZXWNOcGjJk6CkFrsWG1hQn/+g5fvfSrsK64TxZX/HQhnYW/HQ5LzR1IlwL6Vrc8OAmPvC7V1i5u3dAx5mf355QG6e+wglPYZOCPl9z7i9e4PtPNg3YEzrrK+5f38YpP36O5zZ1ION2IUM1Zoe250YhfJTGdi2++Oe1fOr21aze0zvg3XZ0Zbjqvg1ccdvqcPBw2BgSjoWMQudk/HB5SMwmFneQluCPr+4pRP0/dkxj2WkSISXdfR7n//pFHljfRmfaK3l/X2nWtfbxubvW8oU/r0XGbPxAIRM2331kM5+7a2245eNedGd9/nf5Dt73m5fDQcQQVV3cFvOJUNKx2NWZZnNzCsvt3+BjwLWAsCQfvXUlP3hqa2E+td8mNA9taGfhz15gV2cGUSZhL18fMVsOGgbOXyOFObltf2L/rapFSy2WXRzwpfvPIhb/K7m0QohhDxCkEKi0R6zC4ahxNUweEQegqTPDi9u7yaRyhSPT8seQHTK6gvHVcTSaV3b10l50wokU4QbeU8dUcurUOh7Z1M6m5hREmyTMH1+DY0n6vIDl27qKj19FZ3yshMOkEXFGV7rEbUkuCDNot7b2hbsjxW0CTzF1VJKJtXEEgs0daZra+qA4zKrBsQXHT6gJk1WU5pmtXaEwaA3ZgKrqGBNr44xIOjhS0pvz2dKRpqU9DbYVnRhSdGJM1seJ28wYVRHOZZYJX7+8q5vOlFf+iKkwfgq+YmRtgsaaGCMSDlKEG7dvakuH846xouO68nNtaZ/K6hjTRyapTdil4inCIyOXb+8KByOi9JZaaeqrXOY2VCIQbO1Ms7G1b5/HYOXf2Y7bzKhPFpaJFAuDJQSv7umhpScXnn2ZC8KNIkZVcNjYKmriNllfsbYlxZqdPeHC/riNUrrE/mTc5ohx1UyvSwxYwxzlXvHs1i62tPZhOZIgUJANaKhPcmRjNbUJGy9QrG6O7hMNRpTShRNWDhtbxcikS6A1L+zoDsPj+QPv+3ycpMNR46sLIeOd3Vle3tlDV1cGkbDRgWbu2CrqKxwEgtXNvewpCu/nTzSqjNkcPT7cuavPUzwXHclXtnxzAQgYUxtnbHWM6uis0baUx7rWFLmUN+DouLw9VFXHOKKxinE1cQRh4tLK3b3sbEmBYw250YcU4WEFcdsiF4TP6BfqpDSiUfbaQCNkeJQcWZ+xoyo4YmwVNQkbP9CsbUnx6s7ugkgPGGhqOLyxirpEGMlZvr2LdE4NWAR+eGM1dQkHhebFHd30ZPzhZTpq7ZOotkl3f4nrzrqBxY/YXH2qb6TOCOo/VFAhOqYp0FGyi8r/Mjxc2RIDvRNf9V/nDEzCyZ+niReE/+7I/gwhL+jPxHCtgc+hdPj9eeGL1rEIR/YfNB1laBaewZZlDzkPXZagP64c61/KI2WYnRom2fTPc2JJLEcWdqwpW05+QPldInTZ8mCvzlAgUEGZe9sSy5aht1mujvzipKAy93CH2MtXRfWbr1tbvj7bGOY7SxF6f4EXbVOo+8tVuHLAYeEl9Z6Ldm4qt6gRXXKYff5ghMBTpTY1xH3wgv6yc0v3XC7bBqQMD14vPtjeU/0HXjtWmAyky8Qp84ell7HzvdsK6PBA9KBoNw8J2IO0v2J78PL2oPOnPoTH72m9740UckXl5uxjH+hBri20pQH1LRCuVb4ehlEfr+saI6hmDvXtFv4VAmSsaN1bFHIs15ilIxFRJ1Gu81daIx1ZOEhaFbmhVjQCL2R77v0cUBDPfD+q0VHioy704SL6/vyc32ARSStu9x9kXZSpGKhwiYyw7LBviK5R6EHDm/lyEkPsNar2sWxGR++x973zvx/y3jL6jCiva0PtyCOkQEZbxQ1VXq/rnXXeO+5/ZxVt8SRtiXCsQh+dT6oqVzqFeo/ZQ4b1giKRyM/lCVsgHWdY9ynsEVumrMq2AQa2AelKhLAK76p1ec9TJuySdrSvKQJhS4QtStqf1vuwB0sgrdLnHeozA9pGbGDbeL3XFtqSLZHDrO/h1MeAa4bRtgxGUN826KjDGo7Fqmjh/b6uKdeR7Ose/V+9j+uG0Qns6356L5EebjnpYZYTwxDWf9a9h7tO9XXfV79xGyl3j9f7iMO1g2Kx/3vawHDe642UdcEe9Ot8d964LQavw5b22W5fRz0Mtz6Ge43h7YfZetBgMBgMBuOhAlJrtFaglRnRGQyGg5yoLzRb8htBfSMEwiaZkKAlwjjcBoPhYJbTwMVNQrrXNYVhBHX4zF4UjsAs0YGXeRE/qzGbexkMhoMZrQNyaQvUdgDmtBhP1WAwGAwGw/7FAeLRaeOZGgwGQ3/XbjxTg8FgMBgMBoPBYDAYDAaDwWAwGAwGg8FgMBgMBoPBYDAYDAaDwWAwGAwGg8FgMBgMBoPBYDAYDAaDwWAwGAwGg8FgMBgMBoPBYDAYDAaDwWAwGAwGg8FgMBgMBoPBYDAYDAaDwWAwGAwGg8FgMBgMBoPBYDAYDAaDwWAwGAwGw37B/w8kd8Qcmj/pxgAAAABJRU5ErkJggg==;imageBackground=none;labelPosition=center;align=center;" vertex="1" parent="1">
          <mxGeometry x="286" y="371" width="143.37" height="106" as="geometry" />
        </mxCell>
        <mxCell id="5LpLA7wXrQh5jvGzeRih-72" style="edgeStyle=orthogonalEdgeStyle;rounded=0;orthogonalLoop=1;jettySize=auto;html=1;" edge="1" parent="1" source="5LpLA7wXrQh5jvGzeRih-9" target="5LpLA7wXrQh5jvGzeRih-70">
          <mxGeometry relative="1" as="geometry" />
        </mxCell>
        <mxCell id="5LpLA7wXrQh5jvGzeRih-9" value="" style="rounded=0;whiteSpace=wrap;html=1;fillColor=#dae8fc;strokeColor=#6c8ebf;" vertex="1" parent="1">
          <mxGeometry x="854" y="499" width="688" height="212" as="geometry" />
        </mxCell>
        <mxCell id="5LpLA7wXrQh5jvGzeRih-73" style="edgeStyle=orthogonalEdgeStyle;rounded=0;orthogonalLoop=1;jettySize=auto;html=1;" edge="1" parent="1" source="5LpLA7wXrQh5jvGzeRih-12" target="5LpLA7wXrQh5jvGzeRih-70">
          <mxGeometry relative="1" as="geometry" />
        </mxCell>
        <mxCell id="5LpLA7wXrQh5jvGzeRih-12" value="" style="rounded=0;whiteSpace=wrap;html=1;fillColor=#f8cecc;strokeColor=#b85450;" vertex="1" parent="1">
          <mxGeometry x="854" y="228" width="686" height="229" as="geometry" />
        </mxCell>
        <mxCell id="5LpLA7wXrQh5jvGzeRih-16" value="Streaming" style="text;html=1;align=center;verticalAlign=middle;whiteSpace=wrap;rounded=0;" vertex="1" parent="1">
          <mxGeometry x="856.5" y="502" width="73" height="30" as="geometry" />
        </mxCell>
        <mxCell id="5LpLA7wXrQh5jvGzeRih-17" value="Batch" style="text;html=1;align=center;verticalAlign=middle;whiteSpace=wrap;rounded=0;" vertex="1" parent="1">
          <mxGeometry x="854" y="245" width="73" height="30" as="geometry" />
        </mxCell>
        <mxCell id="5LpLA7wXrQh5jvGzeRih-20" value="Serving" style="text;html=1;align=center;verticalAlign=middle;whiteSpace=wrap;rounded=0;" vertex="1" parent="1">
          <mxGeometry x="1628" y="237" width="60" height="30" as="geometry" />
        </mxCell>
        <mxCell id="5LpLA7wXrQh5jvGzeRih-49" style="edgeStyle=orthogonalEdgeStyle;rounded=0;orthogonalLoop=1;jettySize=auto;html=1;" edge="1" parent="1" source="5LpLA7wXrQh5jvGzeRih-30" target="5LpLA7wXrQh5jvGzeRih-12">
          <mxGeometry relative="1" as="geometry" />
        </mxCell>
        <mxCell id="5LpLA7wXrQh5jvGzeRih-30" value="" style="strokeColor=#dddddd;shadow=1;strokeWidth=1;rounded=1;absoluteArcSize=1;arcSize=2;" vertex="1" parent="1">
          <mxGeometry x="517" y="375" width="222" height="98" as="geometry" />
        </mxCell>
        <mxCell id="5LpLA7wXrQh5jvGzeRih-31" value="&lt;font style=&quot;font-size: 16px;&quot;&gt;&lt;font style=&quot;&quot; color=&quot;#000000&quot;&gt;IngestÃ£o&lt;/font&gt;&lt;br&gt;Cloud Functions&lt;/font&gt;" style="editableCssRules=.*;html=1;fontColor=#999999;shape=image;verticalLabelPosition=middle;verticalAlign=middle;labelPosition=right;align=left;spacingLeft=20;part=1;points=[];imageAspect=0;image=data:image/svg+xml,PHN2ZyB4bWxucz0iaHR0cDovL3d3dy53My5vcmcvMjAwMC9zdmciIHhtbG5zOnY9Imh0dHBzOi8vdmVjdGEuaW8vbmFubyIgd2lkdGg9IjIwIiBoZWlnaHQ9IjE5Ljk4OTk5OTc3MTExODE2NCIgdmlld0JveD0iMCAwIDIwIDE5Ljk4OTk5OTc3MTExODE2NCI+JiN4YTsJPHN0eWxlIHR5cGU9InRleHQvY3NzIj4mI3hhOwkuc3Qwe2ZpbGw6IzQyODVmNDt9JiN4YTsJLnN0MXtmaWxsOiM2NjlkZjY7fSYjeGE7CS5zdDJ7ZmlsbDojYWVjYmZhO30mI3hhOwk8L3N0eWxlPiYjeGE7CTxwYXRoIGNsYXNzPSJzdDEiIGQ9Ik0zIDMuOTlMMCA2LjQydjcuMTNsMyAyLjQ0eiIvPiYjeGE7CTxwYXRoIGNsYXNzPSJzdDAiIGQ9Ik0zIDMuOTlsLTMgNCAzLTJ6bS0zIDhsMyA0di0yeiIvPiYjeGE7CTxwYXRoIGNsYXNzPSJzdDIiIGQ9Ik0wIDE1Ljk5bDQgNCAyLTItNi02em0uMDEtOEw1Ljk5IDJsLTItMkwwIDMuOTl6Ii8+JiN4YTsJPHBhdGggY2xhc3M9InN0MSIgZD0iTTE3IDE2bDMtMi40MlY2LjQ0TDE3IDR6Ii8+JiN4YTsJPHBhdGggY2xhc3M9InN0MCIgZD0iTTE3IDE2bDMtNC0zIDJ6bTMtOGwtMy00djJ6Ii8+JiN4YTsJPGcgY2xhc3M9InN0MiI+JiN4YTsJCTxwYXRoIGQ9Ik0yMCA0bC00LTQtMiAyIDYgNnptLS4wMSA4bC01Ljk4IDUuOTkgMiAyTDIwIDE2eiIvPiYjeGE7CQk8Y2lyY2xlIGN4PSI2IiBjeT0iOS45OSIgcj0iMSIvPiYjeGE7CQk8Y2lyY2xlIGN4PSIxMCIgY3k9IjkuOTkiIHI9IjEiLz4mI3hhOwkJPGNpcmNsZSBjeD0iMTMuOTkiIGN5PSI5Ljk5IiByPSIxIi8+JiN4YTsJPC9nPiYjeGE7PC9zdmc+;" vertex="1" parent="5LpLA7wXrQh5jvGzeRih-30">
          <mxGeometry width="64" height="57" relative="1" as="geometry">
            <mxPoint x="15" y="18" as="offset" />
          </mxGeometry>
        </mxCell>
        <mxCell id="5LpLA7wXrQh5jvGzeRih-34" value="" style="strokeColor=#dddddd;shadow=1;strokeWidth=1;rounded=1;absoluteArcSize=1;arcSize=2;" vertex="1" parent="1">
          <mxGeometry x="876.45" y="316" width="197.55" height="67" as="geometry" />
        </mxCell>
        <mxCell id="5LpLA7wXrQh5jvGzeRih-35" value="&lt;font style=&quot;font-size: 16px;&quot;&gt;&lt;font style=&quot;&quot; color=&quot;#000000&quot;&gt;Bronze&lt;/font&gt;&lt;br&gt;Cloud Storage&lt;/font&gt;" style="editableCssRules=.*;html=1;fontColor=#999999;shape=image;verticalLabelPosition=middle;verticalAlign=middle;labelPosition=right;align=left;spacingLeft=20;part=1;points=[];imageAspect=0;image=data:image/svg+xml,PHN2ZyB4bWxucz0iaHR0cDovL3d3dy53My5vcmcvMjAwMC9zdmciIHhtbG5zOnY9Imh0dHBzOi8vdmVjdGEuaW8vbmFubyIgd2lkdGg9IjIwIiBoZWlnaHQ9IjE2IiB2aWV3Qm94PSIwIDAgMjAgMTYiPiYjeGE7CTxzdHlsZSB0eXBlPSJ0ZXh0L2NzcyI+LnN0MCB7IGZpbGw6IHJnYigyNTUsIDIyOSwgMTUzKTsgfSAuc3QxIHsgZmlsbDogcmdiKDI1NSwgMTgxLCAxMTIpOyB9IC5zdDIgeyBmaWxsOiByZ2IoMjU1LCAyMDYsIDE1OSk7IH0gLnN0MyB7IGZpbGw6IHJnYigyNTUsIDI1NSwgMjU1KTsgfSA8L3N0eWxlPiYjeGE7CTxwYXRoIGNsYXNzPSJzdDIiIGQ9Ik0wIDBoMjB2N0gweiIvPiYjeGE7CTxwYXRoIGNsYXNzPSJzdDEiIGQ9Ik0xOCAwaDJ2N2gtMnoiLz4mI3hhOwk8cGF0aCBjbGFzcz0ic3QwIiBkPSJNMTggN2wyLTdoLTJ6Ii8+JiN4YTsJPHBhdGggY2xhc3M9InN0MSIgZD0iTTAgMGgydjdIMHoiLz4mI3hhOwk8ZyBjbGFzcz0ic3QzIj4mI3hhOwkJPHBhdGggZD0iTTQgM2g2djFINHoiLz4mI3hhOwkJPHJlY3QgeD0iMTMiIHk9IjIiIHdpZHRoPSIzIiBoZWlnaHQ9IjMiIHJ4PSIxLjUiLz4mI3hhOwk8L2c+JiN4YTsJPHBhdGggY2xhc3M9InN0MiIgZD0iTTAgOWgyMHY3SDB6Ii8+JiN4YTsJPHBhdGggY2xhc3M9InN0MSIgZD0iTTE4IDloMnY3aC0yeiIvPiYjeGE7CTxwYXRoIGNsYXNzPSJzdDAiIGQ9Ik0xOCAxNmwyLTdoLTJ6Ii8+JiN4YTsJPHBhdGggY2xhc3M9InN0MSIgZD0iTTAgOWgydjdIMHoiLz4mI3hhOwk8ZyBjbGFzcz0ic3QzIj4mI3hhOwkJPHBhdGggZD0iTTQgMTJoNnYxSDR6Ii8+JiN4YTsJCTxyZWN0IHg9IjEzIiB5PSIxMSIgd2lkdGg9IjMiIGhlaWdodD0iMyIgcng9IjEuNSIvPiYjeGE7CTwvZz4mI3hhOzwvc3ZnPg==;" vertex="1" parent="5LpLA7wXrQh5jvGzeRih-34">
          <mxGeometry width="48" height="41" relative="1" as="geometry">
            <mxPoint x="15" y="18" as="offset" />
          </mxGeometry>
        </mxCell>
        <mxCell id="5LpLA7wXrQh5jvGzeRih-47" value="" style="strokeColor=#dddddd;shadow=1;strokeWidth=1;rounded=1;absoluteArcSize=1;arcSize=2;" vertex="1" parent="1">
          <mxGeometry x="1070" y="561.5" width="225.78" height="87" as="geometry" />
        </mxCell>
        <mxCell id="5LpLA7wXrQh5jvGzeRih-48" value="&lt;font style=&quot;font-size: 16px;&quot;&gt;&lt;font style=&quot;&quot; color=&quot;#000000&quot;&gt;Mensagem&lt;/font&gt;&lt;br&gt;Pub/Sub&lt;/font&gt;" style="editableCssRules=.*;html=1;fontColor=#999999;shape=image;verticalLabelPosition=middle;verticalAlign=middle;labelPosition=right;align=left;spacingLeft=20;part=1;points=[];imageAspect=0;image=data:image/svg+xml,PHN2ZyB4bWxucz0iaHR0cDovL3d3dy53My5vcmcvMjAwMC9zdmciIHhtbG5zOnY9Imh0dHBzOi8vdmVjdGEuaW8vbmFubyIgd2lkdGg9IjE4LjMxOTk5OTY5NDgyNDIyIiBoZWlnaHQ9IjIwLjAwMDAwMTkwNzM0ODYzMyIgdmlld0JveD0iMCAwIDE4LjMxOTk5OTY5NDgyNDIyIDIwLjAwMDAwMTkwNzM0ODYzMyI+JiN4YTsJPHN0eWxlIHR5cGU9InRleHQvY3NzIj4mI3hhOwkuc3Qwe2ZpbGw6IzY2OWRmNjt9JiN4YTsJLnN0MXtmaWxsOiM0Mjg1ZjQ7fSYjeGE7CS5zdDJ7ZmlsbDojYWVjYmZhO30mI3hhOwk8L3N0eWxlPiYjeGE7CTxkZWZzPiYjeGE7CQk8ZmlsdGVyIGlkPSJBIiB4PSI0LjY0IiB5PSI0LjE5IiB3aWR0aD0iMTQuNzMiIGhlaWdodD0iMTIuNzYiIGZpbHRlclVuaXRzPSJ1c2VyU3BhY2VPblVzZSIgY29sb3ItaW50ZXJwb2xhdGlvbi1maWx0ZXJzPSJzUkdCIj4mI3hhOwkJCTxmZUZsb29kIGZsb29kLWNvbG9yPSIjZmZmIi8+JiN4YTsJCQk8ZmVCbGVuZCBpbj0iU291cmNlR3JhcGhpYyIvPiYjeGE7CQk8L2ZpbHRlcj4mI3hhOwkJPG1hc2sgaWQ9IkIiIHg9IjQuNjQiIHk9IjQuMTkiIHdpZHRoPSIxNC43MyIgaGVpZ2h0PSIxMi43NiIgbWFza1VuaXRzPSJ1c2VyU3BhY2VPblVzZSI+JiN4YTsJCQk8Y2lyY2xlIGN4PSIxMiIgY3k9IjEyLjIzIiByPSIzLjU4IiBmaWx0ZXI9InVybCgjQSkiLz4mI3hhOwkJPC9tYXNrPiYjeGE7CTwvZGVmcz4mI3hhOwk8ZyBjbGFzcz0ic3QwIj4mI3hhOwkJPGNpcmNsZSBjeD0iMTYuMTMiIGN5PSI2LjIxIiByPSIxLjcyIi8+JiN4YTsJCTxjaXJjbGUgY3g9IjIuMTkiIGN5PSI2LjIxIiByPSIxLjcyIi8+JiN4YTsJCTxjaXJjbGUgY3g9IjkuMTYiIGN5PSIxOC4yOCIgcj0iMS43MiIvPiYjeGE7CTwvZz4mI3hhOwk8ZyBtYXNrPSJ1cmwoI0IpIiB0cmFuc2Zvcm09InRyYW5zbGF0ZSgtMi44NCAtMikiPiYjeGE7CQk8cGF0aCB0cmFuc2Zvcm09Im1hdHJpeCguNSAtLjg3IC44NyAuNSAtNC41OSAyMC41MykiIGQ9Ik0xNC42OSAxMC4yMmgxLjU5djguMDRoLTEuNTl6IiBjbGFzcz0ic3QxIi8+JiN4YTsJCTxwYXRoIHRyYW5zZm9ybT0icm90YXRlKDMzMCA4LjUyMyAxNC4yNDQpIiBkPSJNNC40OSAxMy40NWg4LjA0djEuNTlINC40OXoiIGNsYXNzPSJzdDEiLz4mI3hhOwkJPHBhdGggZD0iTTExLjIgNC4xOWgxLjU5djguMDRIMTEuMnoiIGNsYXNzPSJzdDEiLz4mI3hhOwk8L2c+JiN4YTsJPGcgY2xhc3M9InN0MiI+JiN4YTsJCTxjaXJjbGUgY3g9IjkuMTYiIGN5PSIxMC4yMyIgcj0iMi43OCIvPiYjeGE7CQk8Y2lyY2xlIGN4PSIyLjE5IiBjeT0iMTQuMjUiIHI9IjIuMTkiLz4mI3hhOwkJPGNpcmNsZSBjeD0iMTYuMTMiIGN5PSIxNC4yNSIgcj0iMi4xOSIvPiYjeGE7CQk8Y2lyY2xlIGN4PSI5LjE2IiBjeT0iMi4xOSIgcj0iMi4xOSIvPiYjeGE7CTwvZz4mI3hhOzwvc3ZnPg==;" vertex="1" parent="5LpLA7wXrQh5jvGzeRih-47">
          <mxGeometry width="58" height="58" relative="1" as="geometry">
            <mxPoint x="16" y="15" as="offset" />
          </mxGeometry>
        </mxCell>
        <mxCell id="5LpLA7wXrQh5jvGzeRih-52" value="" style="strokeColor=#dddddd;shadow=1;strokeWidth=1;rounded=1;absoluteArcSize=1;arcSize=2;" vertex="1" parent="1">
          <mxGeometry x="1374" y="731" width="168" height="82" as="geometry" />
        </mxCell>
        <mxCell id="5LpLA7wXrQh5jvGzeRih-53" value="&lt;font style=&quot;font-size: 16px;&quot;&gt;Dataflow&lt;/font&gt;" style="editableCssRules=.*;html=1;fontColor=#999999;shape=image;verticalLabelPosition=middle;verticalAlign=middle;labelPosition=right;align=left;spacingLeft=20;part=1;points=[];imageAspect=0;image=data:image/svg+xml,PHN2ZyB4bWxucz0iaHR0cDovL3d3dy53My5vcmcvMjAwMC9zdmciIHhtbG5zOnY9Imh0dHBzOi8vdmVjdGEuaW8vbmFubyIgd2lkdGg9IjE0LjUxOTk5OTUwNDA4OTM1NSIgaGVpZ2h0PSIyMCIgdmlld0JveD0iMCAwIDE0LjUxOTk5OTUwNDA4OTM1NSAyMCI+JiN4YTsJPHN0eWxlIHR5cGU9InRleHQvY3NzIj4mI3hhOwkuc3Qwe2ZpbGwtcnVsZTpldmVub2RkfSYjeGE7CS5zdDF7ZmlsbDojNjY5ZGY2O30mI3hhOwkuc3Qye2ZpbGw6I2FlY2JmYTt9JiN4YTsJLnN0M3tmaWxsOiM0Mjg1ZjQ7fSYjeGE7CTwvc3R5bGU+JiN4YTsJPGcgY2xhc3M9InN0MCI+JiN4YTsJCTxwYXRoIGNsYXNzPSJzdDEiIGQ9Ik03LjM3IDIuMDNsLTEuNzIuOTYgMS41MiAxLjUtLjAyIDEuNzMgMS4wMi4wMS4wMi0xLjczIDQuMjQgMi41Ni0uMDEgMS4wNyAxLjc3LjAzVjYuMTFMOS4wNSAzLjA0bC0uMjctLjk0eiIvPiYjeGE7CQk8cGF0aCBjbGFzcz0ic3QyIiBkPSJNNy4zNiAyLjAzbC0xLjQyLjM1LS4yOS42MUwuMzkgNS45Mi4zNiA3Ljk3IDIuMTQgOGwuMDItMS4wNyA0LjMxLTIuNDUtLjAyIDEuNzMuODYuMDEuMDYtNC4xOXoiLz4mI3hhOwkJPGcgY2xhc3M9InN0MSI+JiN4YTsJCQk8cGF0aCBkPSJNNy4zNiAyLjAzTDMuOTUgMCAyLjIxLjk1bDMuNDQgMi4wNCAxLjcyLS45NnptLjcxIDExLjc2bC0xLjcyLS4wMi0uMDIgMS43Mi44MiAyLjQ4IDEuNDItLjEyLjI5LS44NSA1LjI3LTIuOTMuMDMtMi4wOS0xLjc5LS4wMi0uMDIgMS4xLTQuMyAyLjQ1eiIvPiYjeGE7CQkJPHBhdGggZD0iTTcuMTUgMTcuOTdsLTMuNDYgMS45NGgtLjA1bC0xLjY2LS45OSAzLjQ5LTEuOTYgMS42OCAxLjAxeiIvPiYjeGE7CQk8L2c+JiN4YTsJCTxwYXRoIGNsYXNzPSJzdDMiIGQ9Ik0xMC44OC4wOWgtLjA1TDcuMzcgMi4wM2wxLjY4IDEuMDEgMy40OS0xLjk2ek0xMC42MiAyMGgtLjA1bC0zLjQyLTIuMDNoMCAwIDBsMS43Mi0uOTYgMy40NCAyLjA0eiIvPiYjeGE7CQk8cGF0aCBjbGFzcz0ic3QyIiBkPSJNLjMzIDEzLjg5di0yaDEuNzZsLS4wMSAxLjA0IDQuMjUgMi41Ni4wMi0xLjcyLjg2LjAxLS4wNiA0LjE4LTEuNjgtMXoiLz4mI3hhOwk8L2c+JiN4YTsJPGNpcmNsZSBjbGFzcz0ic3QyIiBjeD0iMTMuMzgiIGN5PSIxMC4wNCIgcj0iMS4xNCIvPiYjeGE7CTxjaXJjbGUgY2xhc3M9InN0MiIgY3g9IjEuMTQiIGN5PSI5Ljg4IiByPSIxLjE0Ii8+JiN4YTsJPGNpcmNsZSBjbGFzcz0ic3QyIiBjeD0iNy4zMiIgY3k9IjcuOTkiIHI9IjEuMTQiLz4mI3hhOwk8Y2lyY2xlIGNsYXNzPSJzdDIiIGN4PSI3LjIzIiBjeT0iMTIiIHI9IjEuMTQiLz4mI3hhOzwvc3ZnPg==;" vertex="1" parent="5LpLA7wXrQh5jvGzeRih-52">
          <mxGeometry width="40" height="51" relative="1" as="geometry">
            <mxPoint x="19" y="15" as="offset" />
          </mxGeometry>
        </mxCell>
        <mxCell id="5LpLA7wXrQh5jvGzeRih-54" value="Lambda Layer" style="text;html=1;align=center;verticalAlign=middle;whiteSpace=wrap;rounded=0;" vertex="1" parent="1">
          <mxGeometry x="785" y="162" width="113" height="30" as="geometry" />
        </mxCell>
        <mxCell id="5LpLA7wXrQh5jvGzeRih-59" value="" style="strokeColor=#dddddd;shadow=1;strokeWidth=1;rounded=1;absoluteArcSize=1;arcSize=2;" vertex="1" parent="1">
          <mxGeometry x="1659.5" y="414" width="201" height="91" as="geometry" />
        </mxCell>
        <mxCell id="5LpLA7wXrQh5jvGzeRih-60" value="&lt;font style=&quot;font-size: 16px;&quot;&gt;&lt;font style=&quot;&quot; color=&quot;#000000&quot;&gt;Display&lt;/font&gt;&lt;br&gt;BigQuery&lt;/font&gt;" style="editableCssRules=.*;html=1;fontColor=#999999;shape=image;verticalLabelPosition=middle;verticalAlign=middle;labelPosition=right;align=left;spacingLeft=20;part=1;points=[];imageAspect=0;image=data:image/svg+xml,PHN2ZyB4bWxucz0iaHR0cDovL3d3dy53My5vcmcvMjAwMC9zdmciIHhtbG5zOnY9Imh0dHBzOi8vdmVjdGEuaW8vbmFubyIgd2lkdGg9IjIwLjAwMTA0NTIyNzA1MDc4IiBoZWlnaHQ9IjIwLjAwMTA0NTIyNzA1MDc4IiBmaWxsLXJ1bGU9ImV2ZW5vZGQiIHZpZXdCb3g9IjAgMCAyMC4wMDEwNDUyMjcwNTA3OCAyMC4wMDEwNDUyMjcwNTA3OCI+JiN4YTsJPHN0eWxlIHR5cGU9InRleHQvY3NzIj4mI3hhOwkuc3Qwe2ZpbGw6I2FlY2JmYTt9JiN4YTsJLnN0MXtmaWxsOiM2NjlkZjY7fSYjeGE7CS5zdDJ7ZmlsbDojNDI4NWY0O30mI3hhOwk8L3N0eWxlPiYjeGE7CTxwYXRoIGNsYXNzPSJzdDAiIGQ9Ik00LjczIDguODN2Mi42M2E0LjkxIDQuOTEgMCAwIDAgMS43MSAxLjc0VjguODN6Ii8+JiN4YTsJPHBhdGggY2xhc3M9InN0MSIgZD0iTTcuODkgNi40MXY3LjUzQTcuNjIgNy42MiAwIDAgMCA5IDE0YTggOCAwIDAgMCAxIDBWNi40MXoiLz4mI3hhOwk8cGF0aCBjbGFzcz0ic3QwIiBkPSJNMTEuNjQgOS44NnYzLjI5YTUgNSAwIDAgMCAxLjctMS44MlY5Ljg2eiIvPiYjeGE7CTxwYXRoIGNsYXNzPSJzdDIiIGQ9Ik0xNS43NCAxNC4zMmwtMS40MiAxLjQyYS40Mi40MiAwIDAgMCAwIC42bDMuNTQgMy41NGEuNDIuNDIgMCAwIDAgLjU5IDBsMS40My0xLjQzYS40Mi40MiAwIDAgMCAwLS41OWwtMy41NC0zLjU0YS40Mi40MiAwIDAgMC0uNiAwIi8+JiN4YTsJPHBhdGggY2xhc3M9InN0MSIgZD0iTTkgMGE5IDkgMCAxIDAgMCAxOEE5IDkgMCAxIDAgOSAwbTAgMTUuNjlhNi42OCA2LjY4IDAgMCAxIC4wMDctMTMuMzYgNi42OCA2LjY4IDAgMCAxIDQuNzI3IDExLjQwM0E2LjY4IDYuNjggMCAwIDEgOSAxNS42OSIvPiYjeGE7PC9zdmc+;" vertex="1" parent="5LpLA7wXrQh5jvGzeRih-59">
          <mxGeometry width="57" height="53" relative="1" as="geometry">
            <mxPoint x="15" y="15" as="offset" />
          </mxGeometry>
        </mxCell>
        <mxCell id="5LpLA7wXrQh5jvGzeRih-3" value="" style="shape=image;verticalLabelPosition=top;labelBackgroundColor=default;verticalAlign=bottom;aspect=fixed;imageAspect=0;image=data:image/png,iVBORw0KGgoAAAANSUhEUgAAAyAAAANuCAYAAADuIm10AAAABGdBTUEAALGPC/xhBQAAACBjSFJNAAB6JgAAgIQAAPoAAACA6AAAdTAAAOpgAAA6mAAAF3CculE8AAAABmJLR0QA/wD/AP+gvaeTAAAAB3RJTUUH6AcSBAM5DdIDXAAAgABJREFUeNrsnXmcHHWZ/z/f6plJAiScIuCB4gWEQxfUFVBBQISIrkcigrqeXJ54X79lXJX7cL2PXXU9V/C+uEmAJIgaATUgKpcBEg6BJOSama7n9wcZ6PRUd9fxre463u/Xi10zXV0zXU/Xt573t77PU04AABDJ4aO/nrVhqDlzKBiZ6UKbJdMsa4RbOQUzQ9OsQOF0UzDTpCEp3NLkAmfa2skCybY0uSE5N9OZDZu0Rdvut5A0LJlkD//ApK0kuQ5/zkpJYevGLWyQtNYkyWmVMzUlTZhs9cMvuzXO2VjY1LiTPeQUrDJn60xujZytDKS1obl1gU080Azcuoa0VmFj5YaRYHVjbMYDC0YPmuDbAAAAvnAcAgCoOi87/Wczx8eGtw9dsK0LbDuT21bStia3rZNta7LHmNx2Tm5bybaUNFOmraMy/Shsk/9hCf4y6+ATPX6TdfkbOv3Eeu/bOu9itaQHJD1g0gNO9oDb+L/l7AGz4AHn9IBr2opm0Li3Mda89/kj1947Ojoa8u0DAAAEBAAqwejoaHD18L8+NlTw2IbTTqbwsS5wj1Oo7S1wj3Nmj5W0Y2ja0UkzOmXi1tsoSigfbT/NJh+K/Rs3/XEop3tldq+c7pbpbufs3jB097rALZdshSn8x8T6kTsXnvbSB/hGAwAgIAAAA2XuOYtnrB1f86Sm6Ylm9oRAemIo29nJ7SynJ5rp8ZINxzeEIsnHo9l6VvmI/vHA5SPezh59aa1Jy8zsTgV2h7NgmTPdFTotM3N3BI1g2YLRI+/jrAAAQEAAADLx4jMv2l7NoacGzp4ms6dK9lRJT5H0JEmP6ZbHWpzUPal8pBEQ5COrfCjm0Vgt0y2SbjXpFifd6qx5S1PBrcHQylsXjL5pPWcUAAACAgCgA0fnbzF9WnM3BdpdCp8hBU99WDb0VEkzkyarsRPWfshH9+y78zutCPIRoR8DkA+PMnmXSbc66WYz/TWQ3RS6xk2bPzjy1ws+d8QGzkQAAAQEACrG4Z/99bRw7fSnusB2DyycLbndzWy2nHaVFPhLVusiH90FJKt8TEn7ByYffYnncklLZbrFnN0QyC2dGNItC0dfeavkjLMXAAABAYAiY+YOP/PyXWT2LGdubwtsb5n2krRz1/S4AMlqx3eXvug8Y8cri/2pyygf3XjA5P4ss+udsz/KuevGHmr++epz563jRAcAQEAAYECy8ZIz5j89kD3HgvA5knumTHvLWpdOxUtAzfqdrMZMWOsuHz3fUzuZHJfpOjld7aTfNCfCRQtPn/cPBgMAAAQEAHLg8FOufEzQmHheKHuOc3qOZM/e+HC81MlqKvloexn56Hp0+yofNZXJW0y6zMldZmHz8qtOnXcvowUAAAICACmYc+qlu4SN4AAne76k/SXt1p9kNX7CGrtfVI7tdjfNU+l4VfZ4ZmyfbJKWmPTzpuwXi0+Zdx0jCQAAAgIAHTj89PmPdy48xMkdEsoOctJOsdPVcndI8pSwllU+ihHP3OQjoUx4lsl/ONNPFegHV3761VdT1A4AgIAA1JoXn3nR5sPB8MEK7VCTDpG0Kx2SRLtdZDIvmbxdcuc1FX6POyMAAAgIQG044qzLdnZyh5nsSJk7RLLp8ZNP5MOnfMT0A9Fut0oy+cj2N5jZt4bGm/+z4OyjeYo7AAACAlAx6Tjnij1dsznXzP5Nzu3ZIwuMn6ymSFhpt0u73WLLR9/jud6kHweB+8KVn567mNEKAAABASgtR552+Wxr2FyT5kluNzokVV0++h9PZNJ7PP8g01eaG/RtnjUCAAgIAJSCl33m0seG48ExZvbGTe901KhDUg3ko9jxpH2yB5lcIbPPjE8f/9I1o69bxcgGAAgIABSKfb7y++EdVq860uTe6MwOlzRUnmTVs3xM2aTwHZIqJh8FiGf/2u32I54PyuwLzgX/xbNFAAABAYCBc8QZ83dwTv9uzt7upCfQIUm026XdbvJ4lkMm10j6vDRx+sLTjnmA0Q8AEBAA6CuHn3H5/i5w73TSKyUN0yGp4PKRrkNSLvJRnHgik6niaXpQzp01NF3/tWB03kOMhgCAgABArhx51vwDQulkPfy8jp4JDh2SiiMfPhJWZLKkMplPPO+T2ad2vCX4/Pnnz2syOgIAAgIA3hgdHQ1+u/kLjpILPuRke3lJbtLIR4qElQ5JtNslnvnG00x/kNxJi09/zZWMlgCAgABAZuacffnLZO7TkvZIktz0THDokFTyZLUk8aR9ct8mByy0749Y470Lzpy3gpETABAQAEjMkedc/sIwdKdKel7S5KbY8hE/YaVDEjKJTCaO54Ny7iOLpt/4VY2OhoykAICAAEBPXn72FU+YMDtLsnmDSVbr0iGJdrt1k8laxdPs6rBhb7761KP/wqgKAAgIAESyz1d+P7zj6tUnmvRJSTMHJR90SIralHa7lYlnqeUjcTzXO6fRHW9unEWROgAgIACwCS8957LnWNj4hmS7Z0lw6JBUAPmg3W6N41lMmTSnK4YmGm+68qx5tzLaAgACAlBz9vnK74d3WLX6vYHTJ0NpODf5iJXg0G43etM6dLxCPgYaz/7I5KowtOOvPvPo7zPyAgACAlBTXn7WpbuHavyfSXvSIclPstrx3XRIon0y7ZMnX/myxhvvvfrceesYhQEAAQGoES89+/I3yNwXJW1Oh6S0yerUH9AhqcwySTz7JZNO+qOZe+XiM4+6mdEYABAQgIpz4Oj86VvMdF+Q2Zt9JDfFlo/4CSvtdmsYzxrIR8EnBx4wZ6+9+vRjLmJkBoCiEnAIALLxis9fuu3Mme6i4siHCpGspvtjLem7Ff9wIx99kUmljaflHE/VJJ7a2pm7YL8PfndUMiYZAaCQMDgBZODIs+bvas79SrJd6JDUM83yIx+02yWexDPW9s7pWw/OGHrb0tF5Y4zWAICAAFRBPs6e/68m92vJtq5QRx06JKVpt0s8aZ9c2HjaZRvc8KuWnD5vJaM2ACAgACVmzjkLnu9Mv5JsJh2S/CarHd9NhyQlOKjIRz/jWXyZ/FPThUdcc8br7mD0BoAiQA0IQEJeevblBzvTBfnKR/INfKwr73+yGvNl2u2WUj5iBsnXpoOLp1f5kG/5kKQ9GxYsfN6Hv/1URnAAKALcAQFIwJFnLXi2OV0uaYt6FCnTbtePTNJul3gWIp53K7BDrz79dX9iNAeAQcIdEIDY8jF/V3P6dX3kI252mGOHpDTT3wPukKSyxlPFiqcRz2yTA9HxfKwL3eX/+oFv/wsjOgAgIAAF54gz5u9gzl0oabtiddTJM1ktV7tdS7s34tmfZ7ekiQ/tk71PDpi0nVNw8XPf/729GNkBAAEBKCj7fOX3w42G+4GknVPNDefYUacI8pH8Ty1YkbJot9sXmbQ0pwwymVM8tw2cXfrc931nd0Z4AEBAAArIjqvXfNakFyTs5dk1SehvUSvtWTu+09OTDpHJsskkkwOSHhME7pL9PvB/T2GUBwAEBKBAzDnnin+Xs+PL3SGpmPIRIwP1uWlH+aBDUh1lMuXkQPWe3bKTWfPC53/kvMcw2gNAP6ELFkAHjjzziidbYNdJNouOOlmT1ZgJKx2SeHZL1donlyKe+v0aNQ/841lvWMPIDwD9gDsgABHMPe+8hgX2LUmz6JCEfBQ5nlm35dktscNVzHj6mRzYd3O578+de16D0R8AEBCAAbFu2fbvlnRAfTrqeO6QlFQ+0iRlA27PSvvkQcuHaLfrdXLAHbnsSWOnM/oDQD9gCRZAG4ede+WOw2H4l8mlV3RI6ppm9XhPgeoEjI5XfWu3mzSetNstTDxN9uZrznr9N7gSAECecAcEoI1hCz+bTD4SXO9TJKt0SPIgH3RIGkC73QTxpN1uYeLp5L643/u+82yuBACQJ9wBAWjhyDOveJEF4WWFLWpNsVCdDkl9KlKuXoekQscz6cIk4pkonrcPDblnLTztmAe4KgBAHnAHBKD1QuzCT5W33W5xOyT5S1YTR5R2u4WWj/TxVKniWTqZ3Hli3P6bKwIAICAAOTPn7MtfJul5+SSryTcob0edGC/TISnrDgcWT1UynjyLJ+I9r/zX9377BK4MAICAAOSFmXPm/tNHctMzC6hSu90efwsdkvKOZ786JCGTtZwccDrn2Sd9czYXCABAQABy4IhzFxwmaW+KWhPKR5qlOkmTMjok0W6XZ/EMSianN4LGt/c59ivDXCUAAAEB8H0ihHpfEeSjPh2SkuyeDkmFjWeqzBmZ7MvkgNLGc8qrzxqeudkHuEoAgE/oggW152VnXrpX6BrXWazzobIdddZLusmkuyQ9JGcPOpOZc8My20LS1pJ2lvRkSUOV6pCUo0zS8aqf8eRZPDnGc0MzbO7zu3PfuJQrBgD4YIhDAHUndI1jc5WPmMlTnzsk3eBMl5t0eThh1+3XvPr20dHRsNfvmDt63siq6bOe5sLg2WFgBzuzgyXtmE+ymvgI+HnQh+iQVE6ZVLp48iyeOPGc1nCNr0j2fMl5uyEGAPWFOyBQaw4cnT998y10lx6e4fckH0kTnOxLO+IlN3azOfe/jUbjW79+/8G3+zqGLzn1gmebuTdIOtqkbfzJR4U6JOUSz3zlo+O76x7PGj+LJ5R742/Pft3/cuUAAAQEIANzzpx/lJy+nza56ZngFKJDkpsvZ5++8IOHXi6X3+zl4Z/99bTmQ42jnOyjJj29GslqEeOZR7IaM2FFJusuk3dvaE7set1n3vQgVw8AyAJF6FB3B399NeVDMulKF+qACz986Isu/NCLL8tTPiTpgncdseHijx72v7Oeump3ZzpGplvzT1ZFhyQhH8rYJSzPeGbdtmDP4nnsNBeMct0AgMzZF4cA6sohp12y5bSh4XskG+m/fORZ1OoecNb88AUffvHX8paObjzvnPNmzFw380OSPixpWs9PR4ek4rZPTliYQzyrE88ImRxvNMLdFp/5xpu5igBAWrgDArVl+tDQSzvLh3KVjxyLWn82HuppF3zksK8OUj4k6er3zlt38ccOHw2b4bMld2PvT0e73SzJaro/1n+7XeJZcPlIE59NZXJ4ohl8gisIACAgAKkSJffKNBfngrZnnXDSBy780CGvuOyjh/yzSMf50v+Y86ex8WnPkdN3O346S/dcAzokZflTC9bxqiDywbN4esukk177nPd+e2+uIgCAgAAk4MDR+UOSHZw0wfHenjVNwjx1B6udhYdd8OFDzxr0XY9OLBg96KGLP3r46+TsA2qfT+1Xu91qtE/ukiOXu92un0mFQk4OVFEmAyfjLggAICAASdh8ZvgcSVtmS1aTb+C/qNU94JxefMFHDru8DMf94o8ecZZz7t9Nmnj0I1aoQ1LS9LggHZL8JavpZTL3eCKTvuP5sn3f/609uJoAAAICEDtTcIckSW56ZgGDKWr9pyl4/gUfOvQ3ZTr0F330Jd+W6WiZmsVqtztomexHshrz5Uq0T+6vTA4mnnnLZNftXSN0H+JiAgAICEDclMDci5LIRwE76qxV6I686MMvWlrG43/Jxw8/Xxa+O03OR7vdLPJRl3a7JXh2i5d4Dlom7ajnvP9bT+aKAgAICEAP9vnK74dd4J7dH/nIpaNOKGevvfCjh1xd5jhc8v/mfMHJTotpjN6S1Vq1Z00qHykS50E/u6XY8dRg45m/TA4509u5qgAAAgLQg8euWb23zDaLk3QUsaOOmU698EMv/nkVYrHfxO8+5mSXxjmGtGdNKAgD6pBUHpmkfbIXmQztzfsc+5XNuLIAAAIC0AUXuufFuXT3t6g1bnJjv71vm60r031mdHQ0bLqJ1zlpRcfjUqAOSUVIVuvTbrd8kwPp4mnFiWe6uzBbB1vMmMeVBQAQEIDuF819NrnYFqJDUqzkZq2s+Zolx+07XqVoXPaxl99tcid2kw86JCVI3yvTbrd0z+Kpn0xuDKkzO57rCgAgIADd2buMHZKc0ykXfuTw26oYkEs+fvhPJP26P/LhIZ4Jd0i73QLLpJ/JgdrGcyPPfe77vrM7lxYAQEAAItj4AMJdk110C1HUevO6dUNnV3owagTvlrShih2Ssm5Lu91iTw7kLx8liKc1j+IKAwAICEAEM7ZoPl3S9NJ11DH7fwtGD1pf5dhc9JGX/F3S1+iQpKp0SErhh7TbjX65+O2TLdTRkjmuMgCAgAC04Sx4Wgk76tw88ykPnleH+DRlZ0kap0NSQvlI3SEp73a7dWmfXB6ZzBbPLr/F6SnPfe83n8tVBgAQEIAp10h7ch7Jas4ddc48f968Zh3ic/nH59wuue+lzM3KEk9f1pNePmi3W614qiDxtODlXGUAAAEBmPqV3zlRchPzkp5jh6Q169cPf7dWkmj2pdTmITokxZePgrXbzTGeIp59iadJR3KNAQAEBGAqOyeSjwF3SDLZjxaMHvRQnQJ08X/MuUbSTT2PIe12+5SsplCGNO12Bx5Pq0k8c22fPHufD3zzKVxmAAABAdj0YrpzArdILh+eO+qY03dqGSW572ZPVj3EU37jmU+ymvRPKGvHq0I8i6fv8uE/nso1no0JdzjXGQBAQAA25UmxsoBiFLWuGls3Mr+eI5P7WZJktdjxpENSIWSSdrt9iaczHcRlBgAQEICNvOz0hTMlbRN9QS1kUetVC0YPmqhjrC776Ev+JOm+uPJBh6RBJ6uqSbvdpIejfjJpshfQjhcAEBCAjUwMN5/kRz76VNRqdkVtg+WcyXRF/vJBh6To30G73SzxzE0m00S7/zK53XPf+Y3duOIAAAICIKkxMbFjqTrquODqOsfLAi3udZyr0yEp73a7CWbLlWfHK2TSTzyVXzw9yKQNuRdwxQEABARAUuiCbVJfzaPSxJw7JLlw/KY6x8s5uyl1u13v8aQ9a8d3Gu12KxVPpWtitunP3D5ccQAAAQGQZC7cKmE+0jlZTZNOJUtuHrjgo0fcW2sBCe2vnQ4PHZJiZ6A+N42Uj8TnBO2TCy2T2czjkVeeyRUHABAQAEnOgi0jL57F7Khzc93jNd7c4laZmilcsYjxpENSYWQy8+RApWXSSzxNexw4On+Iqw4AICBQe8xpq0HJR/KOOvZg3eO1sQPY6kQJJe12Sy4fyGQl4uk0/aH7l+3KVQcAEBBAQELbpjxFrW41EZOc9FD3I0a73TTJqlInq6LdbhqZzDmehWyfHBgCAgAICIALtGUS+RhwUetDREwyaZUf+aDdbvQ+ytpuV+Vqt5s6nnnLZH7xDGS7MIIBQCdYowk1ymZt6yTyUYQOSfDwJAkdknq8v3AdkvKWj2LEs+7tdnvEEwEBgO4Xd4CasGXcS/qgOySZczMJl+SkLeiQVBD58CTHyGTZZFKpZNLknsIIBgAICIA0oyxFrZIhIJJCaWa2LJAOSSk27SgfuXe8Qib7Gs+s41b3eNoTGMEAAAEBsF5LDgvVIWnruodr7uh5I5oiIBnlgw5JqlTHK5UhnnnLZGHbJz+Giw4AICAA0vBg5CN+7mOPJglPk5mrc7BWasYum45RFe2QVIN2uzG/+GWZHEAm47116wNHR6kzBQAEBBCQlDlgxmQ1VVHrzMNOuWiHOgcrdMEziikfnjskJZWPFInzoNuz0j550PKhQcikG3tol2247AAAAgJ1ZyhWwlKcotZa99EPH3mOAO12M3lHmsSZdruFbJ+cXj4GE89wQtty2QEABATqznDU5bQI7Xaj0gPXcPvXOVjO7AA6JHV6T7k7JJUvnlaceJZIJsc1MYPLDgAgIICAJE8r4lzbvcvHxr/uwLoGau555zUkHZA0caZDkgf56EeHpBI9i6d2MukxnkNNN8JlBwAQEKg7ja7yUbAOSWZuvwNH50+vY6D++dcZ+0jaKv7hp91uik07ykfh2u0WbHJgMPKRPp4aUDybDdVy/AIABASglWGf8pF3hyQnzZg+bfzwOgbKhXpVJvmg3a4q1W63pPFUJeMZ/xZRYDaNyw4AICDA971kHZLM9Lq6BWl0dDSQ9Np+Jqt9abfb42+pWYekAcQz73a71WufnFUmQ3MNLjsAgIBA7SlfRx2bc9johbVqZbnI7XOQpCeUpUOSJYpngmQ1ReJcpg5JhZLJgrXbzRbP4sgkAAACAlDODknT3DQ7rk5RCp3eXaYOSbTb9SEftNuN9o4KxRMAAAGB2utHiTokmbn3zD3nvFq0szzoP38+W6Y5caJJh6T2TWm3W6l4Ks945i0f6AcAICAAWVRloPKxke1XrtvyrfUYkNzHe49LtNtNsenUd/aj3W7MfRf1WTylkklPOb93mQQAQEAAVMqOOs7ZyQefcmmlnyp88H/+/NkyzUuUrHpNhsrcbrd8HZLSxbOY8uE/nipmPJV/PAEAAQFAPtSnDkm9O+ps27Dmf1Y1LKOjo4HMfaH7mFTmDkkxXqbdLu2TqxZPAAAEBJAPn/LhuUNSd/l4GGfHHfapC59TxdBcFezzDknPHox8xA8H7XYTHSgVMp7+JwdKLx/9jycAICAAmEku8hH7Khx/XXnDAvv+IaddsmWVjv4h//mrPWU6LUMOWNZ4ZvzK0m63MJMDKeUjWzxV0ngCACAggHzklqzm01HH7dIIw69V5ei/+MyLNg8tPE/SDD8HNs945t1uN8cOSbTbLW673VrFEwAAAQHIWT7y6ahjZnNffMoFHy77cZ573nmN5trx7zpp124HiXa77Zv2od1u7CNGu91SxLMQ7ZMBABAQABWw3W7cjEUynXLYKRe+qcxH/4EbZnxGspfHlo+SymSsePrbNMJYU5wT/eiQRPvkPrTbTdk+2foTTwBAQABqLx8+tu1jRx1nZl857FMXvryMR//g0Z9/2pzekUg+6JCk+rTbLfHkQB9ksnDtdpEPAEBAANIloCXskDRszn506KcvLM9DCs3cIaM/P1fOfTRv+RhMu93qdUii3S7xzCaTAAAICCAfCeXDc0cd/0WtDSf76mGf/vWHZOaKfORffOZFmx/8yV+eZ869ZzDyUWiZ7LFb2u1mP+tpn9z/eAIAICCAfOQiH7GvwvmtK3cmd9qhp1z40zmn/nLrIh75gz75s2c0145dLdOrE0Wo7h2SSt1uV+Vqt5s6nnnLZLXaJwMAICCAklSro87LxprB7w875cLnF+gAu0M+8Yu3BWHwe0l7JkpX6ZCktLP2xZCPYsQz/8kB5RfPiskkAAACAshH5TrqSJJ2CcPwikM/dcG3Xjx60faDPL4Hj/5srxd98ldXmdNXJW2RKF0dqHzUpUNSkiNMu92BxFNlbLeLfABAb4Y4BACDSVbjGkX8TR/tkCXZ622o+dJDP/3rc8fHN3xuwegrHuzXETxk9Je7WEMfldm/O9lQP4pa6ZBUrQ5JFZ0cyFEmU7bb9R5P5AMAEBCAhAlOIdvtJpWPVraW6T+Hh6a979BP/foLzhr/ffH/O+zWvI7pQf/5q+cG0omm8GjZxrGFDkk+4zkA+Ui+Ae12ixzPvNsnAwAgIAAJ5CN+nlTCjjpbSvqoueZHDv3Ur69SaN8eCt2FF4wecUfGA+le/IlfzW4GeplJr3eyXSvbIakG7XZjfvGLJ5PlnBwop0xy9wMAEBAAn/JRrg5J6ZIbOZm9QE4vGG+YDvnPX/1VgS4303UK7a9DQ0N/uehjL1ke9ca5553XeOCGzXYOXfCMILBdJXu2ffJXL2oGeuzDOx5Mstq3DklKG8/ytNstQoekGk4O5BbP4sokAAACAsiHatshyenpMj3dSVLg1AybOuSTv5KkByRbLacJhZouaYsH/qJZCqRAYYfl6eVrz5qrTNIhqbgyWczJgcq12zWTXKGfTAQACAjA4LQkoXzUokPS1nq4fiSXZJUOSZ7iqep0SKrAs3iQyVjxBAB4GNrwAvLRB/mIkYH63LSjfNAhqXYyqdQdksx3PJFJbzKZYzyRDwBAQABKKR8xX6ajTvJ0ina7xZXJNGch7XbTyeTAJweQDwBAQAD8yYd8yEf1OiQVu6MOMkk8Pf1qJgdykEkAAAQEIHayUoSOOkqd3KhyHXX60m4353jSIalXPJkcqJZMTnBNAQAEBKBs7XYpau0lH0XpkJS3TFavQxKTA0wOAAACAoB8JE0nK1HUmrd81KVDEjJZiXgmPcuMeJqPkwMAEBCAuntJvTokJUk3aLdbbJlUrskq8fQgk0wOAAAgIAB0SBLtdqvWIUmDjqfVJJ5MDiAfAICAAPRdPmK+TFFr1h0OJFn1L5N0SKpWPJkcQD4AAAEByOwidNTp+cEr3SEJmcwrnv2XD+KZ1+QA8gEACAhANuOIn9wohXykuTAPuKMOHZIGnayKDklMDiSQj/7HE/kAAAQEIKN8xL540iHJ82Gtdoek9PJRl3a7ntsn5ygfRZkcqIJMAgAgIIB8iA5JvuSjOB2SrDjxRCYrIZPEM0M8m1xyAAABAeQjefpemY46KTskxZSP4nRIqpFM5hhPEc8+xjNf+VBhnsUDAICAAC4iOurk0FEnTSzokJROJmmfXJHJgXxlsgiTAwAACAggH4mTm5gv01GHDkm1arfrqUMS7XYrLZMAAAgIIB8pL+TFSFZFu10vMlmXDknIJPH0ECPkAwAQEIA+yEfqota8O+rUpUNSEkeiQ1KxZbIukwM8iwcXAQAEBCDtJZF2u8mPYt07JBnx7Fu73cJODqgg8Szz5AAAICAAtfcT2u3G2gMdkpR21r4Y8lGUDklMDtRucgAAEBAA5KNf8pHiD+tHu92Y+y5Ou106JCGTTA4UM57IBwAgIACZkhsfRlHPDknFlA//8VQx4+lVJosbz1pMDlTtWTwAAAgIIB8pXqajDh2Sat4hqZoyWdDJAfmO5wBlEgAAAQHofkWl3a4/+ehLh6QatNstSjyzbotM1nByAAAAAQFQ7h2S0stHXdrteu6QpLTxpENS7jJZsPbJTA70iqdnmQQAQEAAVNwOSXTUoUMS7XZ5Fg/tdgEAAQFAPgrbUSd2ukGHpFLEs+IdkpDJGk4OAAAgIIB8pLh4FrmjDh2SiisfdEhCJus+OQAAgIAA8pHiZdrtJj6otNul3S7tdlPIh/d4FulZPAAACAiAqtghiXa7xNO3TBYlnqpkPOvyLB4AAAQEwLt8KHVyI9rtKkVyU1iZFB2S0sSzBu2TmRwAAEBAAPnweq2kqLWXfNAhqb/xpN0uMjmgyQHkAwAQEICU8lG4ota85YMOSchkieKZ6rRHJvsyOYCNAAACApDi0ljIDklJPgftdostk8pVPooTTytOPFXmyYFqyCQAAAIC4DVZTfFL6JCUPN2re4ck2u32dXKAZ/H4iycAAAICIIpaI5PVNOlUJdvtFrRDknzHUzWJZx9kksmBjjuY4HIDAAgIQDXko+cnK2pHHWVNbpDJQsWT9sk8i4c7HwCAgABkyX3K026XDkmDTlZFu10vMkm73drJJAAAAgIgOiRVst1u0vjTIansMlmUyQGVNZ7qQzwBABAQANEhqbLtdnPskIRMFrLdLvGs4OQAACAgAMiH+tBulw5JfZWPfshkjvEU8exjPHkWD/IBAAgIQN/lI8Uvod1u8nSPDkklk8mitE/mWTyFlUkAgAiGOARQI/E42zb5zrt47wsf+T8JcAkuyuEm/y96T+kv9aGHrZ1L+PHDqH+GcQ9b/JfD+McknLIjF//DhEm/NS5y4zDegWrf0+NNOiZSPtKcBsgkkwP9kkkAgHSXewAAGCT7f+T7z3cWXDmwjldeOiTVpeNVf4vOiyKTneJpzs257gtv+zVnMQC0wxIsAIDCU6IOSTWQj54fnGfxbKTJqQsACAgAQDn1I0/58NwhKal8pEmyeRZPtdonAwACAgAAZbKR/OUjdkKZqeg8ye5pt1vYeAIAICAAAMhH1mS1du2TK/4sHivAs3gAAAEBAIBSy4dylo+6tNvlWTzIBwAgIAAAkCpxpt1ugdvtpolwReIJAICAAACU0y9SJsN5t9uN8XIl2u0m28CIJwAAAgIAUBomkmeMfWm32+NvGZx8qHLtdhM/uyVNPHNunwwAgIAAAJSeAbfbTd0hKe92u0XpeEW7XQAABAQAAPmI8RLtdrPLB+12AQAQEAAA5KPnS7Tb9SMfxWm3O/h4AgAgIAAAVVSSyrXbTSFl/Wi3G3PfxWm3O9h4AgAgIAAA5VcNP9sWvt1uUTpeJb2lQLtd9AQAEBAAgIrLx2A6JMV4mXa7tE+e4KwFAAQEAKAG8hF/V7TbTXSgcpePvrRPtn7GEwAAAQEAqI6SVKlDEu12+9c+WWnjmXP7ZABAQAAAoNryYbm3201SJ5Bnxyva7fqJp3KMJwAgIAAAUHH5SJRNqnDtds1Piku73SLEEwAQEAAAqIF8FKnjVXL5SKwYaTpexdi3ZXm7qtg+GfkAAAQEAKAOWpJjshrzZdrtJo4RMgkAdWaIQ1AN5p6zeMaGdWtnNQNtPtFwWw01nZMkG9JQU+HMWDvx0jIxp76LCXbbLNrfnvgPnFCBI9HjFzULd25MJNmqgG1DTeGeskG12y1Kxyva7VZLJjOeE8tPeqGCxnDtL/xhc5UseHjQbQQPqhlOaLhxv3vMGavJigABgUz827nzt2qOh7uE0lPM3JNMtpNz2l7S4yRtL+kxJpv10MTaEW0cjgMzhcHGi0HYfpuryzpkl/WC2HEnHd6TYClAEP+C6B75QEmuaA+/sy9FrT0PUZA5uTHr9Gs8d9TZ5PNs+uG8Le3I2CHJxf0QHTYudock+Y1njvKhLMkq7XaTy0fO8RyUfEiSXPBDmW1X+wTBBY+OWbbxYt9syla8b1zSPyXdL+lOSbdLul1Ot8vsb2oMLUVSAAEBSdLhp1z5GA2P7+nk9nCyPcxsT5N72th4uO2jg41F5EcUQU7dNM+OOsomH0l3XNmOOjl2SDI6JBWx3S7x9BNPyz2etNutAMOSdtj43+6bxstJzabZivfdJtkfZe56NcKr1ZhY7Lb93CoOHSAgFebA0fnTN58Z/ouZe66k58r0r9LEzpMjxMNjhJNLOhtHEWTqjjqZzcOTfMSPJzLpTSZzjCeTA/2MZ97yUZfJgRxlEoqCk/RkyT1ZTi9XGEjhSNNWvG+pZFfKggs10bzcPeHcdRwqQEBKzNzzzmus/cd2z5S5QyQ7RLIDLHTTs2UNFEGm2LSjfORe1OpVPuoik+njqVLF02oSz7wnB5DJYscTCk5D0l6S20vO3qHhYJ2teP98OfuFmvqh2+ns+zhEgICUgMPOuXCb4XDa4Wb2srW36zBJW8aezaMIMmWyWqGiVpUznqpkPPOeHCimfDA5wOSAv3hCCZkh2REyHaFAn7UV77tYct+T9DO3w1lrODyAgBSIF5950fYjGplnTq9UaM83s5jHlyLI/iarqklRKx2SCiGTTA7UenKgmjKJgdSMYUlzpHCOpFW24qT/k+mzbsdzl3JoAAEZEIecdsmWI8NDr5Dca53ZwSZrdBvPKYKM81Hz7qhTlHXldEhCJgc0OVADmSxKPLNuW+d2u1AkHon7LMkdK6e32fL3XqzAznKPPfdSjg8gIH1izlmX7yMFx0p2jEybP3xyUgSZST76UQRJR51CdkhCJvs8OaC08SxPu10mB5AP8Coe7ThJhynUYbb8pGsld6p2OOeHzvElAQTEOy87feHMZmPijZIdJ2l28lms9MkqRZBRm9JuN3s8S9xuV8gkkwPEs7CTA1Bl+Wj/TjxLsvO04r2/s+X2AbfjuVdw7AAB8cARZ8zfIXA6vukm3inZNkkviBRB5iEfKQbSfrTb9R5PZLJbPGm3y+QAkwNFnByAyspHVxm1Z0taYHe951I59x5qRAABScnLz7p09wk1PippnknDXU66BPKRfAOKIKM2pUNSteLZB5lkcqDQMpn75ADP4qHdLmQ6v3pfeze+5nSIZH+wFe85U+u2+pR78uh6jiu0E3AIpjLn3Ct2e+lZl39rQo0/SjpGD3eASJzc9Dy5KYIsuXx4kEk6JNVIJnkWz0DjKd/xZHIA6iQfFk8+HmVEpo9p+oN/thXvOphjC+1wB6SFw8+47ClB4D7pmvYakwtin6wUQXb9W+iQNOB4ZpaPunRIQiaZHCCeFJ0jHlNfsgwnmD1F5i6x5e/+giaCD/J0dUBAWphz6lVbByMTHzLTuyVNjzcPRhFk9CZ0SOq/fAy4Q1Ka6VI6JPEsHp7FU6HJAainfMQWEyfpHRoKD7Y73nO0e/xnruO4Q62XYO3zld8PH3nWgpPcSPNmkz70sHxkP28pguzxm/pRBElHnULKJPHss0zyLJ7iyiTtdqGo8mFKs+Sq9+um3RTY1XbXu47n2ENtBeTIs+YfsNNDDy0xp3Mk25oiyBTpR5U66uQYTxHPPsaTZ/H4iScyWbfJAeSjbuJhKb8Dlvz1TX5k0yV9ye5617dt2UkziEV9qd0SrDmnXrW1G2mOmvSOhwWMIkg6JIkOSZXpkIRMVm5ywIgn7XbBr3wkvuDE/H5Yku/h69RoPs2WnfQq94Rz7yQu9aNWd0DmnL1grhtp3iTpXfnLR/INKIKM2pQOSchkAScHkEmexVP7yQEon3j0WnKV9sJvSeVjkudqqPlbu+OdexOf+lGLOyD/du78rZrmTjfTsTHzlUTJTc+TlSLIkssHMkk8/STO1ZJJnsVT38kBKJ98dHvJe61HfHEx7aRAC2z5O//N7fg5nqBeIyp/B2TOmZfPmQjdjVPlgyJI2u2WTSaTHg5kst6TA8gkkwM5jbdQfvnIr9C89RfEfe9WMl1od73j34gXAlJ6DhydP/TSs+ePuiD4uaQdiikfFEEmn43pfABot5uzTKaJNu12mRxgcqBCkwNQLvEYWKF5mn1Pl9wP7a53HE3sEJDScuR/LXziFjPdFZI7eepnpAiyWkWQyCQdkognkwM1nxzo17N4oETy0e2cLMRdj6jXG5K+ZXe943XEEAEpHXPOvHyOTUxcL2m/yC8/RZDJ03c6JCGTdEgaUDx5Fg8y6Vcm6XhVdfEoXKF50n03ZPqm3fXOVxJPBKQk5525OWdf8aGNS6626pasUgTpRz5iZKA+Nx1cPL3KZHHjWS6Z5Fk8lZNJJgfoeAVez5RNX8q65KrbWzzu2yYlxL5vd73jMOKKgBSaA0fnTz/ynCu+5WSnRX8miiDpkKTCdkhCJnkWD8/iYXIA+QDv8lGsQvPuYjJlVzYisx/bnSfuR3wRkEJy2LlX7rjFTLfYpNeluL5l3VgUQZZXPooST2SSyQHimUI+mBzog0xC8cWjVIXmMc/lR36wmeR+YsuPfxKxRkAKxcvOmf/U4TC8UtKzOn/PKYKsVBEkHZKSJzc5x5MOSb3iybN4kMkyyiQUXz665T2FLTTvId9T3r+9wsav7eZjtyTmCEghOPLs+f8amlss6anFlw+KIKP3QVFrX2QydTzzlkmexcPkQNlk0vPkAO12IdU3q/SF5lFLrrrteDdNb/zAbHSI+CMgA+WlZ19xhMldLukxGYf/lPMMFEFmvyCWt91uUeJJu10mB3KZHDDiWftn8UCB5SNtnAtXaJ5QXNxhuuueT/MdQEAGxpFnz3+pZD+SNKPrF5YiyOTpO+12PccTmfQ2OcCzeHgWjyU+O5kc8KamUFj5KHehedJ9f8Duevsr+C4gIP2Xj3OumCe5H0uaHidZpQjSj3zEyEB9bjq4eCKTfY1npouueBYPkwPIpP94QjHFo9KF5kn27WT2dbv7hF34XiAg/ZSPo83seyYNDyZZTb4BRZBRm9a33e5g4pm3TNalQ1Ix5YPJASYHkI+qy0e3L2wJCs2z3/Vof30rTbgf2NK5I3w/EJDcmXP2FS+T2TclNVJe37JuLDok9TtZFR2S0sQTmWRygHgm3iEyCcUTj4oUmmeVoqh9m+2rLbc7me8JApIrR555xYuc7Afd73yIIsjIP5MOSdnjSYckZHJAkwM8i6e4MlmpyQEonnykvZaWvdA8xhjy6GYftmXHH8j3BQHJRz7Onv+vFtjP1LXmI2l6RhFkJvmgQ1K14pnq2ohM9mVyQGnjybN4mByASslHvQrNo99rEfmr0zfsn++cxfcGAfHKnHOv2sXkfiZpi54nFUWQydMPOiSVKJ5WnHiWukNSxWWSyYHiymRRJwegQOJBoXnH8aOzoT9J68ZP5fuDgHjjFZ+/dFsXNi+QtH1c+aAIMsEFkQ5JnuOJTHaLJ8/iYXKgqvFUqScHoDjy0S0pqGWheZfNpuz7ePvHcS/ge4SAZGbu6NKRiQ1D50t6+uDkI/kGFEFGbUqHpGrFsw8yyeRAoWUy98kBnsVDx6taiQeF5h33Hb9pS6Ag+JotO2kG3ykEJBPrZt7zdZMO6leyGsvskyarFEGKDkn9TlbrEk+exTNImSzcneaSTg4M9k4zFEM+ur1EoXmy94ZPV7D2A3yvEJDUHHnWgpMkd4xfn6AIMs7fQoekvOOZt0zWpUMSMsnkQPnjqYHFEworHxSaJ7nrETXmfNjuOvaJfL8QkMTMOfuK/czptN7nLkWQtNtFJvOUj2zxZHIgcbLK5ACTA8hHTcSDQvOOY0bic3PKm2Yo1Kf4niEgiTjs3Ct3DGQ/lDTi/XJOESQddeiQlDL9JZ5MDjA5UBmZhAHLR7fzjELzTFL0CO51dufx+/N9Q0BiMfe88xrDYfgDk3bs+WWlCDJ5+lGljjo5xlPEs4/x5Fk8TA4wOZBtwEM+yiMeFJpH7jvVXY+e+3YK7SwzOb57CEhP1i177MclPT+ufFAEmSDdq1q73YF3SLKaxDPvDknIZOUmB4x40m4Xkn2/al5onuq9FuM6ZP+qO459Ld8/BKQrLzv38v0l+/jg5CP5BhRBRm1Ku91Byof/eKqY8fQqk0wOeJ0c0KDjyeQAlEA+KDTP467Hw8d0001OtxWv35zvIQISyb+dO3+rMAy+K2koZb6SdWNRBFkl+aivTBLPNDJZlHjyLB4mB/KSSRiMeFBo3nGcyF5oHnfC5PGamPFuvo8ISCTNpj4jaec4VxCKIBNcDFVU+aiLTCY9HMhkvScHkEkmB3Iab2EA8tEtl6HQPJMURR3TbpMMFr7X7n3zTL6XCMgmzDl3/iHm3BvKIR8UQSafyamzTHrukKS08aTdLpMDTA70VybpeFVf8aDQPHLf+RSa9zimk6+5bbWucRzfTwTkEQ7/7G9mudD9j9StSwFFkNUqgkQm6ZBU3Xjm326XyYG6yWSmeEKf5SNt7Cg0T/W6JXhvoPfbXcduxvcUAXn4F46vO0PSE9N9wZINABRB5iAfdEiqlkzSIakEMpnj5AAyWa1n8cDg5YNC834VmseJxWPV1Fv5riIgmnP2Ffs5uWPjJKsUQfqRjxgZqM9NBxdPrzJZ3HiWSyZ5Fk/lZJLJATpeIR6i0LzLtbt/heYx9x1+2G5943S+tzUWkNFRC5zsM+q49IoiSDokFUUmDZksk0wyOVCjZ/EwOQCDlo9uX0IKzTNJUdQxTbLkKnrfO2q48e98d2ssIL+fteBESc9O9R3OtrHokFRe+chyPUAmyyCTxJPJASYHsskk9Ec8KDSP3Hdudz3M3/E091FbOneE73ENBeQVn790W4VutPvMAR2SEl0Mla98KHVyIzokpZHJnONJh6Re8eRZPMhkGWUS+iMfaa+PRS00Nw220DzeGOVx30/UrK3m8l2uoYBMjA2dIqdtiy0fFEFG74Oi1r7IZOp45i2TdEhicqBsMul5coB2u8hHZB7ssRg88suQZ6G5su+7KIXmsa7JJql5It/nmgnIyz5z+TPM9OYMw3/KYYIiyOwXxDK3261LhyRkspaTA0Y8a/8sHshZPPIsNO/2FgrNve27dXmcuf3s9rfuw3e7RgLSbDZOlzSU/AsX/4JIEWRB5IN2uzWVSeWarBJPDzLJ5EC1JgcgZ/nodqGn0DyzcLUfU/9LrjrEyo7n+10TATny7Pn/6mQv65asUgTpRz5iZKA+Nx1cPJHJvsYz6wWbZ/EwOYBM+o4n5CceFJpH7rsMheZxYuXcMbbsLdvwXa+BgJjcmZrSdpciSDrq9DGeKkM885bJunRIKqZ8MDnA5ADyUQb56PYSheaZP3P7iZzLXY9evzucIQtpyVt1AXnp2ZcfLOmARN/pbBuLDkn9TlZFh6Q08UQmmRwgnol3iExCX+WDQvP8Cs1TDyQ+lse5E81GA773FRYQqfH/Ol1BKIJMKB90SCquTBasQxIy2efJgdo+i6f/8cy6Le12IZYgxIoPheap9p13oXm8fT9Vy/5xCN//igrInLOv2E+yF6YY/vskHxRBTt2UjjqFjWeqzBmZ7MvkQI7ykS2eqkk8azI5ADnIR7exkELzzMLVfkz7Vmgea98Uo1dVQJzZJ5KZb5ZhgyLI7BdEOiRlj6cVJ57IZCVkknj2WSaLeqcZPIsHheaR+65KoXm8fc+xO96wLedDxQRkzlmX7yOnQ6LkgyLIBBfEynTUSdkhyXzHE5n0JpNMDjA5UKJ40m4X4n1nKDTP/JnbT96BFJrH2veImo1Xc05UTEACF7ynP/KRfAOKIBNv2lE+CieTaS5HxJNn8TA5wOQAHa/qKx8Umle00DzG607HcF5USEAOO/fKHU2a5ztZ7flFoggyZbJKh6T+Jqt1iSfP4mFyAJnMFk/wJx4Umnc896tbaB5n3wfYbW99MudIRQRkuGknShpJ7hMUQcb5W+iQlHc885bJ6nVIQiaJp2+ZHEw8i/QsHvAnH90Ml0LzzMLVfkyLVWjeSxSdgonXcp5UQEAOHJ0/Xc6Obc3uKIJMKB+020Um+xLPOshk0sPB5EC9JwdUnHiCB/Gg0Dxy3/UqNO8dK3Ov43ypgIBssUXwKknbUwQp2u3SIYkOSUwOMDnAnWbkYyDykfb8otA8uakXutA8RqxsN7vtTf/CeVNyAXHO3kIRpOiok2M8RTz7GE+excPkAJMD2QY85KMQ8kGheX0LzWPFyihGL7OAzDn3ql1MdiBFkCnSvcIWQZa1Q5LVJJ55d0hCJis3OcCzeIr7LB7IOCJRaN7xelzvQvPesXJ6jZkc51FJBcSF42/VxgBSBOknWfVhFPXskFRM+fAfTxUznkwOFHdyICf54E5zVpkEn9Mhm36xKDTPLFztx7RcheZx3vs4/ePfWYZVRgE5cHT+kDP3Rh/JTawTNWmyShGk6JDU72SVeOY1OVBNmSzo5IB8x5PJAfApHhSaR+6bQvPksXL2cs6pEgrI5lvYwSbtSBFkgothj7+FjjoDjmdm+aheu92ixDPrtsgkkwPFiSfk4iUUmmf/zO0X0VIXmsfYd+gQkDIKiJNeQxFkwgttUYsga9NRx3OHJKWNZ3na7TI5wORAf+JZl2fxgHfxoNA8xfk0gELzzLGS/1g57WW3v3kXTqQSCcjc0fNGTMHLEw0SOcgHRZBR+6CjTmFlkg5JxZVJ2u0ik/2IJ/iVDwrN/QjXJvLhQYpSnSt5Lbnq9ZnHX8bJVCIBWb/5dodLtk1q8xBFkLnIB+12iafokIRMMjmQTiZzjid4lA8Kzb0IV/sxrV6hee/j6cQyrDIJiAXBvCwXRIogY2egPjdNONMxwHjSIakP7XaZHGBygMmB/sWzZglGQ2E+4qGAQnNPn3mTa0eFC8177dvcAbbsLdtw1pZAQPb5yu+HzewIf8lq8g0ogozatC7tduvSIUnFjGdNJgd4Fk8RZbKskwP1YyK0sXz2bNMyJdpd30Khubd9l2t53JDCsTmctSUQkB1WrX6hpK3SnSw9vgwUQZZcPpBJ4lnGePIsnirL5GAnB2qbYGzIadfTko8lFJpHjzM1KTTvlm9O/tPc4Zy1JRAQF7gj08oHRZB+ktX4swxZ/ZB2u/2IJx2SBj05gEwyOZDT+VlTnDnvAmI2GkgaiiUXvZJZCs39CFfifGRQheY9l8cduvH7BUUWEDO9tP/yQRFk9D4oas0STzokMTnA5EDJJwdot1tMAQlC/0uw7lg5Ldn4SqF55ElZx0Lzrtdzk6TtdNtte3HmFlhA5pw5fw/JEvdMpgiyx/sLV9Sat3zQIQmZrPDkADLJs3hqjgXhSu87nWit/6DQPHGCX+dC846i2GrN4aGcuQUWEDkdlvSCSBFkQeTD0/UTmSybTCpX+SCeHmRSyGSlJgdAY+b+6X2n0xpbUmie4ktNoXm88cXZwZy5RRYQcy/yKh8UQaZIVlMoQ1E7JNFut38dkjToeDI50C2etNutyuQASBpb+sW3P+R/t+PbJU5IKTRPLy6lLDSPE6uOn+sFtmzuDE7fAgrIgaPzh+R0QPpkNfkGFEFGbVqholaVIZ50SGJyoGAyyeQA8lFs/pnPbt12iZJZCs39JPFT3uaxGDzR+Zl7rGaoOf15nL4FFJAtNnfPlmxWnIthzy8HRZClSlaLHU86JBVCJpkcqPXkADIJLaJwb047fkxs+UiTsPa6xlForlzuevSv0Lz3e114COdvAQUk3GR9HB2S4ux7sB2S/MkHHZIGnayKDklMDhQ6nlm3pd1uhfRDdntOe96uZ1I58ELzmHcAKDQfTKF5r32HDgEpooA46YX9kQ86JE3dlA5JfZHJnDskpZcPOiTRbpfJgcJODsCmOZx0W05Zy3Yd41mYQvO05zKF5n5jlXLfTvvY7UdvzVlcIAE5cHT+kKR/TZxsUgTp4YJIh6Tiy2SOHZKQSZ7Fw+RAcZ/FA1HkIyChPZlC84jXKDT3KIoWyIL9OIULJCCbb2F7S9qCIsgSyEc/OiSZ73gik95kkskBnsXD5ADtdgeJy0lAnHbpnIdSaO5t33kUmpcqVnYAJ3G+DCW7brrny1EE2etiGCNj8blpx8GocO120yTMxJMOSTyLh8kBOl6VjoaaN+a0612SxzhhoXna9yaeRMh618PTZ45/Yqffdx6xSnztThAr0/M5i/MlWQ2IC/dPJh8lKIKkow4dkmoZz7zb7TI5UKrJAWSSGx9+2TBr+3v/5nunds+JW0ja3l9CW+ZCc0+fecpLNSk077Tvyc2c25fngRRJQOT2q31HnR5/Cx2S8o5n3h11qtchCZkknr5lcjDxLNKzeKAHNy4YHZ3wvtdw2pOTtWyl0DzZ+VmjQvOoWG36HZim8eFncyoXQEDmnHvpLjLtFO9rRxFkpos4HZIq0VEnWzzrIJN1mRzgWTx+JgeKIpMQgz/nstdmuHsiAYiTkFJoXtdC896xCkQdSI7ErgGxptvf5SAfFEFGbUpHncLGM2n6a8STyQEVJJ5MDiAf/cGka3PZsbO9M1lr5pn0LCd6xn1nWnKVdjzLIh6e9z2IWJmjDiRHYt8BcaE7IA/5oAiyfVPa7VYqnipvhySexcPkQFUnB5CPnAUkcIty2vXeXhLa0jzR3Mr3RHOfx7PjeNCvWNl+ZnMbnNEDFhAF2j/2xTDm6E8RZOJNE86KxD8u/Y2n1SSe5e6QhEwyOeA/niV+Fg/E/Qqvb96z9bU57X7vVEk8heZtL1FoHvO9s3R7Yy/O6gEKyJxTr9papt1iD9sUQaaUj7p0SCqmfPiPp4oZTyYHqjM5wJ1m2u0WL6n43dLz5415F5s73r6tpMclF4Ru3y8KzTPvu/TPYenx3ojVP9BHAdHQ+H7dt6UIsjry4UEm6ZCkOndIqqZMFnRyQL7jyeQAZCN0ls/yKxc8K3VCSqE5heZpYxXwPJC8iFeEbtpPLsYFkSLIPiQ3okOSF5mkQ1JhZJLJASYH6HhVGSzUJfnseXImmkLz5OcjheapjycPJMyNuDUgz80uHxRBJh8YOh+A6nfU8dwhSWnjSYckJgeYHOivTNLxqsSsWTs8ns8dkEAHUGie9FpJobmH47mD/eM1T+HUHoSAmDk57UMRZFyZzrEIko46dEii3S7P4kEm+xNPSMP8v3/uXRt879Ts2GGZ/Wv3AFNovulLFJp7ES5JagbP4dQegIAcefaCZ5i0VVb5oAiyfdM+dNSJfcTokFSKeFa8QxIyyeRAyrD5jyekxF2Yy27vnvEvkjZPPn5RaO5l31UvNO/5+sOrgMAvPWtAwikHniLI7MlqistomkyVDknFlQ86JCGTTA4UNJ6QktAs/Gkue7bwBX6T2TjJrnrIR4Z9Z6rFspTikfJ183w8yxkr7oDkQM87ICZ7durvMkWQHTatS7vdunRIUjHjiUwWd3JAg44nz+IB7yy+/ssn3JnTvg/zl9BmmUn3sO+8llz5WGbW8UdlvOvhNVbPsqVzRzjF+ywgMvec+KbpXz7qXQRJRx1kUoVttzuYePIsHj/xLKZ8DHZyALLgzJ2fx37tnhO3kOmAjnkIheai0NxnrBQVq+mazgMJ+yogh3/219Mk26tY8hH/+176Ikja7SZPbnKOJx2SBj05gEwyOZDT+QlZCJvDwY9z2fNE48WSplFoHvUSheZehKtdFKMVm2VY/RQQt2H6Mx898eNfuyiCjNoHRa1Z4kmHJF/xZHIAmRzQ5ADtdquL02V//Nzb7shp50dQaJ70GkShuV9RNMmFFKL3VUDMnkMRpI8LYp5FrXnLBx2SkMlqTg4gk32eHFDaeNJut/j+oW/ksV8zObnw8M45JE8097LvOjzRvFeseo+D3AHpp4CY07OTXlQogvQgH56un3TUKZtM9r72VCOeJX4Wj5DJSk0OgA9WTp+29qe57Pmudz1Ppp2Sf+8oNI/1OoXmSWL1DLv96K053fskIFKLgFAEmSJZTaEMdEgqsEymj2cm81DVOiSVWCaNZ/FUJ57gie9cfe571+WToYSvpdBc5Sk0L02slCZWTk3bl9O9DwJy+Gd/PUvS01PLB0WQqnOHpGrKJB2SmBxIeE4wOYB8VBsLXPMLuezY5jYUam4iAaDQPN6+8yo0zypFUfsu1PK4CZZheaTjgwiD9SN7m1NAEWS5ktVYMxRFlEkv8UQmmRxAJus5OQAD4td/+OLbb8xlz3ftcJBkj82ecPa6Zmbcdx61HrHGqSx3PTzvO/GSqwHFSpZhzadJchSi90NAJPdMiiBTXOEG3FGHDkmDTlZFhyQmB5BJ2u3WAhfo3Pz2Hr5Wcso+kx7rS5du3zzR3O/xLHqsTP/CWe+PoMvh7vnQFYogozalQ1JfZJIOSfWeHOBZPDyLB/kYtH788dovHH9ZHnu2u47dTHKvpNA8zWem0Dy3WDk9zv7+iu0593MWEEnPSpSuUgRJh6RSyGSOHZKQSZ7Fw+RAcZ/FA371w9knc9u5jbxWsq3Sf1coNJ963aPQ3Mu+3TBPRM9TQA4cnT8kaXa3wFAE6UE++tEhKaZ80CFpADKZYzyZHOhnPPOVD/EsnuwyCb5Zeu32K36c297NjkufNFJonmycpNA8Uaycnsnp74fIGpDNpk/sJgXTYyWradIpOurQbpcOSQWIJ8/i8RPPfGWSyYGs8QTfOKdRjY6GubjHshP2UuQzyCg0j/U6heYZC817xMpsb0aAHAXEnNvLxZUPiiBV53a7xJN2u0wOMDlQ3GfxQA5cn+vdj4Y7IXWyS6G5n8+cWjwqGKspA6l7JkOAH4IO0xvPzEs+al8EWYui1rzb7dIhickBJgd66k7tn8UDeWDOfTC/ux8nbSNzr9s0+hSa93ydQvN+Lo/b1W5943RGgpwExEUYHkWQaWYwog8A7XaRyfLIpOfJAZ7Fw7N4kI/S4qRfXP/F4y7O7xdseLukLeJ9Pyg0n3qSUGjuL1YdXx9Sc81sRoOcBESyZyaz4vzlI/bFk3a7yVOQGndIQib7PDmgtPHkWTxMDsCAmQiD4CN57dxufeN0OXciheYJ9l2WQvNUsYopirnFyrplzs9kOMjOlBqQl51+8U4T0nYdL4gUQdJut2rxVHk7JPEsHiYHmByAPvH5679w7NLc9j68+Zsk2yH9+UeheeZ9U2ge9zNTiO6BKXdAmkGwezr5SHpO16UIsk/tdmPumw5JHmTSaLfL5ECV41niZ/FALjhp2boNw/+R1/7N5jbk7L3dvxFFbNnaY0Ao7JKriLse3pZc9SFWuchHgs9s3AHxwZQ7IGHodnUu9mWo++W39kWQdEii3a7okMSzeEo2OVBWmYTcBCHQO2/6+ltW5/YLlm9/tGRPTTqOxkuG044B3PVIve++xyrDvtN1JNvbTM45ZkiyMOUOiHNuV4ogiy4fyTegQ1LF48nkQGr5KFy7XSYHuPFRLH563ReO/1lucvP7Y4el8OTkCW3eheZpr3sUmvuNlQbcFCDy9Vm69ZVPZGjwLCBSuBtFkFmTVdEhyYtM0iEJmWRygHjCALlv2DVPyPU37DD0Zpl7SmTiR6F5xQvN48TKihkr53ZlePAsICbtml+ySoekpMkqHZL8JDfZ4qmaxNOjTDI5wLN4kI8K4E783RffviKvvT/c+Uofi3/Ola5la/p99+XZHiZvz/bwHSsVPFahEJCMbFIDcvhnfz1L67XjoOWj1EWQdNQppEwSzz7LJM/iKa5MVmlyAPJTD+e+fu0Xjzs/118yPONESU+Id/5U8YnmvQYXnmjudd/mofvWo/97N0YJjwISrpu2a+DMDVY+kl7/St5RJ/YRo0NSKeJZ8Q5JtNtlcqAwkwOQJ38baWw4Kc9fYMveso2c+2ic841C84z7ptDcvygad0C8CojLYHQUQdIhiQ5J+ckHHZKQSeIJ/cCk9TJ7zTWfe9eqXH9RY9opMtu2+xeqDjPpSc+bhIXm3o5nL/ko6nNY8oqV4w5IRjapAQkmi2ooglR92u3SIWmg8UQmizs5oEHHk2fxQP9xzk64/ssnXJur5Nxx4jNl9tZHvggUmvsRLgrN+xmr7e3GV2zLiOFJQEy2K0WQRZKP5BvQUafi8VQZ4smzePzEs5jyMdjJAciZr173xRO+mf+vsc9IalBoLgrNyxyr4cYzGDI8CYhMz/AjH/FzHzokJTpQuctHvTskGR2SvEwOIJNMDuQRT8iZBeP3bfPO3NXjrhOOltML6/NE8zh3PfJ8ormy77uqTzRPIh+RxztkGZYXATFzkp7sJ1ktYREkHXXokES7XZ7Fw7N4ihtPyJNbGk03d+n588ZylY873r6tQp3b3yVXGe4AlPauh6d9szyue6x4FkgmHilCP+yUi3bQ0ND0fspHoYoglWdRKx11/MRT+cWTDkk8i4fJgeTy0a/JAciT+xXqJUu+etx9+f+q8DOStk/23aHQPNkECIXm/YsVrXi9CMhQY/jJ4ZQDTRFkukEv7SU+ebJKRx1P8RQdknqkzUwOIJODmRyAPFlrzr38+q8c97e8f5EtO/Elkr0ukVxkug4XqGWrN/now7M96t5eN1msuAOSgUeWYIXOnhxrEKFDEh2S6JCUm3zQbtfP5ADP4qlKPCFHxpyCV1//xeMW5i4f95y4hZx9edNvBIXmmfZdlkLzasfqSfb7Y4cZSjIKiE0REIogByoftNutVjzlO55MDniTSSYHkI/60TSz11/7pWMv6I/q2Gcl7RzvO0Ohedd9l63Q3HespP4Wmnd/b0Oz/vkEhpOMAhKYe1Kv4NW7CDLvDkkZ5aMfHXW8xLMOMlmSeDI5wOQA7XZrKR/O6c3Xf/mE8/rxy2zZia+U9KbUSXysCQYKzVPvm0LzbLEKwicxpKTjkRoQc3pytxOx9kWQdEiiQxLtdis/OYBMFuT8hLwYd05HX/vF43/YF/m4452Plya+RqF5xn1TaF7cWFm88gWIcLfJ/+FMT6YIsvsXn6LWhPJR2Ha7demQVB6ZLMrkgMoaTxUrnshHIRmT3Ly+yYeNBtLE/0q2TfdvCk8077pvnmhe7Fg5PYmhJYOAzD3vvIbJHp+XfNAhyY98FKWoFZmsjkzmGk8RTyYHkI+CsNqcO/K6Lx330779xjtW/IdkL0r9XaLQnELzMsSKOyCpGZKkNf/Y9vFSOJyffNSl3S4dkionkznGU8Szj/HMWz6YHMgsk5AT7i45N+f6Lx57Xb9+o9114osVhh9Pl9DmtOSq7u11u8pHhn3XfXmcuAOSSUDCifAJzhVPPmJkLD437Xhi0W63iDKZPp4qVTx5Fo+feCKTxY4n5CQffwyHgjl//Nzb7uibfCw//klqht+T1EiV2KW24Kwz6WmTWc/7Tlxonn7ihWd7+IiV4w5ISh6uAQlsx7SXan/JTcyXKWrNusOBxVOVjGfeHZKKKR9MDjA54C+ekJN8/Hza0Ibn91U+lp00Q039SNK2iZNGy0s+CtOytfvrke1185KPoi658rTMLPItnr8Hj/5zR7v1wOmMN8kZkiQnt0O8C2KSHIQOSbEGnKTJKh2SRIckJgeqMjnAs3ggDw9w0hnXfunYj0iub8Ewk9Md6/5H0r8kTux4ork/4eKuR79j5bRh1s6SbmLoSUaw8YA+1tcFkQ5JXdONgshHUkdCJostk54nB2r7LJ7+xzPrtrTbhbZo3Bs4HXHtl47/cD/lQ5J05/GflNNrk335KDSn0LyssWr5QaP1OXoQl413QGwHk6MIko46heyQhEz2eXJAaePJs3iYHIBB4aTL1Zh4/R8+/867+q49d57wJpl9LP5JQaE5heaqznNYjEL0NGx8DojbgSJI2u1O/bVWnHiqzB2SKi6TTA4UVyaLOjkAPhl35j5y7WNXHHrtIORj2QkvlNmXN/1C8ERzf/LBE81j79tbrBI+h8VpJ4ah5DzcBcu0ox/5qFmHpKTJTcx9027Xg0wa7XaZHKhuPFXqyQHwh/tjoOab//DlE5cM4rfbshP2kgt/KrmRWIkfM+n+PnPPyRaeaJ553xb7M+3AWJRSQCTtMEj58GEUdEjynayWv0OS8o6nV5ksbjx5Fg+TA/7iCV4Sf2m9c3b6+L3bnLL0/Hljg5GPE58qF14oua0oXk5z4lJoXplYOSEgaQRkdHQ0+I30mLSJFh11YrtFcvmgQ1KNZLIuHZJUzHjKdzzrIJNcQAckHxcqCN593ReO/evA/oY73vp4KbxE0o6Dm0n3kGinHgtzmklP8nqp7nqUNVaxRXBHQXIBWbz587YLmhpOkyfRISnRgcpdPmi3i0wik8QzTUbbl/EWsnKz5D5y/ZeOO3+gArTi+O01oUskPYlCc5/JbIJ9l6XQPHOseg3qBVkexx2QdAKiMW2/6fNKa1IESbvdwslktnjWQSaTHg4mB5gcKEg8IQv3m3TG1uum/deCb75p/UDl4+63PlbjulSyXeNOIHhNlHmiuT/h8iIfVXqieaa/67Fmcs4xMCYSEDfc2FqhJZKP2BfPohZB0lGnkO12iaefePIsHiYHkI9KsMZJn7dp0067/jNvenDQf4zdduyOmnCXSDY7n2S21xhHobnX49nzmFJonmDfI/rLK7aRfvJPhq0EAqLQZiVNVmvXUSf2V5EOScWOZ97yUZcOSchk3SYHkI++8qA5+3LQmHbOtZ97871F+IPsrrfvrHDiMpmeko98UGiedHzjrkfBYjU0sYMkBCSJgATObWUWJoxZzdrtDrxDUt7yUZcOSchk5SYHjHjSbrciON0t2Zc1Mv0zRbjj8UjU73jb0xVOXCrpCb0mDlInw6kTWgrNE79OrHJaHhfsKGkpA1kCAZFN3gHJI1lNmkTQISn2p6FDUnE7JNFul2fx1H5yABJ8kRc4s6+O3bftjwfVUrfjH7fs+OdI9gtJ26c7byk0T71vCs39ylzesXI8CySxgJi0ZfzLPR2S6KhDPLPJZFHiybN4mBzISyYhBsslfdeC4GvXD7Cdbtf433ncy2X2PUmbJU9omUlPve9KLbnKIjUlixUPI0whIM62chZHGumok27Gwr989KVDUg1kstjx5Fk8TA6UMZ7QhQdM7pfm7Pxttl9xwYLR0Ymi/qG27Ni3yvQlPfqwYk/JbK9zgUJzr8ez5zGl0NxbrEzbMsQlFJCHl2C5DKbYO8C02+2HfHjukKS08SxPu106JDE5wOQA8pFrIu/0l8D0awX6dTDurlzy1ePGC/332tyG7tzmDEnv7TVhkHz8p3g5+ZhGoXnhYtVpMxdvNRG0CEggbWlJ4udLPvpSBElHHTokEU8mB2o+OdCvZ/GAJN1mclc5aWFTzUv/9MUTbymNLC17yza6Y+j7cnpxcrsu6pKrEs6k+9g3heZ9XB73yA8RkKQCYnJbdo8fHZLoqFOQeIoOST3S5vJMDiCT1XoWTy1xtzvZH032Jym4zixcfP2XT7izjJ/E7jhub0k/lrRL8mspheap902heZVitRVjYkIBecTa6JBEh6TKyGTKDknmO57IpDeZZHKAjlf95QFJ98rpn850n8nukIJbnbNbnYW3htNm3HxdgVrlZjqHlh17tKSvKbLYnEJzCs2JVcz3z2LYTC4g0+mQpIJ01LFCygcymTaeKms810u6xUm3mnSfZPfJuXtd6O412X0KwrVmbr3UWCdJgYUrJxSE8X7JhvQHz+Wzvcu4Q5d0z+v7Pcyv97BFtRlpNlaNNZrNsQ3TJm76+ltW1+Ez27KTZihYd5rM3uU3me01nlFo7vV4EqsU17xcYrUVSpFUQMxGWi+UdEhK7Qq9k9V+dNQRMkmHpNgv3yXpepOuk7kbXWC3jI/bLUs+8/rlDI0AFZaP2982W27t92Xa029CW8fi5Tre9ShrrBLsO7koUgOSVEBMbtglSW6Ur3wkOwGy+AQdkvoRTzok9Ypn3jL5yA9WmmyRk1toZr9vOLt+8VlvuIchEKBG4mFyuuO4d8jpDEnTk110KDT3Kx8UmvuNVZ6iGOu9CEhSAXFmI3IufjJU1CJIilrTyUfqeOYtk3XpkJSbTK406VI5XRHIXfW424b/dP7585oMeQA1lY/lxz9Jd9pX5XRo5GDDTLpHQaDQvIaxmmk2t+Hc+Vxn4wqInBuJndrQISn5jmm3i0z2K57SLXK61Mz9cvUWQxctHZ03xhAHUHPxMDndedzb1LSzJM1MltAyk5563xSa1y1WTreNz5T0IKNOXAGRhuiQ5E8+6JA0AJnMMZ4qfjxvcNL3m9IPrjnzmL8xpAHAI2PHHW97uu4I/ltOz/ebzPYawyg093o8iVVCqRlQrNav3woBSSAgJo3QIYl2u/nIR/p4qlTxtH7H83Yz/d9QI/z+wtNffz3DGABsMm6seP3mmtjsY5LeK6dpfhNaCs2TJbMe9k2s/Mpc180y7HvINmf0SSAgko1kkUg6JEUkq8q8w4HIh3+ZrEv75L7IRyjpcklfffxtwz+mngMAIoeRO487UhP2OUk7JxycRKG5b/mg0NxvrPIURQ/fA2sMMwIlEhAlOGB0SIqVrJamQxIymVc8vcmH03IL9a3A9KXFZx9zO0MWAEQOIXcd+y8K3dkyHRj9DBpm0ik0z0HmiFXLy8EII1EyARmJd8zpkNRf+UjqSLTbLbZMJj4cf3ZOn9ty3db/e8HnjtggAICo8eLOE54ha35MoTtGUpA8oWUmPfW+KTQnVptsMoGAJBQQ500+6JDkMVktQMerVJkzMpklnia3yMxO/81Zr/2l5EwAAFHDxh1vfbzU+H+y8M2SG/KfzPYatyg093o8iVVCqRlkrDocU3MISEIBGVf7XRDa7Sbf8cCKlPNut5sgnsozntWWSZMWmMKP/+bM1y16+CdHMzoBwNQhY8Vbn6zm0Htk9jZJM/JJaCk0T3oNotC8n7FKsO++iiICkkhATGq6ssgH7XYTnUJliCftdvUnk33y6jOPOZ/hCAA6DhfLTthLzt6vCb1WsqHuG1NoTqF5nrHyvO9SFZp3ea0hitCTCIiTJtKdsFmS1RQpZlHb7aa5kBSg3W5R4qmixbN/7ZNvkvSxxWe+9scstQKA6LFldEjL736pQjtRskNjJWfMpHtMOik0J1YJYsUSrGQCIqemTHRIirlBoTokZZl0qWQ88263a5nlw6Q1TnbWluu3PvXh4nKWWgFA2zhx27E7qtF4g+5ccYIeaaebcXY20/WHmXRvMjdQUSRW+cYqREASCYjZxNQ6dDok5SUfg2m3W5R41lomzTn3w6Fxve/Kc45extADAJsMEMtOmiG3/qUyO0ZOczZdZkXxcrLrN4XmhY1VIqkZZKyUfHmcCQFJJCBy47TbHaR8JB1jB9tuN1s86yCTkSxVqLctOuu1VzPkAMCjY8jchpY/5mCF4dGyda+QNEsuYQLFkis/nznWdYdC8/7FKsG+CyOKLMFKJiCmZmL5oN2ux2S1XO12iWeieE5I7uwt1215Ms/yAABJsn++c5bWNV8shS/VnTpCCh/zcO6ScLyn0JxCc5Zc+Y9VpqWMkExA5JqKKAIpXbvd2F+XsrbbTfqnljWeectH3+J5fRDYWxaedvQShhmAGguHzW3orm33kgUHSuEcrZt4vmQj6ZMkZtIpNM9B5ohV9lg5m2DESyQgNp5vsppCGUrZISlv+Ujf8apc7ZNLL5MTJvvPaZvtdOqC0YMYjADqJhy3vnG6hmc8U07Pl+kFulPPl7Tlo2NEXst4mElPvW8KzYmVj1iZuOYnFJCxZNkfHZJifxra7Ra3fXIO7XZN7lYX2jFXn3UMtR4AVRcNk9Mdx++kwO0muWfKbG9Jz5TTrjINeZ/5pdDc4/HsldASq3rESn6XxzmHgCQTED3U83DTIYl2u1WLp7zH84eNIDx24RnHPMCwAlByuVh20gwFG7aTc4+RbHvJtpOC7RSGO8u5p0juKbrLdlGg6Y+MA07q3NKe4uVM++auh1geVyRR7PBa6MYZPZMJyKrBJ6uqc4ekLnul3W6x42mStF5mJyw+85hvVioBs2OHdc+WT5TCXWTaWdIOkraTtJ3MbStnW8lpWKECOW3JUFqb1Lzblyaj2GeZnQ3jf4T2TZ05SVtt/NfmkkakMUmu5ddutAvnIv4eipf9JbO9EloKzf3GyvO+a1Fo3uV1xxKsRAJi5lY7Z/5q+2m3m3npVW7tduMfiIzxVE3iqTtM9qqrzzzmt+UVDTndc9KTpeCZCt0z5eyZkvbQ3XqCFA5FD7ItMXMMoohH1oTAx+ysi58gJW1zm3oipGCzs4WJVR7JbFlj1euYUmheilhNJgoWIiBJBMQFtrpjgpVmtlxl7pA0ePlI98fSPnkA8byyOaR515xyzN3lEo65Da14/K4Kgv0ld4ju1oGSPWYTsQDwltAyO5vqdQrN+xQrD/um0JxYTb5ODUgyAQlNq5wv+aBDUmb5qE+7XeUqH3nG08k+M7zZjh8oS5crW3bSNhpyB0vuSN2jl8pp61R3tgD5iJ0gZU2SmJ31Kx8ULxOrusZK/Vse56gBSSQgztzqKTOfdEhKfpmm3a4f8/AkHzm1T246he9ZdMYxny982njHR7bV8IZ5kjtKpv0lNdJ+twHxSCYfzM6m2jdLrogVy+MKJIopYhVyBySRgCgIV8ucB/moS7tdK6R8+DDESspkmtQr+u9a03D22oWnH/OLwqaMf3vnNM2c9grJXieNvVjmhhniwK98MDvrN0ESheaJr23Eqh5SX8KljG4CAUkiIBa6VVMbe5S5Q1JG+aDdrmif3DamSCucdOTC04/+fSHTxftOepzGG2+TsxMebhkK4Fs8siYEzM4mS5AyJHbEikJzYpWTKPZ6b2M115EEAhI4rbKEyWqykyeLT5S6Q1KCT5hDxyvaJ/uK520uCA9eeNoxtxQuXbz7A/vLwg9qQi+Vs4DhDAYjH8zOpnqdQvM+xcrDvik0J1axfrdbxbUkgYAo0KokLdQ3DQMdktJ9kRPKR5q6j77IZOXbJ/91aEKHXHnOMcsKlSre874DFOpDsvClDGGQm3wwO0vxMoXmxKoUsVIxlseNN1ZyPUkgIGEY3OcsjJ2w9qdDUt7yUYyOV7TbLbRM3uikQ64857V3FSZNXP6+wyV9WqGexdAFuYlH0otu4gTJ876ZnRWF5sSqFFKfx12/4sTK9M81LMFKIiBq6h4FfZAP2u0mdwTa7Q4qnteONO3FC84++r5CpIkr3v9cyU6VdBBDFuQvH8zO+k2QRKF5IgElVvWR+kotZVzjDlpAEXoSARlqTtzdDHo/zph2u77loyjtdtPHM2ui0994xpaPP080xg5dfMa//3PgKeKd732CGu4syeYxVEH+4pE1IWB2Nvl4yUx66n1TaE6schHF1O+l/iMhwQWjR6yStC5+slqhDknZdjgQ+fBhFPVsnxxrnPl7Y2jixb89dbDyYXbssK1437vVcEslIR9QAPmw5AmtxR2XEu478exsWvmw7Ps2j8eTWPXYbJCxshxjZcTKq9R3iVWmu79G/UdChjYe0nuctHNRk9V0dt0jWfW29MqU7C+m3W5B2+0uCwMduviU1y8faIp41/teoLv135KexvAEucsHs7MULxd+eRyxKk+s4kh9lgTIihsr4w5IKgGRdI86CEi6ZFW02438M2m3W1CZXC5zB/3mtKNuG1h6uOykGRpxJ8v0AUm01IV8xSPWOEChecpExI9weRVFCs2JVZ+kvq6xcuIOSBoBcWZ3y7kuh5YOSem+2ElOMGVot5s0H6Hdbgtrg1CvWHjWUTcPLEW8630vUKBvyLQLQxL0Rz6YnfXymWMf0xrMpCcS0KrGqqxSX+BYleeZOdwBSSMgcsE9HRNeOiRllg/Lvd1ugrsfyGQrTTl39MKzjrpmIOmhzW1oxc7/T84+LqnBcAT5i0fWhIBC82QJUoYkh0LzGhWaE6u+xSo3qbf7ufakERDZ3d7kox8dkmLKRw4dklLIR9LDUPJ2uznG07tMmp20+IzX/mwgKeIdH3y87ml+V85ewDAExZAPZmdTvc4Tzf0IV2ZRJFb1iFVRpT4YaP1oaQXE5O527clmldrtprmMF6Ddbgyj8LmpH5ksSftkJ/eZRWe+9nMDSRFXvPdgqfkDmbZlCILc5YNCc2ZnKTQnVr7FOy+pL+tSRqcVXINSCIizcIWco0OSMvzyzPIR82Xa7SaO0dQ7H7p8ePPHfmAgKeLd7ztWps9LGmb4gVzFI9a5z+xsqn1XbskVsSpPrAog9cQqKlZ3cS1KISBB4P7RtLTJqmi3Kx/yUZSOV9Vvt9sYahy1YPSgvj6x1G4dna7pq78q0+sZdqA/8sHsrJfPHPuYUmhej1iVVepZyphrrFyTOyBpBMTM3fboF4AOSVlygCK0201m/rWSyfUK3KuuOnXevX1NEW//8Naa9tBPJL2QIQfyF4+sCQGzs8kSpAz7pniZQnNiVQ2pD0LugCQkkKSLPnrYCknr6ZCU9gKS5Eut3NvtWmr5qHY8nfSOxacd9bu+pon3fnAnTRufLxnyAQWQj6I+Jds02Ceap5UPnmieKVa1eqI5sfIr9bk90Vwp7iiGWrn6bq5NKQREzpnMlqW5CNJuN8ufWqB2uyqSfPiPp3M6f9EZr/2fvqaJK96/h5rN30ram6EGcpWPRy66aRPtOBddT/s2eVwaYspvaYg9fExzWRriQYpyiZVixMpyjJURq0LEKmept7yk3tNERuRbur73n27fJeNcn9IIyMPclugi2I92uzH3XZx2u+k7Xg283a6nJx0WVCaXORce19c08Z4PPFOy+ZIexzADfs4sZmc7JkjMzno6nkasChEr5RirmPvOLVZWxVix/CoFQ4/+T3d7vAyxzB2SiikfMYzC56aDi6dXmYwdzwlzOmrhacc80D/5eO+zFIaXSLTZhXy0PsYAlj4RodDc7/EsW6wSX68oNE8WK8/7JlZFiBXPAMkiIE66PVaaS7vdjPIR82U6XiXeYdT45sx9cvEZRy3uW6q4/H3PVqiLJW3F8AL5iUfWhIBC827jodd9U7xMoTmxqrrU0wEri4CY022Z23Wn31il6XiVWT6q1263KPGM0I/r1q9ceWr/5OOk2XK6APmAwcoHs7N+5YOnZPuNVZ6iSKzKE6uySn1knG/hmpVBQALnbg+tt2lWv91uvLsfubXbTZxka+DtdgsazwkL7M1LvnpcXwrD7O6TdpEFF4tlV5CXfDA7y+wsTzQnVr7FOy+pr9NSRmd/57qVQUCawfjtLmwUXD5q0G43qXekEaEaxNOcnXL1aUdf25d08d737KhmcImknRhSwLt4xJIPZmdT7ZsnmhMrljISq6zHM3AISAoe6YK19S7r7pS0odNB9/Z8igzJKu12ozbNs91uzPO2ePFcutXarU7pS8q47KQZajZ+ImkXhhPIRz5oAxr9Gm1A/clHHWMl8cwcYuUlVhs2ICBZBOT8efOakv6ezGTjf7EL2iEppXzUpd1uyvbJ5jueieTDFNrbLvjcERtyTxlNTsPB1yU9l6EE0osHbUAj900b0PxiVabnsPgU701ixTNzCh+rckzAPOD2Wti3LpuVFBBJkrObopLV8rXbjdchqd/yEcMofG7aUT4q2m538pVvLj7r6Kv7cvbc877TJB3FMALp5aPbS8zOZv7M7YMGM+l+Za7rZjzRnFiVVeoTfce4+5GSoU2PqftL/slq8g1otxu1aX3b7XbZdnVjqPmxvqSOK977Gpk+yBACXuWDQnOKlyk0J1bejmccqc+S1PDMHIX6G9czDwJiTje5XnfpEn250wxe/uWjL+12e/wtg5OPusTTJOkTV53y+twfCGR3fvAZUvOrDB/gTTxindsUmqfaN4XmxIpCc2KVW6zogOVFQIKm3WTOX7JahY5XluqPLVK73bq0T9ZNKzcb+lzu6eM9J26hsPljSbMYPsCffDA76+Uzxz6mPNG8HrEqq9QTq9LEyulmrm0eBGQsHLtpuDFSEPkoRscr2u2WQyYtdB9ZOjpvLPczJpz+FUm7M3SAH/HImhAwOxv5OrOz/mOVS0LLE81ZHlfyCZgAAUnLJkXoC0Zf8aCku/1fbmm3m+7EoN1uzHj+/uqzjvpp7mnkivcfLbmjGTagP/JBoXniZIFCcwrNiRWF5v4LzTvHamz8Bq5zHgREkkLpptgXVdrt9kk+UiQ91W+3+8j2Tvqo5CzPE8XuO+lxkn2OIQO8GD1tQJPLBW1Au7/u9TkscWJl2WJlxMqbePPMnLa39O2ZOf+gBa9HAXFushOWD/lIvgHtdqM2LUrHq4wymSaF6x3PqxadcfQluaaRJqeJ4FuStmHIgHjnFLOzHccZZmc9HU8jVoWIlcQzcyocq665nvsj17v0DEWkjDe5VJYdw/iTJqv9aLerrPIR82Xa7eYSz9DCj+R+ltzz3mMlvYjhAjKNNRSa+/nMsY8pheb1iFWcpDJtrDzvm1ipWp3+wuu45vkUEOdudJFfvlJ3SEpw3aXdblFkMkY8r/zNma9blGs6ec8HdpCFpzJUQH4X3ZQXTgrN/R5PYpVTQkuhObHKQbyLMAFjup5rn0cBkTX/OHVlFu1249i2tyIE2u3GiqczOz3/vDL8nExbM1RAPgkts7OJX2d2tiLP9iBW5YlVWaU+51i5EAHJwJQakMs/fuSdku5L/B1IKR+qTbvdBHc/aLcbZ/s/Lzrz6AtyTSuXv3+OTK9mmIBUF0cKzT3LR06F5pljJVFo3iFWFJp7Op4Shebtb+lboXmn967Rbi+iBa9PAdl4aP8YJ4hl6JCU2Xn6LR/9aLebYzz7J5PujDw7X5kdO6zAzmaIgMQXTgrNy1W8LArNSxMrCs1ziBWF5iknYP7k3GjItdCzgDibrOwvfYekmNffInW8SpgEpWm3O/D2yZll8q4ND676v1zPjLtnvV2mZzBEQLLxhdlZL8LVfkyZna15rMoq9Twzp7ITMI76j6wMRQqI7HqrQIck//IR8+Wqtdv13j45q0za15Z89bjx3NLL2z+8tTT+cYYH8HfRjXNxyzKWUGhOrBLsm0JzYlW4WMWZgClQrMwQkDwExOSuTza7XpQi5bzb7Ral41X92u220FRT38j1rBgZ/5ikbRkewE9CS6F54tcpNKfQnFgh9VbkWLlruS7mICDDW+mG8Qc1Lmm4dzhot5tGPpKduAnHp/QblyGev1h89jG355Zm3vOBHRQ2T5AcowPEuDgyO+tXPpidrX2sYl0UeGYOsRroBMwGDc9AQDISWQNywbuO2CCnm/zKRzHa7ab7Y/2327XU8lG/drub/NTZl3M9I8LmRyS3GUMDUGjeY0yh0JxY5RErCs2JVR6x8tvp73fuaRds4BqZg4Bs5Hqf8lGUdruF6nilPDteVfHZLfaPq2f87ZLc0s37Tnqc5I5lWAAKzZOOKRSaZ/4eUGguCs2JVUmk/mqukTkKiJn9MVayGvNiXpx2u+k7Xg283a6nprOllckw+L5Gc2x7N954r6TpDAt1Fw9mZyP3TRvQsszO9khoM+y7kM9h4Zk55YmVBhwrT8/McW4x18rsDHV6wZm7Xq6MHZLykY8YRuFz047ykXvHK68y6TeeQcN9P7e0894PzlSz+RaGhLrLR7eXKDT3lyCJQvPEokihObHKGqsM+84jVrETo4LFyvQbrpc5Ckhgw9c23Xi2axftdjtsWpd2u+ZTJm9cePpR+bW9CyfeJrktGRKQj2QX3ZQXN4qXc0pkKDQvRax6CuggY9XrmFJoXthY9WcC5u9u9oIVXDOz03EJ1sWjh90j6fZkA51/+bCMt09ot5vd5wYqk4/gvpdb6mmjQzL3LoaDuooHheYdx5HKFJqnXKdPrPKJVSWXMsb8jhGrsi9lpP4jbwGRJOf022LKR7y7H7Tb7fY5ytU+2bmJ83M7C+5edYSknRkO6igfHa1UFJp7EK5NEqRBFpqniBWF5jnEKk+p99xwgFgxARO535D6j34IiOR+lzxZpd1u9D7K2m63EPG8edEZr78pv9PAvY2hoG7iwexs5OvMzlJonmtTACNWhYiVRKF5yliFQkA8MdT95fB3yTNy2u1O3TTPdru9x5Is8lGEeJrs57mlond88PFS83CGgjrJR7eX8rzoyt++KTQXxcueY0WhOYXmxKrX+1dqjx2Wch3tg4BMNNf9vhHMaEpqxL24D6pDUuL0vTLtdi3BK8nlowjtk+WCX+V2BgxPvEnmGgwFNZYPCs0pNCdWOYkihebEqkoTMG6+c+c3uZb6oesSrAWj8x6S3E3xEtaBdkjyJh8xjMLnph0Hlzq3223756pVmzWuyi8ndUczDNRBPCg07zh21LnQnFixPI6ljCxljBsrp9wehIyARPNb2u2mlY+itNtNvkFWmfQYz/lLR+eN5ZKW3vPeZ0nalWGg6vLRzZApNM8sXJuMYSUrNPcdK4niZQrNiVXpC807vdcQkP4KSFsdSE7y0Zd2uz3+luq22y1KxytLHE8zd2Vu3/7QzWMIqLJ4MDsb+TqzsxQvU2hOoTmF5knfe7vb/cq/cW31x1CMbX6X6CtY5Ha7qTte0W43d5nsEM9GkKOASHMZAqoqH2nPT9Y5J36dQnMKzYlVymQ4bawy7JtYpRRBll/5pucdkG3C9ddL2hArXa1au92k3pH0TS0HgHa7kZ/zoeHNdrgulxR1xfv3kPQUhoCqiQezsx33zexs7++Jl1hZcWOVi3ywlDHRWOQlVixl7HusnF3MNbbPAnL+w+vv/5jcVPuTrNJu1498FCeeLT9wWrxg9KCJnHJVWu9WTj66vcQ6Zy/CtUmS5Em4vMeKQvO+xYqljMSqHhMwoYaG5nOd7bOAbEwKf9MlTaTdbqpjQLvd3s7jFuX2zXeGgNRCPpid9SJcm4xbzM5SvJyn1FNoXp5YlVXqE37HnPuDe8aC+7jWDkBAnAsWd0xWUyQH1Wy3W5SOVxnb7aZJ/3KLZ/iHXNLVe07cQtJ+nP5VEA9mZyNfZ3aW5XEUmrOUkaWMnj4z3a/yIE4Ruiywq1yzQ7Laj3a7yiofMV+m3W6h2ieHTtfl8q1vTn+BnKZx+pddPrq9RKG5vwRJFJqnEsUBxYpCcwrNiZXn4xkgIDkQ6w7I5R8/8k7J/lG0Dklpk5XByYdotxtfJv95zRmvuyOXb73TAZz6ZRYPZmc77pvZ2d7fEy+xotC8GLGSWMpY0lipLLHSg1r/0EKuvQMSkI3f6YX5yUdR2u0mFYmydrwqXrvdqY6gP+T2rXduf079sspH2vORQvNU+6bQnFixlJFY1XkCRuEv3b5Lxrn+DlBAnHOLBykfsfWhX0XntNvNNZ6h3B9zSWHt2GGZ7cupXyX5YHbWi3BtkiAxO0vxcp5ST6F5eWJVVqn38B0zSQp+xvU3H4bibhg6LXS94kW73a7v9HH3pTrtdnsIrymfJ44u33xvBW4zTv0qiEfKhLXXa95m/LJcdNNPUJRzTXpZY5Vg37ksuSJW1Y9Vr2PquS6NWLW+vF6N8CKuw/kQ+w7IC8Mlf5K5lYnTh0p2vEqYQKVpt9uPjlcDlY/uf3touiWfb3zwTE77OsgHs7OJ983sbAlnZ4lV/rGSWMpY21hd6nZdtJpr8YAFZHR0NHQKf5P+wtkv+Yj5ctXa7aap+yiwTDaCIB8Bke3JaV8G8aDQvOO+KTT3IFwUmkcP8Cxl9Cf1LGUsT6w6TcA4ll8VQUAkKXRalCSwOXZIim3WtNvtIB8FarcbsVFzw8qV/8jpK783p33R5aPbS8zOehGuiHHKm8x5ixWzs32LFYXmxGqgsSrkBEwo1/gl1+T8GEqysbOoJ1NXt91u/ItpQlHPtrFK0/EqvUz+Y8lXj8up64TtwWlfRvko6jrnXudjUZ/tkdOadGLFc1h4Zk4JY+V535V4Zo5+42YvWMF1uSACMrT5tGsm1myYePR9Jex4lTQdot1u/9onT4qudGcu6e3tH95aGt+W075M4uEh0c40EUGhObFKsG8KzYmVb/mg0HwwsTL9lGtzviRagnXxBw5b4zT5dOqadLxSnh2vaLcb+dGc7svl2z5j7Emc8lWSDwrNE++bQnMKzYkVSxmJVe/fHernXJ8LJCAbQ7Ng0B2SCt1u12i3m1UmzezefHJd92RO+SKJB4XmHfdNobkH4aLQPHpQp3jZn9RTaF7+QvPIfV/v9l50E9fpggmIk11WVPmIYRQ+N01o1fFPsv6221XhZDJw7t6cvu8ISGHko9tLzM56Ea7YYxOzs7WIFYXmxGqgsSrRBIzTD7hO589Q0jdspuDKNQo3SJqWPdHIkqzGfJl2u4ljNGiZDMOclmCFbic546wvrHxQvOz/ouv5eBKrnGIlCs27XBOIlY9Yed53JQrNO70Qns+1On8S3wH5xeiRa03u6t7nIu12k59oGc+z8rXbjf5SuvDBnL7v23HKD1I8mJ2NfJ3ZWWZnzXKMFUsZixEriaWMA4hVYvlwv3Wzr/471+wCCoi06TIs2u36k49id7zyKJO94mlan8u33SEgg5OPtOccheaJ902hOYXmxIqljMQqXaxcyPKrIgtIKHdp92S1hO120+zN6HiVSiZ7xNMUbMgpEUZA+i4ezM523Dezsx6Ei0Lz6IGc4mV/Uk+heUULzTtsEPyQa3eBBeQxu6//nUkPZJWPQrXbtTK32y1GxytfMukCG8vp+741p3w/5aPbS8zOehGuTZIkT8LlPVbMzvYtVixlJFYDjZVyjFXeEzCSpEVu9sJ/cP0usICcP29e05ldkV0+yt1uN580rT7tdjv9Kwwtpzsgms4pP2j5YMbPi3C1X3SZnS1BrFTS5XEsZSxPrEoi9T4mMmLnZKb4CZv7P67fBRcQSQpNlw5KPmIYhc9NO37Rc+94FWPfZW632+k3BUEjrzsgI5zyeYsHs7ORrzM7y+wsheYsZWQpYz6xSr2UsdU91JSNs/yqjwylfWMYNi5uNMI+JKsxXy59u93kG2Rtt5t+9iZfmXSh5dMr12lEdOHNUT66vUQbUH8XXdEGNJUoDihWyqvWg1ilS4bTxirDvolVwWIVldRqvtvzmru5lveP1HdArvzUkX+T7M/JU5TBdrwqbrvdonS8yrt9cqYhImuOzB2QXMSD2dmO+2Z2tvf3xEusKDQvRqw04FixlLEYsZIKXGgejdN3uJ6XREA2vv3H/e6Q5CWVpd1uCdon50KDU963fKQ9xyg0T7VvCs2J1cCWxyX8HhArljLmEqvMheZRrNWQfsw1vUwCEk78OP73ICf5SOodab6ktNstZPtkKKp8MOPnRbjaL7rMzpYgVqpwoXmC7wGxYgLGd6yUw12PSZx+7HZdtJrreokEZP4nX3m9nG5O/P32Lh9FaberXOWjOB2vBi+TMEjxoNA88nVmZ5mdpdCcpYy5x4qljN4Th9C+zbW9ZAKykR/3zpHr0m7XErySXD7ij+vlaLebNp4wSPno9hJtQDN/5vYTltlZz6KoAs7OEquuseqr1GcYa4hVwSZgYnOXbnzcZVzfSyggpuDHeclHDKPwuWnHL37h2u2miVMB2u3mECTom3gwO9tx38zOekjiKTSPHrQpNPcnisSq9oXmUTh91807v8l1voQCsmD0yGvktCz6q0W73Vza7XqbEShX+2QYlHx0e4kZPy9JfMTYk+7vYna2GLGSKDQnVoWbgPEp3uUrNI8mDOh+VVYBkZyZ2c/62yEpT/kQ7Xa9yKTfeELR5IPZWS9JfPtFl9lZT8dTKufyOM/LDTd5C4XmfmNVVqn39B0rW6F5NNe5Pa/6I9f60gqI5EL7YWL5KGy73aJ0vKpLu13ko5jiwexsx3Od2dnsUkShebljxVJGlXcpY4Fj1e8ONY7i89ILyPxPvuJKabIbFu12s8sH7XZhkPLR7fxgdjbzZ24/pszOppfMfsaKQnOWMhKrshaaRzGmCR4+WHoBkZzJ9C3a7fqRj+K02x18PKGf4sHsbMd9MzvrIYmv6+wsy+OSx4qljMWIVZEnYLKmrfqp23vxPVz7Sy8gkjWaX5esWQz5SJF89aPdbsx9F6fd7mDbJ0M/5aPbS8z4eUniY403zM6WJ1YShebEqnATMD7FuyqF5pEC4r7Gtb8iArJg9FV3SLo0TbLqwyiK2fEq6S0F2u1CkeSD2VkvSXz7RZfZWU/HU6LQvP0tLGX0G6uySn2BlzIO8q7Ho9yi3RZezvW/IgIiSc709VTfx0rKR/INaLf7MOOcl30SD2ZnO57fzM5mlyIKzcsdK5YyiqWMRYqVz2TVfc05heQBFRKQ7RrjP5V0X5IvKO12/cmHZTx/i9Bul3sj/ZKPTi8xO+vlM7cfU2Zn00smsRLL45JKPUsZqzMB450JOfe/5AEVE5DzR+eNmXPf637hyeErR7vdzEuvcmu3i1oUTDyYne24b2ZnPSTxxCqd1CfcN0sZWcpIoXlK3E/d7lctJx+omIBIkoX670zykWq2PM+OV7Tb9RPPJLtnEVY+8pFW4JnxS7VvZmcrECuJQnNiVbgJGJ/iXeVC8+iE6avkAxUVkCs/+W9/ktxvCt1u1/x89Wm3W4R4Qjb5YHbWSxLfftFldtbT8ZQoNG9/C0sZ/caqrFJPoXkKbtEeiy4jJ6iogEiSk52V2HKL3G43TcerGPu2LG9XddrtIh95igezsx3PaWZns0sRhebljhVLGcVSxiLFKnc+T/F5xQXkhcH1P5H0t9hfP9rtJj7hq9Jul868ecpHN3NldjbzZ24/pszOppdMYiWWxyWVepYyVmcCpi+s1vr1Xyc3qLiAjI6OhmY6tzgdr2i3W8R2u5k6mEG6iy6zs9mlaMrYwuwsheYsZfQriixlpNDcO//j9l2ykhyh4gIiSWNrxr8p6V5fyWr8mYuE5122jVXZdrs9/hbko6jykfa8YcYv1b6Zna1ArCQKzYlV4SZgfIp33QrN23Fqyuzz5Ag1EZCrz523Ts6+6OsrmLrjldHxKlW73dTtk3OWSUgRf2ZnvSTx7RddZmc9HU+JQvP2t7CU0W+syir1FJp7ujz+zO25+GbyhJoIiCQ1xt3nTLam+3c7545XhZGPYnS8Kla7XeTDj3gwO9vxXGZ2NrsUUWhe7lixlFEsZSxSrAaAc+eSK9RMQC479ZX/lNO3BiYfns4D2u3GlQ86XvVfPjq9xOysl8/cfkyZnU0vmcRKLI9Leq1mKWN1JmAGJR9a4mYvXEi+UDMBkSQXDJ0jaSJbspoiMetXx6sY+6bdbtZ4QqKLLrOz2aVoynjC7CyF5ixl9CuKLGWk0LwvBnIOOUNNBWTB6Mv/LtO3syWrFep4lW2HA5EPH0ZB0blP+ej2EjN+XpL4iPEk3d/F7GwxYiVRaE6sCjcB41O8615oHs3tWrfufPKGmgqIJDXMPiHTWJnkI9bMRVL58Lb0ypTsL6bdbvXlg9lZL0l8+0WX2VlPx1Oi0Lz9LSxl9Bursko9hea54dwpbt8l4+QONRaQyz/9qtsl+58ytdvNVvcxwHa7aTpedflbkI+iiAezsx3PX2Zns0sRhebljhVLGcVSxiLFqhD8Q3rgm+QPNRcQSWpY89OS1sZPf2m3m24GKOEgkbrdblKnQT4yHLwu33lmZzN/5vZjyuxseskkVmJ5XFKpZyljdSZgCoTTKW720jFyCAREl3963p2Szo71tc613W7vyZQs8lGcjld5t9tNcPcj6YA1wYnJ7GyPfTM76yGJJ1Z+YyWxlLFDrFjKWIMJmELxD+nBb5BHICCPCulQ8wxJy73Lhw/z8CQf8a/ftNst9exK7vLR7SVm/Lwk8bHGEGZnyxMr5RirPKWepYyVnoDxKd4UmsdMNrn7gYC0sWB03kMm/b8MeW3HAa5w7XbTpJ21b7dr+Aezs50vnMzOFjxWEoXm7W9hKaPfWJVV6ik07yPLNDLrm6T3CMgUrhz60zck/SE6Wa1Qu11vayjzlI+kf0J/OpjVVzyYne14zjI7m12KKDQvd6xYHieWMhYpVoW9lJ7innbBBtJ7BGQqo6OhnI6XFGbqkES7XQ/yUZSOV5Y8RJWTj04vMTvr5TO3H1NmZ9NLJrESy+OSSj1LGaszAVNobtb0WdR+ICCdueKTr/qdTP+dXj6K0vGKdrvJLxYe/LBS4sHsbMd9MzvrIYknVn5jJbGUsUOsWMpYggkYq+KSq0dxei93PxCQnowNNz8i6V7a7aYZlFPMVuTcbtf6IpNVk4+0EseMX6p9MztbgVhJFJrXJFYsZSxQrErB5W72op+T1iMgPbl6dN79svCkNEkb7Xaz/KkFarcr5CP6osvsbOYkfpOLLrOzLI9jKWN5YlVWqafQfGA4NWXBSQIEJC5XfnrudyX7SeykrR/tdmPuuzjtdovS8Srv9slVEQ9mZztedJmdzS5FFJqXO1YsjxNLGYsUq9LwNbfnVX8kpUdAkqVkFrxd0v1xk9Xc2+2mqftI/JkHLx8xjMLnphnjWRX56PaFYHY282duP6bMzqaXTGIllscllXqWMlZnAqZUrJaGP0E6j4Ak5qpTXrVcZicNRj6Sb1CVdrt0vOqneDA723HfzM56SOKJld9YacCxYiljMWIlUWheikvsJ93sBStI5xGQVFx5ytxvmfT9xOdoto1Vmo5XmeWDdruDk49uLzHj5yWJj/h+pfu7mJ0tRqw04FjluZSRWJV2AsZrrCg098RfNH3WZ0nlEZBMNIYbJ0q6LSpbr3673Xh3P2i3WwH5oNCc2VlmZwdYaJ4iVixlzCFWeUq95yWttYhVKQnl3Ntou4uAZGbB6CseDBS+XlKzWPJBu93ofdBuN/FAX/jZWQrNp4qi530zO0usKr88Lk6sjFgVIlYlxulsN3vhQtJ4BMSPhHx63kIn+w+f7Vlpt9vj/f3qeFUb+egmYMzOphKXbseU2VlixfI4PxMZsUSRWFVnAqbU8nGTVoYnk8IjIF654tOvPlVmP0qc9KXpeBVj35bxXKbdrr/2ycUWD2ZnO+6bQnNiVbhYSdUtNM8YK5YylkDqrY5LriYJJfdWt9/V60jhERDfamvNiWlvMrkbc5UP7+12rZDyEcMofG7aUT4s5TEsh3x0e4kZv+TvpdC8GLGSalNoTqxYHkeheUlwn2HpFQKSG4vOePlqWfhqSav8yEfyDWjmQCebAABPGklEQVS3G7Vpnh2vylihzuxsx30zO+vheEoUmpc0VhLL41jKWLBYVYJb1NzsP0jdEZBcuerUeTdIbp6kiezJakXb7fb4WwYnH6q4fDA72zWGzM76ES4KzcsbKwrNxVLGosSqMowrtNe5vS9eQ+qOgOQvIae8+iJndnySZLUKHa8s1R+bpONV3u12/XUwK6Z8dPvczM5mkqKoY8rsLLFieVz2iYzYokisqjMBUyk+6PZafDVpOwLSN648dd7/mHR2f+SjGB2vcpOPpN6RZnCrrHwwO9t138zOEiuf4u0lVnlKPUsZSzsBQ6F5CbFfavai/yJlR0D6zsJTXv0BSf+dbOii3W66BKnP7XZLIx/dXmLGL/l7mZ0tRqwkCs2JlR+pL8kEjNdYUWjeB/6q8ZHXO1evD42AFAZnO/zNjnfS+bTb7Zd8pEjSK9lul9nZjvtmdtbD8ZQoNC9prCSWx7GUsWCxqhyr5fRK96wFD5KuIyAD4/zz5zU3X73F6yVdnCiNpd1uSvkYTMer4gytzM52jRuzs36Ei0Lz8saKpYxiKWNRYlVJQpk72s1etJRUHQEZOBd87ogNWzy0xcsk/TzWSVrUdrvKKh8xX0Y+MshHp5eYnc0sRVHHlNlZYsXyuOwTGbFFkVhVZwKmsrzP7bnwl6TpCEihJOT+aZor6afZ6j4G2G43TcerLn8L7XZ9igezsx33zewssfIp3l5ilafUs5SxtBMwFJqXHDvd7bHoM6ToCEjhWDo6b+z+aXqNnM5PJx91abebVCQG1/Fq8EMsM35dY8bsbIljJVFoTqz8SH1JJmC8xopC8z7zPc1e/BHScwSk0BKy8JS5r5HsjLJ2vMq/3W6Cux/IR5eLLrOzmT/zJhddZmcpNGcpo99YiaWMtYlVpfmx1q9/Ix2vEJAS4Gzhqa/5kJx7j6QwrnzEX/FAu91u7/QxQmTvYJb1tzM72/Giy+ysH+Gi0Ly8sWIpo1jKWJRY1UI+jnL7LhknNUdASsPCU+b9l8yOkrTGn3woZ/moWbvdXNon+1WfTYPM7GwmKYo6pszOEiuWx2WfyIg9HhOr6kzAIB+AgBRXQk476vzA3PMkuyWWfGRJUPsqH0n/hLJ2vOrX4MvsbNd9MztLrHyKt5dY5Sn1LGUs7QQMheZV4X917/BrkA8EpNRcefq8P425kefI6ZKe8uFt6VXe7XaL0vGqCu12mfHrGidmZ0scK4lCc2LlR+pLMgHjNVYUmg/omny6Zi96kztowQTpOAJSen576iv/ufDUeYfJ3HskjdNu14d8KOd2u0mbCHh2EmZn/XzmTS66zM5SaE6s/MZKLGWUKDSvBmNy7ji3x+IPU3COgFQMZwtPn/dfoWx/c7o5P/koQMerVFJUpI5XA5YPZmezSVFkQptBXJidjX6dWBUgVgWQ+txixVLGYsSqFvxT0kvc7IVfJQVHQCrL4tOO+t3wtGn7yvQ/6lkEUpOOV8qz41WZ5IPZ2cxSFHVMmZ0lViyPyz6REVsUiVV1JmBqwe8V2D5uj0XzSb8hqPoHXDD6igcXnX7UW83cgZL+Phj5KErHqxTyYX1ot9v3zrvMznoRrk2+J8zOUmjOUsZcYsVSxhJIPYXmPQ+8c5+Ve3B/t/vi20m9oRYCMsni019z5fCM4FlOOkdSz24LRZCPGEbhc9OEMznxB/bBtttt/7XM+CV/L7OzxYiVRKE5sfIj9VWbgKHQvMDcJbOXuNkL3+1mLx0j7YbaCYgkLRid99DC0496XyNsznZyv0o+OPS33W41O16lWZ/m1UBSXiSYnZ36HWF2lkJzYuU3VmIpo0SheTUwOfu2XLin23PxxaTb0M5QHT/0lWce8zdJLz3gA//3UgXuFJPtOeWamjnNpd2uxf4jBztGpk+QPEtN4hm/tBddD/vONDubNkFKuW9vs7PEqvqxSrDvXKSeWFU/VrXgLzJ3gttj0QLSbOhEUOcPv/DMo3658PTX7O2cmyfZTd3lI97djyK020124UmYC6XfWAMtOvcuH8zOet03s7PEiqWMxKovsZJYcpUb90vuw5o265luz4XIByAg3XG28LSjzh+eseMeJnu9pOvTykfswSfndrupO15Vtd1u4osEhebRF10KzSk0p9A8l1ixlLEEUk+heRfWyOlMhe6pbo+Fp7unXbCB3BJ6McQheJgFowdNSPqOpO/s/8HvHWrOvV+mQyVzqSdwfMlHvzpeFUY+8nwoah2XXFn2Y5JLguT5eFYiVh72PZBlPMSqPLFKuW+WMmZ4f2V5SM59XRo61c1esIJMEhCQjCw64+hLJF3y3A9892kNp2MkvUlyT+w9jpa73W4+6X1S+chzIA8luZRJEuuc/cqHBynKJVa9jqmnfROrGsdK+dyhyl0UPX8PrA6xqix/l7MvqRl8w+218AGyRkBAPHPNw8XqoweOzv/U2Lq75pi5oyXNcabNfcpHDKPwuWnHxCX3jlcx9m09FCEfmJ31m9AyO0usihyrmPvO464fsaLQvLysl/QrKfyaZl99iXMKyRIBAcmZjcuzfibpZ/uM/mKzaWsfOsJkc53pMJO2pN2uj45XNqDhnNnZqS8zO1uP2VmWXPU1VixlZMlV+RiX3OWSfV/r1//U7btkJRkhICADYsnokWsl/VDSDw8cnT+0fs2dz3XSi03uxU7at/cxLUq7XRWo49Ug5IPZWb8XXWZnk58DBVxylTlWeYoisUomoAWSeu56lIl75OwiKfiFxoYucc9a8CCZHyAgBWPjnZFFG/87eZ/Rr2w2bfUW+6qh55npeU76FzM9IZF8pBnoUslHUYrOCyIfzM4yO8uSK2JVmVjlKfXEqkJMyLkbFdpiyS2SwsVuz8U3k90BAlIylowet1bSlRv/kyTt86HztpzWnNhdCveQ3K4me5LknmiyJ0raPrN3pBkYC9RuN/LalGsRCLOzfi+6zM72TxSJFUsZxVJGCs2TEsppuUy3SW6ZnG6WhX+WNW5QcP9f3OylY2RvgIBUUUpOn7dS0tUb/9uEA0e/MX1s9chjFWjrCWtu40K3tQvcNmbmnGwrOedkasg0a+qIMvV/5Zqwu4TDchhv31N26yTXtGV9CQ6zsyy5KkOsnO6Q2Xe7n1NZxoHQ10nUYZcu4+92+b3X8vi9Ye+PneZ4hDnG0sVNtGMekzDJexPG0nn+HuR2XvWDYGMHqtDkggcVWlPSA5K7X04PyIL7tWHNCrfvknGyMSgajkMAdcGWv3udpOn+ktm215mdZXY2n1hd5Xb5vxdwBgMAQFXgDgjU0ER8JIYUmicTj5T7ZnkcAAAAAgJQfvHIkGhnTmgpNI/1OsvjkA8AAEBAACpoIdmSRgrNaQPKXQ8AAAAEBMCLXHiVDwrNY79GG1AAAAAEBKDeYtL2OoXm5bnrMeWftAEFAABAQAAKLR9FLTSnve5AYpWLfPDkZQAAQEAAEI+eCW2BZ9IpNK/IkivEAwAAEBCAmsgHheZTX6LQvFixAgAAQEAAKiAeWeWDQvPYr1FojnwAAAACAgAUmsffb8p9U2iOeAAAACAgABSaT32JQnO/8pH1rkfIaQoAAAgIQPXlo453PTxIUdcfseTK6/cAAAAAAQGognhkTQwpNJ/6IwrNkQ8AAAAEBJCPFAktheaxX6PQ3H+sAAAAEBCAEssHheYUmpcpVgAAAAgIQDU8JHtiyF0Pv/LB8jicBAAAEBCAysoHheZe9k2h+YCePg8AAICAANREPig0n/ojCs37GysAAAAEBKCsJpIuaWTJFYXmA4sVAAAAAgJQAfHImtBSaO5XPlgeBwAAgIAA1FZOuOvhVz4oNE8Yq63s5lcdMpjzYmLTfzYH+LtLs+9eNAf05wzgMzd0nXvGgvu4vgAAAgKQJmmk0NyfcKWWjzoWmpsk7Sm5SwYTK9fxn/nHyuUo9cEApd51+Kh5n1eu/+dVU3Mk/ZrrDAAgIABJEygKzf0IF4XmxKq0Us9SxswCCwCAgADikfaimyAZ9p7QUmhOrLLGKuG+eWaOWMqYgygCAALCIQDkI26SxOysX/mg0NxvrPIURWJVnlgVWeoBABAQQD76dNFldpZCc2JVn1j1Ueq56wEACAhAycWE2Vl/wpU6oa1toTmxqr3Uc9cDABAQgPqIRy7ywewsheai0JyljP5jlUhABxyr/vZtBgAEBKAk8sHsLIXmLI/zL4rEiuVxNMECAAQEIG6SxOysX/mgeNlvrPIURWJVnliVWeoBABAQQDz6dNFldjb1vik0J1aFi1Ufpb4ysQIAQECg5g7i76IrZmcTJ0kUmhOruko9dz0AABAQQD6Ync22bwrNKTRnKaP/WCUS0CLHCgAAAQFIlwx7T2iZnU2WIBGrzPum0Fwsjyua1AMAAgKAeMR/ndlZipcpNCdWuceqrFKPeAAAAgLQp4tuhn0zO0uhObEqYKzylHruegAAAgKAfDA76zlJotCcWBVZ6rNIDbFCPgAAAQHIW0woNPeXxFNoXqJY9UpoiZVf+ajq8jgAAAQEINlFmdlZP5+5Z4LkYd8sjyNWLI8rmCgCACAgAPEvnBSaU7yc65IrYlWeWJVV6j18Dyg0BwAEBKAP4sHsLEuuiBWF5sQqw/EEAEBAAOJfOJmdrcnsLLFKFisP+y7LUkZihXwAAAIC0DcxYXbWoyBQaO43Vr2OKYXmhY1VIqkZsNRTaA4ACAhAGeSD2dlkCZKHfbM8jlixPK5goggAgIAA9EE8eiVJzM76TZBEoTmxQuopNAcABASgrvLB7GzX1wo1O0usyhOrXseUpYzFihUAAAICkMA9mJ2l0JxYeZW5gYoisepvrAAAEBCAwcsHs7MUL1NoXu9YJZKaAUs9heYAgIAAFMZMUiZIGd7bM0HyvG9m0kWhObFC6pEPAEBAAAosHr2SJGZn/SZIotCcWCH1FJoDAAICUFf5YHa262sUmhMr3/LBUkbuegAAAgJQT/HImtAyO5vqdQrN+xQrD/um0LwGsQIAQEAABi8fzM5SvEyheb1jlUhqBiz1FJoDAAICUHIxYXY2uxR5TWgpNCdWRY5VmaUeAAABASiAfDA76zdBEoXmxAqpp9AcAAABAcQjeYKUMhFhdtbv8SRWBYxVr2PKUsZixQoAAAEBKIF8MDub6nUKzfsUKw/7ptC8BrECAEBAAAYvH8zOUrxMoTmxKkWsRKE5ACAgANWXD2ZnU+2bJVfEiuVxBRNFAAAEBKAATsLsrN8ESRSaJxJQYlUfqafQHAAAAYGai0fWhIDZ2WQJUobEjlhRaE6sMhxPAAAEBKAE8sHsbKrXKTTvU6w87JtC8xrECgAAAQEogXhkTZKYnfUrHyyPI1Z1jZUoNAcABASgQgaSQ4Lked/MpItCc2KF1CMfAICAANRUTHrJB7OzXvdNoTmxKrXUU2gOAICAAGSSD2ZnkyVIGRI7ZtIpNC9ErMK1MneNnG6S9BfJ/U2y++XCNWqEayRJY8MzJW0hp+3kwqfL3DMk212yfSUNDyZWAAAICEDJxaNXgpQh0c6cJFFoXo9Yedg3heZx33+DzM6X7DJp+2vc7PPHUo0o1794czXWHSDnDpH0GklPyD9WAAAICEAN5IOZdL/yQfEysRpIrB6S9C2Z+183+/Lf+hhV3N4Xr5F0kaSLzPQh3fD8gyS9caOMDCc/pogHACAgADUXj4Ry4VU+KF6O/RqF5sSq+w9Wy+kbCu1UN3vBirxGGucUSlddJukyW3rAx6TgfZK9TdIMP6IIAFBuAg4BQC/5MH/yYVFSk+eSqwz7tl5LrvJcxmPJY2Vx35s2oSVWfmOlHGM15QehZF/WxPjObrf5785TPqbIyOyF/3Czr3y3QvcMyf2k91JG5AMAqg93QADx6Prjgi+5yqMmg5l0lsdVq9D8jzId62YvuGaQI43b88plkl5pfzrgpXL6gqQnJjueAADVgTsggHy0/6j/s7Pp9p16Jj1tQstMeqZYJZaPLLHKsG8vsbKixOrbWrvF89zs+dcUZdRxey78pdZP30uyHyEfAFBXuAMCyMeUHzGT7nXfFJoTq/7Hap2ce4vb7fLvF3H0cfteutJMc7V0vw9I7lQxGQgANYNBD2ooHoWZnU2+77LNpFtW4cpTFC3HWBmxGlysHpQFhxVVPh6RECdzeyw+Q+ZeLWk9YzMAICAAlZWPbgkShebe9k2hObEajNTfrVAHutmXXVWWUcntufAnUvhvktYyRgMAAgJQGx8Z1Ex6zH2nmkmPse/UzyCIM5Pued95xco8x0pFi5UGHCvLMVZT3r9K1jzc7TH/+rINRW6Pqy9SoLmSJhiYAQABAaiqeFBo7uczT3mJQnNvMuclVlaXWI1Jwavd7CuvLeuw5HZf9GuZvUlUpAMAAgJQQfnImminm51Nvu+8ZtLzaN1rHpeweY2VBhwrI1Z9iZWd6Ha/7JKyD09uz8XfkdyZDNQAgIAAVFI+YspFrwSKQvMBFi8nvANArCraFEDnud0X/E9lxql7hz4mucUM2ACAgABUxkAoNPe2b/NcDL7JWzzP0lNornIuuer53r8rGHtrlUYpd9CCCTUmjpFzKxmzAQABAai8nMRMoApTaB5nJj3PQnP53TeF5v6Ea0qsylporl7H7F1u10WrqzYaud1+c5vC8D8YlwEAAQGorHjk2bI1z0LzXsmZp8885SUKzf2LYpa/y+oZK+fOd7OvuKCyQ9ONj/uCpOsYowEAAQGonHzETKDKNpNO8bInmaPQvKCx2qCJ5vuqPDq5eec3FQbvYZwGAAQEoDLiQaF57H1TaE6sivbMHKdvuj2vXFb1kcrtddUVkq4SAAACAlB2+Yj5OoXmFJpTaF6EQvP215uy8OzaDFnOncK4DQAICEAl5YNC86kvUWieWYq8xUqqbaH5lIRcP3G7X/m32vjH7IUXyvRnxm8AQEAAqiwmZSk0ZyadQvN6xup/azdEOfs24zQAICAA5STsmuTUfSZ9UmooNPcoihSae17KeK/WrL6odiNXs/m9qeNXCTAXCgAAAYGaM9YxyaF4mUJzYuVXvBPHKs6+wx+5fZeM123gcntfc4ekReUTENvAZQcAEBBAQNqTHArNKTRneVwRC82j9x02Lq3t6OXsstL9zaGt57IDAAgI1BzbQKF5+0sUmmeWIm+xkig07xor07BdUV8B0fzS/c1DDe6AAAACArVnfXTOQ6G5l31TaE6heb6xWuqeseC++s6frPzNJmNYKWiOcdkBAAQE6o3pfgrNRaE5heYFj1UnqXdL6zx8udlLx2T6e6n+6PHmg1x4AAABgbpzb6qEtVeCRPGyp+NJoXkxYiUV85k5dlPtRzCnch2DWTPuEwBABEMcAqifgGRJkNoS2rTv7fhynnc95Hff5ukz9yxerlus4iTpaWPled/9jdVfaz+Cmf4qV5q/drV78gKK0AEAAYG6X7zdverZlj5trYeHxM4y/l2pktmU+/Y2k95tU0/7zmV5nGeZI1a9Y+WCuxnE3N29j3VhuJd4AQACAuCay9Rx+pCZ9Fiv92Um3dO++y6KxCrnWD3EIKbV5RlvhTACAAICIAU3R2c6FZtJ7yk1WRNaj/uu+12P2sYqhdTb+GrVnUCry3MDRDdzzQEABASgMfF3NRueEqQEybD3hLaoS67qeNejrLFKuO88RDFprFyDlq4q0ZPFQ4eAAEBH6IIF9eHuLW6TNJE9oeWJ5n7lgyea+42V530X5Zk5NrE5g5hmludPDf9OuAAAAYHa4/b96rikv/NE85j75onm/oRrSqxq/UTzlMdzeKZgi9L8pcYSLABAQAAmr4pLeiZQzKTzRHOeaF68WDlDQELNKs1fOuL+zPUGABAQAEkyt6RrklObmfQuCa0P4eKJ5lMFlCeaZ4xV+KTaj1/OynIM/up2XUTTAADoCEXoUDMBaS6RC2ImSHGS4R7JF4Xmfo8nsUoQq4T7LkKheffP/HQGMD2jHOOslhAqAEBAACbZrLFE621M0ghPNPeZzPZKaHmiud9Y5SmKRY2Ve4Zqj3taKf7MwP5ArACg6zDBIYBaXb53+PYaSb+l0NynfFBoHh0rCs29xkq2j1nHJ4lWHrt+v+0lPaEUf2xTV3O1AQAEBGATwvkUmotCcwrNyxUr02N0436z63u1dgdJpRCw1Rrb8HuuMwCAgABsyvzEckGheffXKTSn0LwfUm/uwBqPWweV5O9c4PZdMs5lBgAQEIBWxh9YLGll4mS4Y0KbQVxSz6Sn3Le3mXTr8meU8a5HxliVaXmcT/Hu91JGc0fUccgyk5PTYSX5cy/nIgMACAhAG+5pF2yQ9CueaJ7iM/NE84SiyBPNPcfqUPvTcx9bu0HrhgP2l/SkUvytYXghVxkAQEAAIi0k/HGm5ItCcwrNKTQfRKyGpMZrajdehfa6kvylS91eV/+FCwwAICAAUYzMvEDS2sQJFDPpFJoTq8Euj3PuLXXqhmVLD9xCTvNK8tf+hIsLACAgAB1wO311rUw/SZRAUWhOoTmF5gOI1ZQX99KN+x9em8EqHD9e0tblGFj1I64uAICAAHT99tvXYydQAyk0TzlLT6F5PrGqZKF5zO9B0WIV6qN1GKLsb4dPk9NJJflz/+JmL76OCwsAICAA3dj5+/Ol8NbuGcAgC80TJmcUmpdweZznhgO1iJUkaX9besBLKj9GbVh1oqSdymFL+h8uKgCAgAD0wDmZTF/vmARRaE6hee6F5sQq2b43kZj/sqWzR6o6PtnSA3eQcyeX5M8dlya+zVUFABAQgDg0m1+RtK4tsaHQvG9LrjzcAaDQvE+xkga3PC6Sp0tbva+yY5ONny6zLUvy1/7C7XnN3VxQAAABAYiBe9r590r61qMJUt0KzePMpOdZaK70+6bQvMqF5jGTdP2HLd3vmZVzjxv2P0LS68vzB7vPcTUBAAQEIAlheI5kYT0Lzbt9RArNveybQvMMUtST6TKdZ3/Zf2Zl5OO65z1Oof5XKkmrYaclbs+FC7iQAAACApDk+vmUH/xV0k+9JPGbvEShudfjOXlMKTSvQawSncFP04Q+Xwn5WDp7REPB9yVtV54/2p3NVQQAEBCANDTtZElh/ASLQvOu+y5U8XKcWFFoXoxYpeYN9uf9P1Fq+TA52VbfkPT8Ev3Zt+neofO5gAAAAgKQAvfUH/xZTv/XM2HtlUBRvFzAQnNiFT9WUsGXXHXjP2zpAceWdhC6Yf/TJR1droHTPuEOWjDBFQQAEBCAtIT2CcnGu29EoXnHfVNo7uF4ShSaZ8DsS/an/U4o07BjJmdL9z9Dpg+UTZm09HG03gWAdPMXHAKAlmTg5td8Rk7vTpbMxknS0yaznvedeCY9bTLrYd+ZCs3Txirlvr0tuapbrHI7k093eyz+cOHHm/PmNrT78i9J9rbyDZbulW7PhT/hqgEACAhA1mvqrf+2lWzkJsltHy+hzZJw9pIPz/v2Vj/QK6HNuO88WiHnLorEqhjisQnf0vr1J7h9l6wt5Fjzh+c/RsPh9+R0SAmHykWavej5zg0+yABQTliCBdBq5E/+6YNS8NFHEygKzTvum0JzYlVc+ZCkN2j69CW2dP/ZhZOPP+/3bI2EvyulfDg15ewdyAcAICAAPnnyrt+QbGH33Iri5eTvpdC8GLGSSlxonpRdZfqtLT3gw/b7fYYHLh5/2X+m/Xn/cyW3WNLOpRwfTV9ysxdfx4UCALLNZQDA1Gvsza95upxdJ2lG/GQ25esDrx9IsO9cZtI9H89HXirJ8jivsWqTj0LFauAslQve7WZfdVnfxxNToD/vP1fOnSXZ40s8NN6t0O3m9lr4AFcJAEBAAPJIGm6Z+wHJnRFPPig0T7VvCs1rEKvCXfYWSzrN7bHwF30Rj6UHzJGFo3LuXyowKr7a7bH4R1wdAAABAcgteZjb0K3uKpk9L33C2Us+KF72um8KzQsWq0LzR0nflE18z+15zd1ex47rX/BkDU28QebeIGmXagyI+q7bc9HruDIAAAICkPc199ajnqSwea2krZInYEWdSU+w70It46njXY+yxqpUTMi0QIG7TKFdqht3utbNO7+ZaJxYOntEbst/VegOkelQOT23YtfXu+TCPd3sq+/nqgAACAhAPyTklrmvlun8zIld6ZdceZilz+Whgp6PZyVi5WHf9ZCPKNbI7CY5PfxfqAek4CEFWv3wR7ctJc2Uc9vK9AyZ7Sqnp0maVtHjEcoFLx5E7QwAICAA9ZaQm1/9Jckdnz2hZSbdr3xQaF6sWEEF+U+3x6KTOQwA4BPa8ALE4YFt3iXpysTtS2nZmnHJVUWew+I1VkZ7XegPzq7QDTv9JwcCALwPLxwCgHjYrXN3UGi/l/S4WMkZxcv+PvOUlyg0L06soKIskxt+jpu9YAWHAgAQEIBBSsjNr3y2FFyhR54PQvFy5GsUmtcgVlBh1siFz3ezr76WQwEAecASLIAkxv6UH/9O0jxJEzzRPGlCyxPN/cZKYskV5IDJ9BbkAwAQEIBCScgPfynZuzrnaxkS7aj6AfOUxLe+N5eZ9Ly6XGX5zF3kI/PxVI6xUoxYWY6xQj5qrB8fcnsu+gEHAgAQEIDCSciPviTTp6fma8yke9s3hebc9YA+D2w6y+256EwOBADkP9wAQGrs7686Q9IH6tmyVRSaT/knheZQ2mzgO9p90Ruc48sAAPnDHRCALDzlRx+S9OX0iWGWmfQE+85ryZWPzzzlJY9L2LzKR5zlcVWLFdTEPn6oe4bfhHwAAAICUIbLtpPpKXu+XdJ/J0q0oxI/Cs1FoblHmesZK+QDNsrHvUOvdQctmOBYAEDfRh4OAUB2zOR0yyvOkrn3xksa0yazCfbNE809fOZex5QnmkPJ5WP9uqPdvkvGORYA0E+4AwLg4zLuZO4pP3mfpE8xk55g3xSac9cDBsX/6t6h1yIfADCQvIlDAOAX+9srTpLTWVMFn0LzqS9RaF6cWEGNrvxnafdFH6TmAwAQEIBKScgrXy1n35I0gyeaJxWPlPvmiebIB/QcmjY+54NWuwCAgABU8kr/15c/V4H7uaTt0yW0A5xJV14PFfT0mTv+yOO++xYrD/tOHSuoEevl9FY3e9F3ORQAgIAAVFlC/v7yJ0juJzLt408QKDSf+iMKzZEP6MJyyV7u9lj8Ow4FABQBitAB8jT8p/5smTYMHyi5H8aXCwrNY+2bQnPkA+JwjSbCZyMfAFCo/IhDAJA/ZnL6+8s/IukTkobSJY0UmvsTj4jXKTSH6o08X5RbeZKbvXSMYwEACAhAXdOBv79sf5n7rqSd4yeOWeoHYuybQnO/x7PrZiy5gr6wVmbHuT0Xf4dDAQAICADI/nb4LGnki5KOodA85usUmlNoDnH5ncLwDW6vq//CoQAABAQANk0b//7yN8jsC5K26JpUUmjuT7hSiUcCeeCuBwyOCcnOllv5Hyy5AgAEBAA6p483/tuTNGTfk+x5U5LKvs+kZ9j3QJdc1fGuB/IBm3CLFLzB7XHVIg4FAJQBumABDHIGYLef3qaxkQMlnSppvPeSqwwJrfVaxpNWPmJ2g0qyb2uVmrzkw9O+CxcrqNMchqTPa/36PZEPAChV/sMhAChIJnHLy/bShH1Z0vOSJax1vOuRcN8suYLq8Q+Zvc3tufhiDgUAICAAkF5CTE5/fenr5dw5kral0NzDvik0h2oxLue+pIZ93O26aDWHAwAQEADwIyK3HrGDxoIz5PT6dAkthebc9YAKjgyXycJ3uj1/cyPHAgAQEADIJ934+5yDFLovSXpGomSXQnM/n7n1dQrNYXCX6jskfcztsfBbHAsAqAIUoQMUOe146q/ma3zGXpLeI+lBCs2TygeF5lBqxuTcZ+WGdkM+AKBS+Q2HAKAc2NLDttHw0AclvVvS9CkJK4Xm2cSl02ssuYL+E0r6kUL3YbfXwls4HACAgADAYEXk7y9/gsKJj0t6i6QGheai0Bwqc3pL+qEa7uNut4V/5XAAAAICAMXKVP522GyFjdMkvdS/fFBo7vV4ctcDeqvHpWoEH3K7X/UHDgYAICAAUOy85S9zDpKzj0o6JHGiHfkSheZePjPyAfHO4Mvkgo+52Quv4VgAAAICAOVKY/56xDNl4Xsld7SkRnL5KMldjyn/9LRv73c9eh1TxKPGhJL9Wmanuj2vXszhAAAEBADKLSJ/O/wpCvVBSW+SNNxbPLIm2hSaR77GXQ+YygY5O08T7tNu70U3cTgAAAEBgGqJyI0veZICvV/SmyXNSCcfFJqn2jeF5rApd0vu82qMfcnt9tt/cjgAAAEBgGqLyNLDttFw8GaZHS/pKY++QKG5l88cSzyQj3qefPYHOfclbT78HffkBes5IAAACAhAzXKh0UB/u/pFCt2xkr1C0lDmJD6xfFBoDpVnvaRfKHBfdbsvvJTDAQCAgACAJPvLoTvJGsfK2YmSHpNaEGKLR1b5oNAcCs8NkvuWQn3V7bXwAQ4HAAACAgBR6fHfDp+mifBVcnq9ZIcqafcsCs2Rj3rzoGTnydzX3J6Lfs/hAABAQAAgiYzcePC2UuNVcnqDpP27JtIUmlNoXl/WS3apFJyv9et+6PZdspZDAgCAgABAVhn52+G7a6I5T87eIOnJ0fk1hebIR22ulE2ZfiPnvqWR8f9zT7tmFQcFAAABAYA8RMRGA920+EDJ5kp6uUw7JhKAOK9TaA7FZELSlZL7scbcee5frrqXQwIAgIAAQL+FZOlBsxU05so0T067+ZUPCs1h4KyV7HK54BcKx3/m9rzmbg4JAAACAgBFkZG/HrKLQnekzOZK2k8yl048sgoCS64gE/fJ2QVS8AtNbPZrt/fFazgkAAAICAAUXUaWHvJEBTpMssPkdLBMW/mRDwrNwTtjkhbLdImki7XHoj84p5DDAgCAgABAWWXE5jb0l/ueKXOHyNkhkjtQ0hB3PWCA3CLZpXLBpVq37mK375KVHBIAAAQEAKoqJDcevK1Ce5HkDlFgR8j0eArNIWfukzRfzl0qF17kdl98O4cEAAABAYC6CsnSg3eXsxdK9kJJL5S0gx/5oNC8xjwg2SIpWKhQl2rPhdeyrAoAAAEBAIhO7f96yC6aaB4gC/eX00sk98SuAsCSK5CWS1ooc4tkWohwAAAgIAAA6YXkLwc9Q6YXynSAFD5X0tMkOQrN6/uVkHSjZAtlwUINTVzldvvNbRwWAAAEBAAgn+xz6fO2kaY952EZcc+V9BxJ23LXo7Isl2yJLFgipyUaHrraPWPBfRwWAAAEBABgcFJywwueJrNJIXm2pD0lbRZPHpCPwsrGkC1xuy66i8MCAICAAAAUW0hsbkN/Wf4UhdpbCvaWtJdke0nauW1DxGMwTMjpZpmWytyfkA0AAAQEAKCaYnLtgVtpenNvhdpLFu4luWdIerqkxyIfubBB0k1y+otkN0jBDXLhjbKVf3Wzl45xeAAAAAEBgHqKyd+eO0vrhp+mIHya5J4mp6fL9DQ9XPC+DUeoK+sl3Sa522V2mwJ3m5z7i+SW6u7gVnfQggkOEQAAICAAAHHl5MbnbKvm0C5y2knSE2V6nJx7nEI9cePPHi9peoUPwf2SVsh0mwJ3u0wPi0ZDt8uGb3OzF6zgWwIAAAgIAEA/JeUPz3+MRmwnWfh4KdhG0jZyto0e7s61zcM/s4d/Lm0raasB/JkTklZv/G+tTA/K6V45u1ehu1tO98jsPkn3yAV3a8ju1UPr73X7LhknwgAAgIAAAJRZWEyB/nTAlpo21NCGiVlqNAM1G1sqCAMFwZZqmlPgtlK48f8/+s41kutcO2FaL+fWqmkPyk2s1ZDWaXxopcbWPYRIAAAAAAAAAAAAAAAAAAAAAAAAAAAAAAAAAAAAAAAAAAAAAAAAAAAAAAAAAAAAAAAAAAAAAAAAAAAAAAAAAAAAAAAAAAAAAAAAAAAAAAAAAAAAAAAAAAAAAAAAAAAAAAAAAAAAAAAAAAAAAAAAAAAAAAAAAAAAAAAAAAAAAAAAAAAAAAAAAAAAAAAAAAAAAAAAAAAAAAAAAAAAAAAAAAAAAAAAAAAAAAAAAAAAAAAAAAAAAAAAAAAAAAAAAAAAAAAAAAAAAAAAAAAAAAAAAAAAAAAAAAAAAAAAAAAAAAAAAAAAAAAAAAAAAAAAAAAAAAAAAAAAAAAAAAAAAAAAAAAAAAAAAAAAAAAAAAAAAAAAAAAAAAAAAAAAAAAAAAAAAAAAAAAAAAAAAAAAAAAAAAAAAAAAAAAAAAAAAAAAAAAAAAAAAAAAAAAAAAAAAAAAAAAAAEDxcBwCAIBajbVGOAAAgIsiAEDBxz+zqXn7Jz7xiUqPoSeffPKUD+1c4o+M8AAAAAICANUfv1qFIYsoLF26NNV7586dm+r33XDDDal+3+6775440T///PNTH/zZs2enEotWqYkhM8gLAAACAgDQ3/EojUj0koYoOUib+EN3EeolOUlEZlJeeogL0gIAgIAAAONMtFTEEYpOMtEuEb4E4q677nL77LOPlw++fPnywo6xO+64o7dEfcmSJdppp5287K9VYLrJSy9xiSEriAoAAAICAHWRi15SkVYmkspDWkHYfffdtWLFisqPnzvssINtjEeukpNFYHoJS0ZRQVIAABAQACiCYCSVi7RiEUco4krENttsk2q8u//++xkno49n4uR8hx12sDgyE0dcli9fnuj3dxOVbpKCoAAAICAAkPM40OsORrtgpJGLHXfc0aWViiR3H3zKw8qVK90TnvCEvgRk1apVif7uWbNm5Z4IL1u2TJK05ZZbevtdcSQmjrR0E5Ykd1cmJSXJnZSTTz7ZkBMAAAQEAAYoGd3uWnQTi153KNLKxMqVK50kxZWHpMl/SxLsZT/9plVeli9fnnkfcUQmrcT0EpZustJNUuLeTekkKAnlBDEBAJISDgFAtUXDt2SkEYxucpFULOLciYiT/E8KQ1pRWLNmTaL3PeYxjxn4l+Pee+9NtP3mm2+eOlmeNWuWxRGaXvKSRli6iUoaSYkjKEnkBDEBAJIVACj9+dvtjkaraGSVjDwFo5dYdBOFHXfcMbZIdBKHtILw0EMP9WUc3W677XTffff15Yu1xRZbpEqGOwlOXJGZlJFu4tJNWFatWhX77+4kKZ0EJa2cICYAAAgIQOnP0053NaLuaPQSjU61GFGi0Uky4ghGN7noJA5xpaJdKOKKRC9x2G677WKJS1bWrl2by34322wz74lru0jEEaI4MhMlLr2kpdsdlk6SEvduig85SSMmSAkAICAAMPDzMo5sxLmrEXVHI0oyOhV4Z5GMtIKRRCy6ycSkSCQRiKxSsH79+k3ev+WWWxbmy7Vy5copP5s+fXrqhDaJ6LRKRSd56SUs7bLSTVQ6SUoWQekkJ/fff7/5EhOkBAAQEADom2xIU5dRJZWNqLsa7bKRVjSSSEY3wYgrF53EIq5UxBWJSWHwLQrtItJOnmISJRq+pKPb74u73zjiMikXUbLSTVRaJcWXoPRa3pVFTHp16kopJQgJACAgADBVOOLc3cgqG1FLp9KIRhbJSCIY2223XWaxWL9+vUuT3LcKQ9z395KMMhJXIlolJ43QxJWWbrKSVFLi3kFZs2aN5SUmcaSk252SOMu3uEsCAAgIAOdYpHAkubsRZxlVUtmIe0ejk2ikkYxedy+6yUUSsYgjE3HlYdasWZWVjTRismrVqkwSk/RuSZztO0lKJ0HpJSedxCTqrkm7mPRaypWXlCAkAICAACAcmYSj/e5GnGVUSWXDl2gkkYxOghF3GVSv7bpJwqxZszJJxMyZM3MRkQ0bNnjd37Rp07wmltOnT7fVq1dnen8vaYmSiySisnLlyo7bdZMTH2ISR0o2nm+ZpCRnIUFGAAABAaiadPRbOGbNmuWyyEZc0UhyJyPOHYxugtEp8U8qFjNnzoy9fRY5aH3vFltsUYgv60MPPZRZVOK+L424dJOVdsGIKyhJ5STqrkkaMWlfxpX1TglCAgAICADnTay7HGmFI8lyql53N7LKRtI7Gr1Eo5NkRElBErnoJRZxZWLDhg0uiTAkkZTNN9+871/YNWvW5CIYkzITZ/te28SVlU6C0ukOSlo56SQmve6YdJOSOHdKktwlSSsk7TUkyAgAICAAJZaOLHc5ktzhaBeOOHc3ui2jiiMbaUXDl2RkkYs4QtHp/UmEYWxsLPaYutlmm+X+pV27dm2i7UdGRmInmp2kpptoPPTQQz1FpNPrcQVlbGzMeslJrzsneUlJmrsk/RKSBHdHkBEAQEAAiiAdcQvHe93lyEM4usnGpHBklY2oOxppRKObZHQShG5yEfWebkLRSSCiZCGJbHT7fXmJyNq1axMJRVwp6SQ1vX5Xu7B0Eo1ektLptfHx8Z53WNrvnESJSbc7Jhs2bEglJVnuksQVknYZaX9oIjICAAgIQIWlI+nSqk7S0a2GI61wxL27kVU20opGUslo376TXLTLQnvSH0cmhoaGEo+XPiQlT5IKSlypad0mSlg67SOOpHQTlKif97pz0uuOSTcpiXunJIuQdLtD0q2GpNvdER8ywjItAEBAADydC2mXV/lYWtXrLsfmm28ea0lVHsKRVjaSiEYcyYgjGK1y0U0A4ghFUoHodDejaCISJQBJl2vFEZiJiQlLIylR++0lJ0nFpNsdk3YpSXKnJM5dkrhCktfdEWQEABAQgAJ8/9vFI04huY/lVd2kI8tdjrTC0evuhg/ZSCsaUZLRKbHvtrQpjgzElZiofc+YMaOUJ0Oz2YydNPa6w5FEVDpJSqff0UtO4opJEinptXwrTyHpdHekKDLCEi0AQEAAEnzvfSyxGpR0FEE4hoeHU8mGL9HodAejlzD0kpdJGo1Gz/FxfHx8yjZxBKSfd0TiLrNat25de3wtznu67T+uqHTaRy856SYmPqSk2/KtbndJOglJ1M993R1pXaqVRka61YwsWbJEO+20k3UTkXYZ4a4IACAgABnFo9vdjvYlVnFqOgYtHT6EI84yqm6ykUU0uiXwce6OdJKEdqGI2s6XPEzuOw8ZmUzG26XCt8i07r+bsHS6uxJHUKJ+b5SY5CElcYWk2x2Sbh232oXEh4x0uzPSqWYk612Rbm19EREAQECg1t/xNMusutV2ZL3b0ammo9PyKl/S0S4YIyMjqe9wdJOSTsLhSzY222yzjq91unsxKRhZxSLO3ZG2hNm1JbZ9OwE2bNigiOOcaLlVEpFpT/p7SUqnuyhRQpFUTJJISRohibtkK83dkTTLtJLUjGS9K5Jmedbo6KghIgCAgADiEUM8ui2zynq3I01NRz+lo9eSqk7CEefuRlzZ6CYsUSLQSTLiCEYvsZgUiW4C0S4b7aSRj9Y7M3GWRsWRkLhC0vrebtvFFZVWAZjcvtNnirpzMjIyYnGlJM6dkrhCEiUbrdvEvTsyKBnptEQrzl0RRAQAEBCAmN/rsolHkiVWvqQjqnA87l2OpHc42oUjiWxELZuKEo1ekjFjxoyO20xMTLhOctDrDkZULUgU06dPH+iJsX79+ljbtQpB3Dsok9t1kpReRe5xxSSJlEQ9w6T9Z92EpNOSrbR3R9LISHsRe6uM+BSRjWNW6uVZSUWEpVkAJGoAlRaPVvnIutQqqXjEWWaV5G7HtGnTej4gsFUo0tzpSHqXI6twxLmzkVQ2Ot3JiJKMbnLRSSw6iURcEen0uyMS6I6vjY2Ndd13kmVWUeIRR1o6iUr77+4mJ93EJI6URC3hiiskvZZsxbk74ltGfNwVSVorkreIJChWR0IAEBCA8n2PO931SFNcHqfGoyjiEaeQvNfyqtbX85KOTu/rJRxJZaOXaEy+FiUMUXLRTSwm99tNFuLIho+6kF5LrXqJSavUdNuuXQKiJGVymzRi0m05V7uUxLlLkkVIfMpIp2VarR21et0V6ZeI5LE0i/a9AICAQKW+w1nveiTtapXXUqssy6ziiEfcmo600hH3Lkda4YhaQtVNNuKKRifB6CYXvpZl5VWQHkdGopL39vdFicjY2FhHQeklJ73EZMOGDYnulPQSkigZ2XiueZGRTsu02u96xLkr0k8R8Vkj0uluSJz2vSzLAkBAACohH77ueiTpauVTPDYmK5nueLTXdmS925HmTkcc6ei1pCqOcPS6s9F+RyNKDCYmJly7ZETtt5tYxK0faUlo+3KSdFqq1UkgosQl7lKryd8Vte/WffSSkqg7Je0/6yUkUUu22pdrpZGRODUj3e6KFEVEktaI9FqW5fNuCEXqAAgIQKG/t0nlI4+7HkmWWxVRPOLe7eiXdLS/p5dwtAtBtzsbUXc04i7N6rakq5u8dKPbdnEEpVsdSNwakE4S0en1dkGJkpOofXaTkiRC4ktG0izTSnpXpCgikrRYPcuyLGpDAAABgUp/Z0dHR70suepV6xH3WR6+l1t1Ki5Ps9Sqn+LR3rEqzvKquNLR6w5HlHAklY1OstNpP70Ex6dwxCHpHY9udy2i3ttp+05iEiURnfbRTUii7ryklZE4y7S63RUpgohk7ZqVRELaRaTX3ZCclmQhIQAICED15COvJVc+73pEdbXqVlzeT/HodrcjzvKqNNIRVziSyEYv0egkGd3uiCQVFd8iErfwPGrbboIy+bM4UtJLSDrJSLuQZJWRrHdF+iEiUcXqrV2z8rwbUrQlWUgIAAICUFv5SFtonuddj27LrZIWl7ffwZgUkjzEo9vdjrylo5twdJKNTkLSrTA9TtF61q5ZvcQiiYh0KyqPkotOwtEuJO3btAtJlEh0k5F2EekkNO0y0k8RSVoj0nrHw+fdEJ9LspAQAEBAoNbfU181H0WXjyy1Hq3ykeWuR9Iaj0GKRxzp6CUc3e6ARN3tiHsHpJdI+LwbEmc5VdTrnd7XSUw6SUkvIYkjI3HvjHS6K5KXiPSSkPaHHCa5G9KtY5bPJVntBerr1q2zfkpIr+VY1IQAICAAhfue5iEfUQKS97KrrPLha8lVkna63e569Krx6LbUKql4dLvbEedOR5R0pBGOJMu1eonF8PBwLFGJw2SyPT4+3nPbMAyt2z46SUn7+6LudiSRkTjLtLKKSLt49BIRn3dDfCzJyktC+nUnJG1hOt2xAKpLwCGAMstHJ+66667I13fffXd1kw9J6lRw7qvmo9eyq27yMXPmTPmWj7GxMddJPjbbbLOe8jFjxoxHJCPqDsnkzyYmJlyj0YiUj/HxcTcpENOnT9f06dM3+dnExIQLgmCTOx6TIhMEwSPbTZs2TdOmTXvk9cn3BEHgJn9f+2vt/578HUEQuNb/Jrdp/1nr+9v/GxkZ0fDwsFwHGo1GEIZhEIZhEPX+pP9N7qvRaATTpk2L/J3Dw8MaHh5W1Pu7fZ6on08K1uR/k9tMHvM4x30yZq3fg/Y4tsewVUwnvy+TP2t/7+T3sPW9jUZjk0YJrd/7GTNmbCKzjUbDtX7n25cotp8z7edS1Dk0eV62nr9bbLHFlDuZnSYdNgrNJpMak2NLVIOK1p+1jkdr1qxx2223XezBeMcdd4wcG1euXDnld7aOra2TPq2TQa2TRJPccMMNbu7cuZHjvBnOAYCAABSATnc/Oj3nw1er3U7y0SonUUQVnPuq+UgrH53qPSa37SUf7e+L2rb9rkdr4pnkrken907+u3X71iS3XWLak+XW/U8mzu3vaU3C27ed3D5KNjrJwtDQUBBHJnr91+v9UT+fmJiYIiUbk1q1f6ZOMtcuGpPv77RNqwBEichkHCfjPykTrbLavq92ce323kkpaf2u95KQdhFJKyFR/7uThMSZYGidpIgjIe0/6yQhrePY5PjWOp6tWrXKtUpI1KRNJ9onf3pNFkVNNn3iE59wLRLCCg4ABAQgFza58ERdkJJc0DpdAJPM+vUSjPbZxPalV+3bt/6s0/+O+lm3gvN22ms+WulWbN5NKLLIR3uiOZk8tt/1iJKPyfe2btcuNu1JbSeJiRKPqDsinaRj8r2t0tGelHe6czIpAZP/Jb1TEQTBI6+3v6/XXZlOdz6ihCSujLRuO3nMW0UvSh6iZLFdJjvd0WhfTtcuIa3vzSIhnc6lNBISVXMVJSFRotE6CdE+JrRKSNSkRrefRY1pURLSSqe7wq2TN1GTPK2TP62TQq2TRZO03gUBAAQEYCB0uu3u++5H6zKC1gtrFJ3ufnQjblIQlVC0Jx6t9Op2FTdBaheTXjUfcUSlvbVulHx0opt8tO+rU2LaKhvtCe8jg2Db0q5ed08eseOWhL81Ae+0VKlVNtrlop3WOxzOOTcyMrLJf1HbTDIyMhIpKK2fp10sokSjVUSiBKP9mLfuu70gv5s8dPp5+/ek/XvkU0I6nSfty7GipCRK7DsRJSFRdLq76XMSo31paLelWN0mXYoySQUACAhAKem0jCCq9iOKXrUfcROHXtu2P2SwG93ufmSh292PbkIRJTFxll1FJaC95KM1UW3fZ2tS3e13Rr1vMqnvlJhH1apMysDw8LCazeYjsjA0NKT2ZVpR0tFO+89bl1q17t8555rN5iPLw4aHh9UqQ53+/tbP3iohUa9HHbf2WPR6vVcM278bSb+vnb47UdIcRbelWGklf5KouyDd6DYZ0S+ilmG1T+JE0XoXunVyKOkyLK5WAAgIAMSgl2Ck3TaNjPQiqkNWUjHJi053TTo9d6PXMz7ibNut3W5rMh6VnE8m/pM0m003NDT0yP+evFPRenekVSQm/2tn8uety7Em73K0is7k72sXkV6fJYmEdDpOWdoK95LO1t/R6y5It5j7OF/yoNuSyiii7pqWiahlWNLDd7mjoBgdAAEBAOhIe8JYNtqT1PZEvNu27bTLR/vrUfseGhrS0NCQWmWkdT+t++4mPnF+V974ePBimm17LfUbtFTnRdI6kFbiLiuVei9XbaV1GWwvopbXAgACAgDFSPBjTwW2PofA57bdaH3GQ560PosiiiRPDG/dtv194+Pjm/ys9ZkYnX7H5DM5Go2GTUxMPPK/G42GTb42NDRk4+PjGh8ff+S1ye0nJiZkbbTvJwxDm/zb2ve1MWF/5H+3/k2dPkvW4x21TZIYJXmQYq9tW5/pEed70H4OTD6gsJ889NBDibZftWrVlJ+tXLky1s+iaH0eSC9anwfSix122CFy2yVLlkz5WftDCQEAAQGoLa0P5Wqn9YFe0qYP/Ip6OFgrra/32jaNdLQ/OK0bSbZtJ26y1poUJkkwo97XaduhoSHrlgS3vt7t4XvtiXk3CQnD0Cb/PSkDk++ZFIJWiZiUhzAMLYogCMIgCMLJbcIwfORnQRBMedPkNpO/Z1JeJuVj8u9o/duiRKr132ZmrQ82bH8oYKeHBbY/0bzbtp0kpV1g2//dvn3Uwwk77af19/cS7m4PJuwm760PJfTF6tWrCzs+brnlll0/7+QT0aVNH0jYi/YHEraUYAEAAgLQf3bfffdUs2+tT+mdZNmyZY/879ZZvagZvsmnBEubzhZ2E5T22cfp06db1Ixk1Gxm1JOQJ0k6WxolGr0SsNaka3h42CZFI+p9rdsODQ1NeTJ1ezI4mSy2y0W7LEy+r/1p2Z1kopdkRL3eaT9hGG4iM+Pj4zKzR5L4VvHoJCKtdybGx8fVLh2TQjE2NmatwtEuHe2vjY2NRcpL652R1r+3/W+e/Dtb9veIeFjbYvswDB95f+vxahWKsbGxTYQmjnxEHff2J6T3ejp6pyejRwlRXHHuJdRRT0WPs22vp6J3+t9ZJy96vR6X5cuXex3Hd9ppp9h/18knn8zT0AEQEID8cc5tctGZnA3rdHt++fLlj2zbOsvWOvsWRafZO18X27zugkT978mkpjXZWbt27SaJTzfpaN+2nV4S0vqzThLSmhxGSUj7HYxOEtK67/ZkePLnk4l1e9Lc/nqn7Vt/3ppcTyb2k8l9a1Lf/u/Wn0/+N0mrlExKRft/k7T/vHXfrX9Pq3BE/S1REtL6N7UKRJRQtR7rVqlpv/PR+npUbLrJx/DwsGWVj/a7He3/jrqj0fr97XT3I0o+Ot396HQuRclHtwmFqImITsuv2seQ9smO1ju0m2++uU3ewW2dUJmcaGmdWOk0OdM6gdNtogcAAAGBopPrxSvtXZDJi3HUXZD77rtvk4t160U+KgnwdRek9bUkEtItSWrftj1R6yYh69atiy0h7clju4S0y8GkdLS+t3Xfkwlt+zKjLCLSKg7tifvk9u3Jf5R8RN3BaL/D0SoNUbIS9VrrPpL83tb9ti616iRMk8es9eftgtIqLe13RbrdPWmNbZRAJJWPyX2llY9169Z1lY9u0hK19Crq7kc7Dz30UMfJhahJiU6TFr22bR+X2pePdqPThEyv5Vf3339/5MRQ64TRJK31H63Lr04++WRj+RUAAgLQN7rdBYlahtXpLkjrRTDJRbT9oturFqSThEQJR+vPWpOEsbExiyMa/ZaQuMux1q1b13U5VrtMTCaR69ev30QuWmWg23vb74a0y0M3EZn89+TPohLwbkl51N2FdiHpVtfR+t/ExETY/l+roHR6vdP+giAIN2zYELlMa3x8fJM7HFGfr/U4Tr7W/u9JMWg93lHbxBWPSYFoNpsdJaaTvEbdMWnf18jIiLXLx8jIiI2MjNi6det6ysfatWs7LmFsl4+4S696yUd77cf06dNtcqKiddyImtDYsGFDx/GqdazqdfdjzZo1kZMyq1atsm4TPDkVn3N3BaDMeR2HAMryPTWzKQ+hmnxAVdRT0e+66y7X6ano22yzTdenos+aNSvyqeibb775lIcSdnoqercHE65fv961t8Rs/Vnrs0BGRkaiWrZ2fDBh1GutT0ZvfThhp4emtW43uW37z6Kejt7pAYUzZszY5GetT0j//+3dPXLbSBBA4eEBVrEV+AK+/zV0DedOXGUl3gQoj9r9jwFByu9lJkGKuyIlfOoZUn7mQ/QhhfttrA8qjD4pff63dn/a8R/+aiM+A0M71nubWO0DEc9M29My520Wny/XLtNur+3vsI6P9nlo96kt3fNuL6FRmXrISV5n2dW98aEtvbKmH9WlV/sfYuTSK/mHGzldPmH6AT6IAAjRdQiZATLGSCPk27dvH96T/tkRIiHSRYiEiLxOO15CxPuUdA8i8t9ViFQx0gGJhRILFR5kOp/oXS16p6kMKiJwaMdX0DFf5m1Uj/Z5HIWHxE1lv4eGj+yG8zPxIScfnwQfAIQIgBA9FkK0D686GyE7RM5GyMvLy1+fkv7ff/99uGxGyK9fv27zJypXIPL+/n7bpx4ZiLy/v9/mD2xbARELEisxkgWJhYwIJhFCVqMk+pyLaBriAcW7bRccWXRk4SH3eKyAx/aaNfHRnXpsz8nUksrpe/DXPg8NHhIfcs8H+CAiAEJ0IUK2X5othLy+vn74tzcN8RCynXz89XXny45MQ2aIzJfvEJFLrbLLsrTjx6gtzZLHRxiR6PAwIk/6PZB0URIBQ97mnkuvPFhYYPGmI1mQaODQsLAKHRo89r0cHjzk2z4fgcd+XQce8rpo6hHhI7vkKoOP7p4P8EFEAIT+OYR4EHl9fb11EPLjx4/b169fh4RIBSHbifiH+65MQ2aIaNMQCZHu3hANFtWJiAaLaCpSxYhExI4RDRf7ba1lVRmUWDDxcPIoEIlgESEjgkYGG1Vw7Ndp05IuOuTX0zaiV5ZaVeFRXW61/T9rTT08fETwOIKPL1++/LY+cBB8EBEAoU+JkBkiRxBiQaSyJMuCSGcaUlmW1YGIhZHqHpF7YiQCSYQSa3Ih79MCjXwsFkSu2v8RgUNORLTjJDIsaGSxkQGHBZjs8qoIHfJ2mWmHhEd1qZUHj+35lVpuZeFj5dSjsuRK4sOaery9vakfNsiGcyIAQvTUz9/qkqwZIR5EzpyG3BsiEhzVPSISC9FUpIORs0ESoSQDEwsg2n15WNE6ApNoshHBIgKGhQzva1ewkQGHNeWI0CHfzWo/fvW0Q+KiutRqJTwkPs6cenj4qEw9wAcRACF6uufxyiVZRzaoPxtE5PWZqciZGBnjz56RCkgilFRg4oEi2lRuIcJDiIeXTvIv/hE+oimJhxv5tSQ0stjQvo414YjAod22M+nQoFKddmTgYe3xuBoeF049wAcRACF6rufyWRvUr4ZIZY/IdqL012OV75olwWFNRSoY2U4kw83r2uUaKrITEg8lGgA0mGRxUkFD5p2y7lFmyVUGMhowLGRoX0ebbOwn9tF0owIODQ9noWN7Ppjo0K734GHt8XgkeKza66HgA3gQARCi53xOd/aGXAmRGSMSIhIjGkTk5RIZGYzIqUgVIzssIoxYiNBuq6GiMiXxYLLjILOXIwJKhJUOXFbmTUQ8VGi3j4AxH1OFRhYbGjisCUcWHPNt5fH3QIcHj+zm8keHh8QH8CACIERA5M8v1NT+kKMQsTBy5lTEWqIVTUa2k0D1+hkjMway0xEPJNZ11qSkChMPJzNErOVTleVWV8AjC5HKsqwIGBlkaCf5FWzst9ew0QGHvI21pyNaXrUSHZVpRwYe8+bye8FjjDFYbkVEAISASAEiRyci1mb17cTgEEQ0jER7RSRGtpOum3Gi6mIkOx3JgGQVSuSHIWon/lWc7LfJHGst6cq24p2xKhvRNXxkbp/BRQcZHjQkFryv8fPnT3XDeQccGijk9dZm8hXokPDoTDs8eGibyyU85j0ewIOIAAjRnSCy/dJtb1bffumfNhXJYiQCyZHpiATJfIwFklUoie7Hw4kHlApSjsDlyiqYiE78Z2BUkdGBxoa2FFisJVUZcGSPuQIdFjyOTjskPGZ0ePBILrUCHkQEQAiIaBAZY5TeNWv7BX5oKnIWRjJ7RiRGtpM29edDBiTbCah5TBclVZjM9xcd5y3FklDRsLIKLldBxLoug4r5WO++ImR4j+UMbGSWVK0Gx/ZaMMHRRcf236ru7dh+1oTTDm+ZVeZdrYAHEQEQouRzv/P2vd7yrOxU5AqMbCdY5emIBxINGxpKvClJBSZVnGRAkEXKfIwHkAxgvCr3XZlgRIDQ8t4Kt4qLDjKy0OhgQzvOWlIVgcNDRzTlWIUOCY8MOrafUaVph4QH72pFRACEqPk6WDEVuRIjHZBY05EMSKwlW2PoUxINHF2YdHDiASULD+3rVW+bab8/DyIzPLypQzVtT0X3tllgeICpQqOCjQ2Gv53vw184mVGhIaQCjjHGiPZ0ROjoTDokOiQ8MuiQ8GDaQUQAhOjg62HFXpEIIxZIPIxsJyMqRlaAZDtJMyckY4zRRckY+qSkApMOTqpIiaByJjyy4KmgYBVErLRN3959ZYAhkVHFg3asN9mIsGGhogKOHRKdKYe3p+NKdCjwAB1EBECIzsBIZolWhJHt5CDEyHaycRMnG6npSAckGkqiKclRlFRh4uEkC5QsVDrIkJ8K/wx5k4kOKqq4sNBgTTKs4zPQkMuoVmBDA0c04aiAQ6LD2kh+ETqABxEBEKJ7YmQGiYcRb89IBSNng0Qer4EkQol1fQcm1lIuDyfzdVmkZLCSAUkEj6s3p3uTimiqkpmIZGGRAcYRZFjQkNjwllFVsLEjwsPGI4ADdBARACH65BgZY5w+HYlAsp3s3JQTRXUPSRYlZ8Iki5MIKBFS5mMsqFTuK4OXR08DRAUUOyoyx3nXZ4CRRUYGGkexoYHD28OxEhzynaskOqx3rwIdRARAiD4xRnaQZKcjZ4NEm5JUULLDJIuSLEzG+LiUawVQslCpgEUem8FLpcpjqMCgUhYRnceQxYUHjC4yOtAYw19GFWFje22Z71RVBcf2+mfKQUQAhIiuBYmHErmpvYOSozA5gpMOULpQqYJlJSCurgOYCiY0PGRxUQGGh4wKNDrYiCYb0+vP/G+oTjgicIzx51PJQQcRARCifwgjY4w2SLYTDnfJVvYdtioo2U6w1PvowETeLosTCx6dYyNUvLy8pI7rgCb7GM5oPhnvgOEoKDxYVHERAcNCxg4GiYwONM7Cxva6dacbgIOIAAgRPQRINJRUpiTTCdRNOYFaBpMOTjygzCf1GaQcxU2lHTNXoSOLgAgNFUhIUFRQkYWIhYsZCquQUYGGt4wqiw0NHBY2AAcRARAiOvTayyzZGmMcRok2KVkJE2splwaMLFCySMlApQqPCkqO3t8jNMOhA4guKo7iwgLGEWR0oXEWNnZweNgAHEQEQIio/XrUQNJBSWY/yXbCpN5HBBNtKVcHJxWgWEipQKUClrMA82wgqULEw8QKWEhceMCoImN7DoePvwuNE7EBOIgIgBDRfVGyw8RDyXZCFE5LtpOg1sTEw4kFlA5SIqh4WJFoqcBlFWYesSwcLEh4mMigooMLDxgWMjKTDAsZFWh4b4O7Q2MMfxkV2CAiAEJED4WSMcaSaYkFEwsn1tQkC5TtxNA8zoNIBJUjYKkCxgNN5vHcM+8kPkJDBxEWJrKoiGBh4aICDA8Z2jtQdaGxY2OGBtggIgBCRJ/mtVyZlmRgUsWJNTmpAmUMf5ISQWXHSua4KhaqkHnGLDhUESGx4IHCQ8X0PS+djFeBcRQZY3ycaHjQGGMM9mwQEQAhon8OJmfhxALKaqRksVKBywrEfKZmFESAqGBijNq0IgOL6Tn02/me/jaer6nHsQAaYIOIODkhon8bJmOMU3Ayhr4ZPoOUDFSOgKWLl6OgeQZkVOsiooqKMfzJhYeLFcCwkLFDA2QQEQEQIlrwc8GbnHhAqSBlO3F0j/WgUgXLKrh0sSMvO4IfCQHZChisRoT4HvxOPDfcYzLLo1YAYwwmGUREAISIng4oEioVpOxFU5UKWo4A5lGRswoHUdE0ooOJ6XtXfqw7LKq4CIABMoiIAAgRPdvPlQgpHla6ExXnBLh1H1XMfKayaJBVJxMdVESwABdERACEiMiFyhgjhRULLBpcVuHF6/v377cxxshMZh6lt7e3McY4jIQqJDxMZEAxo8KBBbggIgIgRERrf1btYKmgJYOXCDP3hM29k1DIgKEDiAYmAAUREQAhInr+n3EzYjqQOQs9K6uCoIuHBCCABBERv5yJiOgRfm5KCJUe1O30H+eAgYiIiIiIiIiInqv/ARf2g7mNsCLIAAAAJXRFWHRkYXRlOmNyZWF0ZQAyMDI0LTA3LTE4VDA0OjAzOjU3KzAwOjAwSH/LygAAACV0RVh0ZGF0ZTptb2RpZnkAMjAyNC0wNy0xOFQwNDowMzo1NyswMDowMDkic3YAAAAASUVORK5CYII=;labelPosition=center;align=center;" vertex="1" parent="1">
          <mxGeometry x="533.005" y="340.0037795275591" width="33.51775" height="36.78125" as="geometry" />
        </mxCell>
        <mxCell id="5LpLA7wXrQh5jvGzeRih-64" value="" style="strokeColor=#dddddd;shadow=1;strokeWidth=1;rounded=1;absoluteArcSize=1;arcSize=2;" vertex="1" parent="1">
          <mxGeometry x="1324" y="316" width="197.55" height="67" as="geometry" />
        </mxCell>
        <mxCell id="5LpLA7wXrQh5jvGzeRih-65" value="&lt;font style=&quot;font-size: 16px;&quot;&gt;&lt;font color=&quot;#000000&quot;&gt;Gold&lt;/font&gt;&lt;br&gt;Cloud Storage&lt;/font&gt;" style="editableCssRules=.*;html=1;fontColor=#999999;shape=image;verticalLabelPosition=middle;verticalAlign=middle;labelPosition=right;align=left;spacingLeft=20;part=1;points=[];imageAspect=0;image=data:image/svg+xml,PHN2ZyB4bWxucz0iaHR0cDovL3d3dy53My5vcmcvMjAwMC9zdmciIHhtbG5zOnY9Imh0dHBzOi8vdmVjdGEuaW8vbmFubyIgd2lkdGg9IjIwIiBoZWlnaHQ9IjE2IiB2aWV3Qm94PSIwIDAgMjAgMTYiPiYjeGE7CTxzdHlsZSB0eXBlPSJ0ZXh0L2NzcyI+LnN0MCB7IGZpbGw6IHJnYigyNTUsIDIxNywgMTAyKTsgfSAuc3QxIHsgZmlsbDogcmdiKDI1NSwgMjU1LCAxNTMpOyB9IC5zdDIgeyBmaWxsOiByZ2IoMjU1LCAyNTUsIDE1Myk7IH0gLnN0MyB7IGZpbGw6IHJnYigyNTUsIDI1NSwgMjU1KTsgfSA8L3N0eWxlPiYjeGE7CTxwYXRoIGNsYXNzPSJzdDIiIGQ9Ik0wIDBoMjB2N0gweiIvPiYjeGE7CTxwYXRoIGNsYXNzPSJzdDEiIGQ9Ik0xOCAwaDJ2N2gtMnoiLz4mI3hhOwk8cGF0aCBjbGFzcz0ic3QwIiBkPSJNMTggN2wyLTdoLTJ6Ii8+JiN4YTsJPHBhdGggY2xhc3M9InN0MSIgZD0iTTAgMGgydjdIMHoiLz4mI3hhOwk8ZyBjbGFzcz0ic3QzIj4mI3hhOwkJPHBhdGggZD0iTTQgM2g2djFINHoiLz4mI3hhOwkJPHJlY3QgeD0iMTMiIHk9IjIiIHdpZHRoPSIzIiBoZWlnaHQ9IjMiIHJ4PSIxLjUiLz4mI3hhOwk8L2c+JiN4YTsJPHBhdGggY2xhc3M9InN0MiIgZD0iTTAgOWgyMHY3SDB6Ii8+JiN4YTsJPHBhdGggY2xhc3M9InN0MSIgZD0iTTE4IDloMnY3aC0yeiIvPiYjeGE7CTxwYXRoIGNsYXNzPSJzdDAiIGQ9Ik0xOCAxNmwyLTdoLTJ6Ii8+JiN4YTsJPHBhdGggY2xhc3M9InN0MSIgZD0iTTAgOWgydjdIMHoiLz4mI3hhOwk8ZyBjbGFzcz0ic3QzIj4mI3hhOwkJPHBhdGggZD0iTTQgMTJoNnYxSDR6Ii8+JiN4YTsJCTxyZWN0IHg9IjEzIiB5PSIxMSIgd2lkdGg9IjMiIGhlaWdodD0iMyIgcng9IjEuNSIvPiYjeGE7CTwvZz4mI3hhOzwvc3ZnPg==;" vertex="1" parent="5LpLA7wXrQh5jvGzeRih-64">
          <mxGeometry width="48" height="41" relative="1" as="geometry">
            <mxPoint x="15" y="18" as="offset" />
          </mxGeometry>
        </mxCell>
        <mxCell id="5LpLA7wXrQh5jvGzeRih-66" value="" style="strokeColor=#dddddd;shadow=1;strokeWidth=1;rounded=1;absoluteArcSize=1;arcSize=2;" vertex="1" parent="1">
          <mxGeometry x="1098.23" y="316" width="197.55" height="67" as="geometry" />
        </mxCell>
        <mxCell id="5LpLA7wXrQh5jvGzeRih-67" value="&lt;font style=&quot;font-size: 16px;&quot;&gt;&lt;font color=&quot;#000000&quot;&gt;Silver&lt;/font&gt;&lt;br&gt;Cloud Storage&lt;/font&gt;" style="editableCssRules=.*;html=1;fontColor=#999999;shape=image;verticalLabelPosition=middle;verticalAlign=middle;labelPosition=right;align=left;spacingLeft=20;part=1;points=[];imageAspect=0;image=data:image/svg+xml,PHN2ZyB4bWxucz0iaHR0cDovL3d3dy53My5vcmcvMjAwMC9zdmciIHhtbG5zOnY9Imh0dHBzOi8vdmVjdGEuaW8vbmFubyIgd2lkdGg9IjIwIiBoZWlnaHQ9IjE2IiB2aWV3Qm94PSIwIDAgMjAgMTYiPiYjeGE7CTxzdHlsZSB0eXBlPSJ0ZXh0L2NzcyI+LnN0MCB7IGZpbGw6IHJnYigyMDQsIDIwNCwgMjA0KTsgfSAuc3QxIHsgZmlsbDogcmdiKDE1MywgMTUzLCAxNTMpOyB9IC5zdDIgeyBmaWxsOiByZ2IoMjMwLCAyMzAsIDIzMCk7IH0gLnN0MyB7IGZpbGw6IHJnYigyNTUsIDI1NSwgMjU1KTsgfSA8L3N0eWxlPiYjeGE7CTxwYXRoIGNsYXNzPSJzdDIiIGQ9Ik0wIDBoMjB2N0gweiIvPiYjeGE7CTxwYXRoIGNsYXNzPSJzdDEiIGQ9Ik0xOCAwaDJ2N2gtMnoiLz4mI3hhOwk8cGF0aCBjbGFzcz0ic3QwIiBkPSJNMTggN2wyLTdoLTJ6Ii8+JiN4YTsJPHBhdGggY2xhc3M9InN0MSIgZD0iTTAgMGgydjdIMHoiLz4mI3hhOwk8ZyBjbGFzcz0ic3QzIj4mI3hhOwkJPHBhdGggZD0iTTQgM2g2djFINHoiLz4mI3hhOwkJPHJlY3QgeD0iMTMiIHk9IjIiIHdpZHRoPSIzIiBoZWlnaHQ9IjMiIHJ4PSIxLjUiLz4mI3hhOwk8L2c+JiN4YTsJPHBhdGggY2xhc3M9InN0MiIgZD0iTTAgOWgyMHY3SDB6Ii8+JiN4YTsJPHBhdGggY2xhc3M9InN0MSIgZD0iTTE4IDloMnY3aC0yeiIvPiYjeGE7CTxwYXRoIGNsYXNzPSJzdDAiIGQ9Ik0xOCAxNmwyLTdoLTJ6Ii8+JiN4YTsJPHBhdGggY2xhc3M9InN0MSIgZD0iTTAgOWgydjdIMHoiLz4mI3hhOwk8ZyBjbGFzcz0ic3QzIj4mI3hhOwkJPHBhdGggZD0iTTQgMTJoNnYxSDR6Ii8+JiN4YTsJCTxyZWN0IHg9IjEzIiB5PSIxMSIgd2lkdGg9IjMiIGhlaWdodD0iMyIgcng9IjEuNSIvPiYjeGE7CTwvZz4mI3hhOzwvc3ZnPg==;" vertex="1" parent="5LpLA7wXrQh5jvGzeRih-66">
          <mxGeometry width="48" height="41" relative="1" as="geometry">
            <mxPoint x="15" y="18" as="offset" />
          </mxGeometry>
        </mxCell>
        <mxCell id="5LpLA7wXrQh5jvGzeRih-71" style="edgeStyle=orthogonalEdgeStyle;rounded=0;orthogonalLoop=1;jettySize=auto;html=1;entryX=-0.001;entryY=0.556;entryDx=0;entryDy=0;entryPerimeter=0;" edge="1" parent="1" source="5LpLA7wXrQh5jvGzeRih-30" target="5LpLA7wXrQh5jvGzeRih-9">
          <mxGeometry relative="1" as="geometry" />
        </mxCell>
        <mxCell id="5LpLA7wXrQh5jvGzeRih-78" value="" style="shape=image;verticalLabelPosition=bottom;labelBackgroundColor=default;verticalAlign=top;aspect=fixed;imageAspect=0;image=data:image/webp,UklGRkA7AABXRUJQVlA4TDQ7AAAv88F8ECq91/+ft6099z8e27iNs7HWmnP+vu/35/uba++zD27bvu/Htm1Wa83P97fm3PfY50TrHe2Y3VPGnW0bJ+5t2zY729WOjRXbtlZsP6jitMnYsStX6dYYdxXbtpO7iu3WSXXaPTIedqnc2laV/AHa4+li7aibcU63Yz0qYyeVztPFduWcOzbWM54y7GzbtlHZtr2bFXe2VT7208W2ccaYse2kS5mMk8q2u6eK9aiL9YlZnRE7XYaH27ZVN5K1XXjWZczMC8VMycycGREO25LOnmOsvc85kgyBmcXMDL4lSbIkSbKt+v/v7O65hgoRi6raPYICAADLzOr9fX3nyp3D6c7pjrVmYZ5mbU/Xumd71t3dacNSzjQzzVJNd3PuvgnQrP9n/T/r/1n/z/p/1v+z/p/1/6z/Z/0/6/9Z/8/6f9b/s/6f9f+s/2f9P+v/Wf/P+n/W/7P+n/X/VWPnWTz6ktqoC91r2gfzZvzidEzLJ7erWuoLbaPW+EKi6QABUAEE5Iasbt5acfc1S+Om7HqWpqilPiOJzYsxdY6paZQpLSTvSmb13+LjP7tWVXOKUgGiJ8oJSiYqaruKYdwcjulBk9WeAdETKiOWrtquqFWtYKkaly4nA1Zcb8v9/+CEd91acbwZnWW6QC4TZdGb0mb2pZxDUzrWCzdnfB7/MhTQgNyqaXKqLUS1XbH298Mb2+5i2eSJEwZT0bu9MAPNIHpLnH7wNRuXH+b941ZrDzAEEQHMzyE0p4S7Vllvy25jTw4d4WRSfqyXdnKlVMn6bWwTBzrd3s4sGMZUIoC+RF8u7Be8a1TetmFVppg2hbO1VHfquVC3H1Npx7MtaNtRhqXhhII6Y18aoGuHDlI6uDxBolnxZsW8t/dmVpyRbahsRLnRb2RTZYfVJJjVaztmVVbPqsrBdtNgx9sHf5e1Q92YGiSxlpSiBDH9cIE6l8oXx3z58JdWHiTQ8Jvc9dNN0XuB0M7U9noaitKOtxenu5mCtYCl5A1excJUAJgrpIAhZQE6YThK0mvYQM2vqu7nuNNc3lXfol3MaAkOfpLNq3b9qb0ITEFMP0wloJYCY9JojlTnf62h56i9m6LnyFKSzjKzx/fLTVqxvyidZfnCcTfJs2q46wTPnaYDZyJPeLgUM0yq36znBvGGhrtEtNcmTuHbl2D55aWFunQ7/TStwDKlrGv+37Rabr2x46WJOhRYktcSnRFa1fe/jM87Q2nqgmFMv1S36tru3pne7lkkndwTl8ggCaZqMZyQtrqNHe11Kkqp1iLi+Qz9EcOJPWWtnr2gtQeMKg99MGMRc9QvBjsJGrs47HjWXhOHXBk/8MIanxjyKCUGldQqmBKL+Tl8BLxi5Rr6DFgbrJoaW32+PWHdp4yOoucSdRbmbqa8JLNhM/5jezKXwgmdNfox+rVUajdYyfxHrR7FVCIgFkzsa9Pxnz44g0V92AcRc4C87A4fWzd1F4Y1p537C8ObQ8HYsdGBSyMQwRHWtVR0LkTPhTkyPhM2WG+WVKEJ8RKhO5wLhEamojItL5GygN43mJmLnqkzdagPe8fxn/+YgwQVEB7P9UMEcXR88cSxnz1Euyik5aSl7rdwdydKD/TxoThoCcxRngM2L4ST1B+Mc0euU0/a+eSQy5PJpmVz4aROAS8z2Ei1m5pqbTXq24ZwWiuQOgnL7/3SBgrwuE8ChWzHk85Yc6bxLgkGiga1vhzqll8f5oPFvjQtHCV8HUXvEXHS4ApTzpJY8ehOeWlkLnrP7ctY2d2OgIRyUm6qG1yjjIVzX0t1rjwe0azFkjR+OEyTUWMKGhTIk8U+Gd7LzqCQDcNdEJioUxp9hJZqbJdBsoawwh3QUoI0em6wABaI7wzXVJEpwa0J+wL1NwoQvReTjhLTJpY2kmSBx3g/eg+/TirA/86tVko66qtbcXLjEQvVxGLCGaDJ2i2CBjBkr5oU73JA0CW2+qh/Eu01OOhhphhJKIJOjcJJbSFGEVWlhCjNZmhJeGkWMrytqSWMVEkC0AiRNF29Nk3uMtltnQ6jISkR79ZCbiolEUGtTeZ/oHgQoELA07m+iYXJLZeuxK9e1i4G1jSl/vQRu5MVPChskFafL2+UOdS+6D1coA5WJL2qmEpKYAy5bzoUvXdbIPywuKUOqhINY9n1crKgJJkNpV5LO8vPO4vAAEwZdeaq2Ol2r11zvmiSBSH0JLU9pt160swMMiEPAOBZH4W1mlxxsQJ2MbDECvrHRx0ibBkMpjCgHfUlpCOc1gAWJCTPUrF4oqRLInqeOHoOIwymc7hcb8u43hUsQa2Jr3Pj50kJCTRs6ZS+vcWtfSV0xvy9NBoRhlEeqUZpS6LtTs2jSqI37R7onVY/yGu1sPh19TQ0dykgsS2gjmdMGISbw6AHvHYbwrkhVYH2Yk01EoKOgqZa8DTs7TFsrYJUAmJxJ7oZcKXc5GbmLur3pQjqCCWvtbpGWnnVeGudZtAzpp2oZNUTK3OgSakVjbifpj28i9RsGlrfgSgAny8WzOXGhOn4+IExyCRlhjo/tzS3exORQ9LYxUHsIkGdTmTnANCoQI/AtKwPb91GV6rek/NpSMd+dbMP9+7WP+idlyLlQGX0pbZOQwOqDlhzNju2P51JRDXpSvzqQg5yb3nmXZXTjMe0qexZc56bh7qx1SSULFP9elIkacXVaQ3IJk6FlyiB3uosiLsGlkAzabOrCtRPjKI/VwAcI6Ytu35s0ojJGX7mMV09lb1ZbkYFU5NBjkMy2sNfqTs2sgooWrRWtQe992nuQoBatjR/fMB5mIN9RycXIZrSQJ0KL2UC5HbeYVZPRZE6Q+fcklXHn6jcSFFTQi0EaE18PzcXi5ZMH+zOvH3Im9t45xuLLBkRTyxeSmX3XPREsZAGxcDFmnbVNlEPL9zECehei1xJEG9oFfVrwr0k+n3EIGLIGLkWqUeIXE01CqEhgzAhwqpPrUPeeGxSkU78vlQSDNKxvf/uQpB6u1C6fFSZ4dE+O9QHoVeVNcSv1NFwjuZ+FtGHyJby1Dp1yyXC39SVbTKYJ9YRgiURBTCpqPwxnSDmw1py4PuLIyHQqpFQml8W5oZU4AT0k0RMmdi3Zmfkfg6jQxex3Rr/QmkSazLNTqb0RVAn/gjIkYqoD8i+ML5yVwWDqPNYCGMliyvX8ejMH3v5TdU9OBlka1DN0M0wrBUtCRV94qsFGgizyEbxjagCLTujXQ74/T+0GVpsi8pjx2UAdYQ6AM2WX7QWLX5mEic6upkIAp3VHGslD8OfahTXIhtInZFUiYZM+HYzPd1XySbtfGstrpsfKQPhpYBUaUZ1TIUCaexy85ZdH4m58WNrTCU1hJpnq0QgwVBatiF7WxtRkJSMHvE5cSi8I2IliEdOMyWZrDKsMpSEd/F712lba6DSaX7pVknl7WcRU/eE1iNGV4ExEKb9qXRNJeSSUIua5scN2FkQKw90neV/f9plGWm0hYbaDM4MYQm3G54h3AU+AWRRM0meAO+TnCPuYoigOlqiOXk+2I39DACPKsyUMKdEhiKjlaxF+f7dv/v3SM1WricE+/3+h/RAX1pVz3riLUIltY36F2Xl2NUiN8AWOcbF1IPEfOpvaie1h9r9xykdRlUxXmLFr3VsxR7Zh0gpHlQhMwQZFGCLHpclYiZiGHUSDaImQeetZmTXCDkm279QjmbDCG9gTSlYK6HZivfPWsRG1L/mM31phlqweRMIl1RjiSzoELS/5tc0onb/7p/ZStZK4Q/cQKMEoOWay00+cJmRY4TX0C/AemLt037aT/uRQauheaZPaHbDONSE1UyKjCvz80dj2fU2bi9ZS22c9wW0gLgG6AX1JCwFOgNtu+3HPGfok+jNXG5gREvCo1T2zoe36ulMPSe7WcqsSaiNhOEq6ucLi56kZgnvEWwQIE21yEq4zbCduhDOxSSA5sGLSQpLsOQtnDQZDvfSFzEUS5ps/++Qqss3Rs9nAS0iuBtF6gugIiATAlzAlqpiqdLO8sGdsOaeLvpQyrqnvdS3KgNltTJKp9baMcRH0KYtqAzsQ528qI1UCVW6ef3Gi9p7H2r/FmJha+2UBDaph9VMpaZJP0F/Epv+COAXoeubT4X8Bf5YcUzA2fzHh00BzTHdCe0ijm2MiDS6bbv7H1FknlxSGwgV1IE9IwxBRAzjoqjDsP5YTOz0CKaABYNeCvwMbQE0/K8/Cen65t/8m2/ZsuXLv10i2ZH50QI+gDZ+nf/1vz7rNzf9+823bNmyBXqlUyIlNHlbtmzZ8s2/+TcndBBbHx60gVD9yJsCKBpuJjT8Fer05uhNlez50ihVBsGpNreB1mFxaG6i0vkfLQzPRyF17rw/xsf4K/f+z1vZC+0595lKIxBFh3Lqsa2P3sNqCCYWpg1fgNiNH0KVMmWd8P4+8+EkBYAX8hSmpNSAoJZ3/FmEm1QHasV09g9DEpmupPMhs+EmTjOkMcpL58UYSmowdUF4IT1voz+AmeEGNlcViyK1kYaaJ/f1EUAqd7YWyI4JlRs/LmfDdGodZchwkiqJ8nnDqb9CfAP0qQ2jCaIrcTDcwBfdsyhJ+gFJs/aOadPoXwd7+EcUgKCklxNKKONRuPc9mFjbf+IwqZJNjVncSJGFd4lkFwnZYS1m0B/hJlxDQEpMi8L9U5uxwEAIoTY9iyinjtFUIO25/KLRIuIKQvcwZnBphl44cTfMn63hhQV2Okn50V5ZwdWQLq28ag2GA4DR9eGlzL8lEI3uJCyxw7ewA5XuzeHcrW4CaiHAoZoXLu10+lCrTgqhb3N4TQGxEyaAgSpVPRziPupEuEeZlHbbNhsAkqYGxFouxGEIcI3a87h1Bp9+OD0O9/4fcpwXbpuJJc9gjV5UNL7NcJzwwCijBm4KsNdHLJuoNpBI1D7qtmiGyCQeuffzUU4Ygd4gymnssPH2PGNyA7igMpJkIySH2aaUJtc84UoRNd+FCrgFjYxf3AbErL2jWQtDKy48tea02SV5qqCLjEHZ8fTipXITqSbKbLgJrST7j/jOL/3YLy5UO50354RP7/CVF9TRzIV3EdhusNkCU7qK3z+w/X53L05QbjgbXiIAjI0fvJAMDwhLp/zV03zNWb9qrc4agvC2Z0CnLMvGggaVVl6eytC7hjPhHkELLW3ezUakjhOvQK324s4UjBJMlo/YYNaiBhhUGLIIwDU3vtbHM3/sFfU4xa9dqiuO9BEXYkbXQzuAq6BQEYMzocdnWtt2mgkVwS2Yj2ZgFDqdR6mci0bX51Re9kdT+//elbT6vABK4NlmJNn1k11EKfUKR6MFZkGUAtem1eeWNZGIh2GzoTQaHo4fav7gN/hwCt+8NQqo69/ngFiUs8Y6g7Kt4abppt5E0IViyhEhWV51M9oLcxZl4SVMUZ/AGOQ2EAk9itD/cxygkYX35udYPTlt/5VHcYmIJxPcWvy+eRjeaiA58hvrVncTkSkkES3q7ahcH+7WAkg9uWvOllGnNyS1ZynEbX8XmpVCQJ1WMYL0EUltE0bIRvYtuBbHD9V45o+96j0mjqdJKkDMNGEaGkYDl5C4kPT5iL+rhnHqgVOZtTmaqTMUkr6mLETDhrIkZQd6OC2WX84zqzaA/giW10uqCgIpcNGA9tJlDSQS+cej+WHdSrriIkUHu/8a+L7LzRkIGDrplTSZ0Pn58EJniO+I7lRU3bYQVptTTxMk8+G9BgYtppFjF1Kkgz64qcvvXqtTt+nHhpsyR/LUaI1V2w0pGyijKvQcVBJ+wkCnk3LU1zdDwvoLwfYhds2Hd1Mq5w/9fj877gun+uRuQtLRXluM9nDfQ455q0j+PzQh03okWN8Qa9po2oAyHbLkinqy/0r+8tXt0WUq3KsZC8AwjRcCNCOUyRp1MsTcnGimbv/PqzPuX4NoHBVZDpO52b1HeDfDJMGQmtpAc7Mq0YLxi4mjW+jKEUzsu7xo+VxQilE3LmZyj3mDdxZVXTnEDUBtQwTK14feIkyGexuxChpPJAQDZ6ZKt61YQvt8eOfPO+ONnNKRTv/TN3zsl07t1uJlUuOj8G4m/KSJ6+x/IelgdydB415Jyc0PN0TGVCuIFwgq1YZisO1ZhL/qTreH14/41qEkacezi3+U19fZ9qIkps6/KWDcj8oNpE+oX9to0kSuy2/k6+4YvuK/fvV61PVLoabNXFB+PNkZmXviN32+mU4/YaT2X4Po2xkIktug8QIEEqXQFbTLS475/AGtXAncEjM8Mry87CBzoMYuJ1HbpsB0YH+4t1F+EY7nPkWyVlBaPwrMGmouKRButpJYSznp1ZYByeqEbCoOG2FW/gn/VuJ7qoN0+v9/Q2f2+Mc+6N1OttTIKNwEiTHzOkRfsgRCUCCcps6E/1mApNe7pkga30+17e6sp1UvMJwmIgjl1vAH0h58Q1BlaHZBZho3YXV7pAL4JieGetX1Cxlxnp+5DcDMVRlMX57iAtLnK3W0ll+o0y9vQm/070nMxJshGqO5W5K3UBiLfKguLznKG+eyZVf83H2mwmR22YGok/vmDTuACXvPyEIjK4/ZbrHNKiC8m19ApU87o+0l1MatlQ3wUvg3Q7pT5ThtsWR1YbkOC8pTq0jCPU/sMz2a+6RI3U3jJ/et03ank37RXgThh44BzxmTJ6UuZC16jJnz4f8rJNslpeWDEmp/693DaxRAeRglrS9+491owqq9wv+Lr9hvXr0e6qYVqW0zF/M5bOtmQq7T/NLlMrYf/X1hRgTJHK0VYO6BxgpA04hFvmp0ecER3lyiQ9ycea0VMJyxHMB219Qd77nLynGrbs6M7N7I5I4vKEF4IdOwP308mwpRa99IptRQK5HYMXLRAIPJPNW7scvDRapTcDKKIPGG3eHPYR5a3F7wk5QDo6qELbv0V2cWDF2bUqWNuBmISZ0Bkip20K9RuAW6SVKrNpzmdxGwOPw5LLSXmTGxX7y+AKk3y6wJqw4rqCd6ruIPX51ek+1fNMLhfoCp7mYKXCf/xOU6vo7+frAKnHXrKMo3NWdm3pI4ayEao7k/M9/Rt/x4oxPDvQ9uGP6MEqvMEMZ+wXXfVhB1AzyoiVlaL0LwPjMy10iNRnB+me913QlVcCak9Y8qXbHfvLT22mutkUMKhPvNomg72N3es+IyPImjyN1WzsD3UZjDRBp9c8WdU1VacXUibaKWw2kAGIYbhWTVJtWTO13288g//0gZ8M6Mz92NQtOOHAIksU+kg04G3zYUEPNTQ1UN5yB+uL47w5QVU1AZaSoxzTc3tq+qs/mPV6WXmDhQF3pQZduo81sZZggzF7V1fVlsY+0Nriv703vx5LYG+uFgB1RoPkTxcGtndpLQA+2AjFKn7mQjlDmLsc09ZYt4ASssarEPlXLf2OF0stgU/nnCYHt4D7iLlSBiEHAv7eeQkXnfyKS9g25tAvUwokQtgswazm/dNl+wbePGrVtNZ6/1db/uz7YRYf50H+38NFsJTYQjqasipX6RUrVtnrgEAeH/K5Z6mDMtpcN+uJDDv7vUx47uN+zfzWe6QFOXp4qSNHZcpLGLw7O9zKK/Hf49Vx54fvqfeVQl1RQtwxboePjnCS1QN0kGeO7T2/R7+EfExlRaqz/efFWxUDnmR4uM4kXX4sRaGWf2+Ct0dNoSAisiYn7r3tReQjHwKfA6zcnOmAfao48Q06mngHcI3/YuSyOXr/AfPthT514Cq38m0ujf2z34iOmWHSp4Q9H6VDbtfGuePdZLe5sRD5ClxLXAhKt1Wx/asIwwZybGbLwxwpMSozjUEh+k3LXzrQtN9XNld98204K6sVbTQoJTpYiU1BULTF3FfDN7qNuWA+Ox1jqvEM8B30ImfVtP+nioF6lngac+YtLDgAPnD93ejNrzq09SePMjNv9Ag6uZspSSIjmtmvpOPs/wXxShlrgxT0WSUNB3Olu+B7/ZJRN7wDDcVpkCviJlLekIb0/O2HEmWBi8YeGn/AXuG19hSqoq8tS0qx7+zYAyoKOkl81UyDePQuJfs93UOFQF+t5H/G4pa0tBRZ87zZcfKEn4xtc6exaPvizH4d/7w6sy7Lrv/R+hnx8PIQXqC1RnIDQ9QI8k5e/OF2y+HpPTEHp2vn0vS1X9jQ0jUP6cOIY8zck/8TAmVq5G6XUnPELFXtMbtZTJPWtMowKKzs9MdHOEZxaJAhjeSX2kKl1rzrZtKurCnYOM+taiqnqOX0zNqvxkKHPRAMI3jMuy11SqI6HT943M3qCZ5ri1qXlboaNvHMZLEpAF9Kd+vGHhf2yU0zkYSN220dWbrd/pnFx5wVB7Aby6cBqC4VNH3J/6D1mCQQ/71mF1qA/7UTUEUfjVLfhLkhFtkIdRuBX6DmoiqZrDZHUsyHAUGjVICFC/QH/lpm1uQkWWKKfe7+cK2ktFntaXLtShsQobmEbcAfWBUVEhxAqQv80XNG0k1p403yvuUjNLcVH7ULuIlQaXum2i0xzs7rbKjZ+LBdVwHn2eWZVBVu9q/wcf7DpH66mm+ojw0ihyyXPyZarSc6pfO5EVx5//w73QGSnj3Cpydhoq9baKWAGeWHhHYGIuogu00wcZomv9jCmNS5vhjIXoFMgSlAxjB7xIkIafMm5UTg5+kozI1VnrutOsgAV2Dy8NuO8wn1C6SzKkk4Quv6T5IgyBjzJt9DtWzCXJyCJizqhgT+BtoljSCZ85eNVgH3E2CokjDJvUN8RORAdEqCRNkHNjT4x8kLlVbVhopllT5wts9hEmrbHCk71XAoYa2YyqYWgh9Pj4cUXRLAfodyeZmnZy+u91MCD8m6CPq/WPJO/YIdCqjech0iLoNhisMcIro0gFRguA5T7DCs9xXzg0JlZyfXmqsRXHOMlt0e68XSPAW4xX2UV0LfgYpltmbmoVUKg6KimEH+Fff3vMmURVksauNtaZpynxcpJxVIFwL+XQ11rWuZVXS1FSa31VPiJlfhj+/2jhaE5zJFX9xAgu0NooJIzSPmKRJukQN7fCkd9c56pRIAohY8BEBnQmoKrQD76LJFlKAhXs/7s3vWoVbamp8EPAo+2mlGdMqLX42vpYmel013jMc+VdamBxb4ZXGTbQaMh5xX/14qs2lUYAvmoIcmw5xvOHuvxWEQKLSh4zNKo5yusSJgqACh+1wlMNAi0O+Qi3x/Yh+ZiQEjnqiqeHcTr6nvoAtA0EXM3w6TeFn9pPuMXEVlKqCFr7uT71rt89/KBk0PIcQiR15oWht1tnTs5iFJppoIZoaqrtydAWfpbAKv2sFS9JaWxxt/WNFReAYQFkArobiGomgWrAjz7onFFL5WYaa49obnd3p72c3UsS2V0R8syJ8eZ6V92c2d93jlBPG9yJg2WLqaofuNMaQrmv/A8f1XpXmT5T0FqQrN6s0GM8fyAFsuBNmCq4oBkgZBJIBTBKBdBKR07DDP+PXNDJyd1csXqzYJ8QbCF9LgsSDOMwgnqATvdmAFgN07wP74agzBCrTINhGFJV4DlYAu9ZnPzb4f9UsG9YLWNJR3h7yld9xqdKh1Eg/BsNc6GOmpa4d/OCa/H7AEMlCaiZxnzR6YBh+J8t8SCQ2M8j//zTR0sWN0B5J37crEYu3SjUWvATU+lQNlGUwQh0lDVyJzcDRGmGsQ5tqz5kPzy3uOqJmQN899zo6aB7A8nqI4arsJofM6YafdHplk3uprxKV6WE/73g0qBbm4Nmw5ALjCgBKn1/1pHrFibJWHSlqurDvffHU2F7ltNe8iS3Ao69ursBUu8bB35wsj3oy24QBA18ub2GKMFrgrQZSQMxlMSUUqrEGDbPhX8DoYFtbE3LB0litckOp32XCDaF/y6RnDWirOlbXSF6H049fS4jzXlXHpKUbP2PNxeF1GmYYyAk9RMNgDZD7xEOQmNY2UizwajNliQSDlBPQ29QMz4zzVzsVUS91u7N7Ic0Du2X7zIy21n7Pw+CR9krIkaodNm9e0luTIYbCCxEEYiijGgy/40KCFuJWGPQtyV/EVDlo1Y5WIc9pT68v4nFrZ1uX6ySA30yieVXndLdDelevWI4uc37K/7rT+whsbmtgyDo5jvWI1I5vmrbmQR3SUYRpna3BWZuj3Cbgr0BD9HKVhIFseBXVcrHDoBw79VeAKn4nkY20SYk1Wn6BeamWNLKq6Djh44w/GYCehELJtt2kCSiCUzhKAq3Ek7CUNVXsUcs3EnTSeLEBc3vuxh7RIPfaGI/ndWoRZyERpWD8hEFBB6UQ+V8FxI6IzbFIp+h1IXKrIUkz/eFDhZB96v4iv7u8V21LeAapZ7xrKYqp8ORpNtHmSJsYcAaY3z/KQsI6tCagjwm1KutAa/IRZwjbkgFXqLDv3s5d0Z1hbe7q+qDPNzGHiNW0N8DAYMQU857mvWthdrjP3tGncK3XpEkqNioVNMfUbiB+IOQ2qFYkoAcaOwH3TD0LWy/6aJuO5ZJUk4r5+TIm8+NrP1+b/qd3NN/mCQGa+JzmolpCLOEuzC6krTzyWVDrBhFIYr5VJxLVQzNNFGd+KlgpnPqfwxpZTAUoPgCEdYyJpEcp96EPgY+e+A/lnoPept4ihhPWG60PolQmcgxfHGZzhF3elKVF3GoYDfGsjTCK6vmHXHDXHPoKbCKcgPd/FtI89x3adAtsLHGnnRug1xAolVgWtV1Qr2SJi+6nr8FSxWf/BOXwfhqiwva3t3VCo/Z5tSfAyEG/P78x4j4PgwnVh7LXJIxMII9KtkniUID6btAWKqpk9vyqRszu4V3rw3oTqTK7eM+fxlIEtWK+AoiGw1XXHbX4d87dx311SWUlAjf7BSD+u4EyAjmTEYMDxnFk6QOLE5FfZRCF7rTvLLm9GBrbTJC/NpNqao0TzImt8MWehiY/Rup/U94aS4iFmNuX+js9zEsBXnOSoTpRkqb64MTd3koPt+oIJgKgkJFR31tIqkqddG1QHKchtnA9tsfenfKiVQFXBdE2UzFHEZMC0zyTCgFNDoF1Gpmwj0ywj+3KsAGzwUhxDDoXlOokMr/Vb+KgUtlw8hdq8tmEF1TqCoq2mOHYdVaPUucdn1Y4Hoi4riwLzMYIsKM66/mFuhzUy+2H5KkVCq923f9lcM/9y4NDlqGoqZdcZlFnTmfjADPHteX2oZOYnudcpIwDwjqB6kkgsXYo54EqQq05npEsJCk9rJtWuu6i7KNpI66sTaIJFm1r8F3Kigddaru7HD74mttshuxF8FLpWOXy8KaZ3OjcRTFS8BxYt9611bgHk9GnxLK35wyUfGZPv5SVx7GUV8ANyOiDazeLtLk1NtTAVyXZtTGf+ewhkkBNY+RUgCjD631/dR2b6RHZ5ZseHEU3jmaPsNimLeoZBCeA+8C7jE8eMEw1xkeUV8YZNK8hX40+jOxnji/6FqiSX0rjqs7KFJCe6AnjUjSxPoDd0onmjd3MApHwFyU3up90HuPYT0lY+gAglSW1MFTkk79yxe3GxOrbtdiTDuifE19+0vSAb/zsiaWLIPbSpJuCEIYsT2KDR53qpS0NqEBNMMkWxDQArOgDgZVc77GHjHjW9+Rp0bfEsJD64ew7CwefZgrj+PMnIsEdObyVIMwKMwGotR1nQw2NnfRFqkFDMY/1PdWOxWsx5HeWsz28Gb4rQIuN/aYg4K5EREsjWLDhojdwr9EspuEcGTKaHCmRbWIVAq0dbfwzxH7k6SnirYkodp09eYInpy2jiRNbqNirW7PTTP8gJdB6s7yyzaUpMlttA/z/ryekxmUIHrDdNOkph1k9TSDw46G9kax6YvaqGhtggJAJqCxVFSFxLjHkAOIPtwI3O9JZjV11Dei7K7WP3LZTqcPOxUXfK1Z2bFeXo5NgIZB/IETLuIkdQMVcRCNKQ0FlqYXIJgQG3wJaiogepz+Z27+imM9KpjpOcR9iCQHVZ/QOkhjNpzG4fSQqVMbwr8pVcpggivFJWUvCqnwk6ZiHEUOo4sk5an4gDTo8G4ROYLxA6C1pp0mkRZPkqAOqch7fqkLho45wgwnLh/g460zXeqhEvfelyhdgGaxt7rWKs8TEAXBVWh0FMlY9OVG4AFPql7zPgtgwlM/kLIr9IeHO7nhmm/5ZS2czb+/Nk2wGmLFB9LvMh03E0mDOEyNCoiFuYVRQDUrANRki+hxzJcf5dZixqivENIQyA4jupRm330hbu2v7S7FaGUNo3BPg4tWGkmSsUzpvHrjRqMRoKmear0kAUnJRILUR1RVYOdbXYBR7qxGJam7Hf9CGkbDcO81eT7AgR7OwGlWXE+51D11QVFMfI9CS2uRx4oqYHYObHeVdkrnjxF9AjzoydVriWO+OVb8aaCyK/DHhze5qRu+1Ety6A8fmyZSD4TS6z+6noXFCIuIo6aMfMPULRy7CKMAalFiFtGjvT5qJFn9RT1GQ3GQaJdcu/461a/fcLetjcsvGR+6hjeZYXM9DZYkC8gDpVYsxtTuxMDKvTv3/4OXIkmGNtA3xNrtrr14rJe2riQtv3PKVXOl1q16onhy48UDP9jiKdbgV51rEEkUmgILgKlco/S09liEBeqkiS0Hqj41VXqQB5sBLYsBqMyafXwB2xc2VHaEdx9up9cVXz2V9IAfv3ZNpAoMs4ow5HrljBGNbarTBYe4tWgFAGtic8F17nG012+l1kxG9NVzA1IcNqlxD3znbbitv1S3Az3s+zN15RGwqdfC14a5WaWtAJCk3MrAwiWYASqY/gNeRmudl3IttiQ9V0aTg9xvOUn6LaRvVd1JGlDy+ixJX72bcpIEVAI8toZ0ocAQtGfB8ksKUo+h1h5zoOrQPTvZpoPtFknF9Y6QKB4RZF/LjCTmFh5rqgKLJcRDnvP/uL7fjLhS5Wf2+CO34lDnfAvtZa5owtKoJeEn8YGEk8AeQr3HFIzvAYf8qAvO/t8+ZkEOzv/L92QrwHuc4acfwYoLnvUVFDDuYSQ5OKH2wnz7MEb3mU74zEE7wtvzUCrAUo83T4zpVHiSVLcKIhTHXj023TBrtWDJw7opUm+gNUNOd0I63OSjATCz1H11miVJrQUtQnYUX4QlhYd79zDUWoIUmHue/52402hL9mapPLsIaFURsRSVEzQJ1og2jDPdDjwCvWDkVndaTy3dsG8B8bDHzOqCpKOMSxo4s8df2spD/e9bJEQaIA10t+D3Z9EHEnZhHkKdJ1prgZ1PZtEZfvqXW2CwnPizYCLiPVbtNnvsmHs5gn6aIx4kIRwWVT6H730CY/tNJ/vkpls8SJifZo56n8GRFVTS+HErt0eftdAbfhhAfM1qc1bD001ux1pIU5RuyDCVYjKQJklHf3UZt2dyo/iGHeJGl538t05zDU6qAotUEHNzS0tzNPOEMWA7sBYmJ/V5C5gKcAUqPhk1SV10UQUbE6Z3UA/VNNq4TYUZ4qakB5qUmdOc7beXwDJNQd8izvQJcIDBpYFDf7DQqrNz0bUAPPTpGtjv9y9qPXEoGqMa+TblpHT7syUsMNqT2OZ7w1UP1uPQNzZpx9N1PnVAQ4tLC/vGiGbBzIyZ2Vt/602nAWPEEdORZ/yMiaMfg9pD7Qf2IUYhYg5rKP+LghTj+k65SafGEoYjAtgKTaDKS9Kyu3GnflofpbsB/YDQlE6XPLY35aNG6eVmGBk/HFtW7A+KJB3y/WmzepPiTWUTK7U7nJ0WGhxoH80rwkXoaWA6MI26h7gTNRP+nyWbjQpkWFanjJMtrsbBARL7eeSff5rtGpi6faPvNRK3JWTKiz5ViGWNZbPqFfl+EVPODYjlpjnX3JOiKjZwhf/wy53ccscHMwY61ANj5AtqeVUqFfxWSGdBGkF7nOaXLuhIb63jH2joIUqJDcCH0JswV0HOX/JLIRy74dB9v5BmNyHJSAwx1swWkkiLG+76XTeIJBVoJICVwA/xIVgJsqa/NTxtwhfBJ41LFeOFHOZQeHC+Z0GS0H+iIZkJpjZdH+ojBicYQtJOp6Ec+Y29Y+xA55fcUHISmiMIPEmiEXe3XHufrICCYUD66mkErri6CUmiWdoZVG+KYpSNy+4cNupnRg1iTsGdNlrMwIIyPh2Q+rI/JfoiSAhrwYxCNIOTiH/rza4LIhx9AHJXFTjh5a0ualpzMD3fo4mOrAm/aa8Z7QZWXkxjizU+mFEXjGHBiSEaBcRAQk9DOvorO2X8IAgvdNrMpnqHoLuDA8MGYf3IT8dAu53/+1O+bALJCP5kzGAgqDWw1/SaLKAPxQjMauTSL529EWvCyruCLlHeTAtMa3zUCcOkAZDZWJ22epBUviSBWFbDVzdnIQpJgd+DMiYZhiSligUhJ8f5Yfi/5MQKGN/7a/UmPnk3UEkyXP1pojxpS+ptp/4i5vrmgKvVn8vu/9Kh3eEmVCAaqhB6ZE8X9Whzt5QppyZyzqWEKR9ARl1tBipqz4205w7JjbnmWK1H+OYjNKCWSQHsmFfku/aO1btel3TA9W7q1juv7E8fXH3bzeQX7GkkdRAkGEySoGHU+lTKUhcMC4ZJvrftdZ0KSZLGDssb0hilpqAzANufWXf4d/eS7tSIJFVFeCp/RznhF20XDRLINKtX3pD+6MxLcR8XjJQZ1yfbf5ACUgjgBHW6KQS/O+Yjdpll38TKy9sit/Fj0TVHyMwT/KIV1w+V5DQD8L0iVoLZG3LA1iJW+yg/WXtxAfX41qasDitSX11z3Z2lV+DPf5z+yTU5z9cHnSKmDobE0RBHaxjzxEVG8ULq9ekQt25L2x2oJIvwoT7ccZ05XZuKDMDKo/mrN8viGK8ckKTV5xPf4SSJlJ5NZanSBrPEbGigTHtS6VqVUH905li+TxeNJLef4yq0QCHe3NhUCn4Fd94s2ybGLx81gyxfoJy1HS5FK++8lpPnP317FXAkiHNDDkRVYIXPQndrXesKqE/CD61u10R65bq5lCcjT1icb+07pFrF+qausF+L7wmzet+gQHHof4S5KB1tYDjfqVKRJBhOe+Z8Z3YkyjO+HLuItiRlILfn7O8MR6O8nuglWQkDa6CIf3K0swj1R2uJ1z115SBZedknSsywST5GU4Y+xGEf8VcbrZs41a8/5PEDxwoWEd+DyBV0p4M8drmOd6cC4b9j1gjKOyDHm4Up9Vlqob2f532tgcGDK2k5kV45gSweXnKFJSWr25DvmxqZBdcAlTODUpVwVS5hOVSy+0tidRJQTpKgeiAZ7JnZVERYYLhmaaEkEVh1q9OG05vKXiNrupEgGqwvw5Q1U1B/wHjv7cphYdn1OlliDB2YxsYy+hSQ/DCmVROaOIzQkS8gEphkIOaqG9AOt6YvqClUQAFxCCEADchhlpD42TeC1nT6MnS1BulbG1NNeb1Ln4UFCzsY0AZMVhDvMdo0sSqDSlPhSx2ww0k/GBQlJa+5vbZM7gR7uHZvL2kcn6d3chKSBF0GrdgWxRdFOU5hSBJQHnCDMhvllGEEb/SFaMCYajDLTP25/VlcUY67qLI7WGIZG2mG+oTYkmnLRlZcXnbWqn3RF4BJYPhr8xhlZ+F3lF6Tb3WJjjTkFwRlweSxpQSOo7+2/Tsz3dFcDVzoi0VXAEYR3IoYyYRoyq/1F86o3kAbycBKX1jMmtyIDYq2P92M7e7sY6u2gL0843sen/pXb+1jP3cjkmS4AdI1H8V7J9zTNiRJSkaR+PQkUU4yTvRFQNT/rGiwkut7vm2nYZ+sOYsZyjFXAIqImj5SKoyF831C0pR6LBq5cj+55bu7ehCl94W4k4j2SHPD0PCkrVH8MSyuk7OuDwd+KoiN1kYm6zSZLtn45K5jc+yOGeimoZyOu3jfhncJXFNwj4mviOMRm4l3oLyyFpJhygqovxJxHRil5RVObn9esQJ6jAj9FlLH94MtSTCMj7hPlKMymoaxdQqTJBD1ZDLfT5RDJ2HWEhENHPBL7lO3Txjkf48PMgbc5qpp1h/dHH1CrK3Tixq58j95oNWbbFkqCQtzxDcM4WlEKKmqKAEj0twvoUMxM0pzPxsWBEVK/G2NM4xrKaam2ob2hPg3uk8Um1bXmbBDGKeY8GE3VwS1D3j8EfZ6yrlpDrwM/LE5IuKhXe88hVyUll+sZD6ZApBldQsn1+Szt46BC1NhFg4ZRvefuu3f6jDvrQKmmX9w6HGDYJJkqE54+LGjPIcBuIJtfhFJSoU+sYggjfLLoAbAIBo82AUZ1ftkwiaSls+74oV9DyjUoz2E6DTN6TcbozlUeRcQa3K1cSO6Cj+8zSd3VV8U8w8Zppwki/gCJOtvQceedTQIHbTo7zr4zfngXpZEbIaOAJoMa6l/aKbno4FuJuyp+glx87M5TzW5ly+2fS7iWeqqd9rN5GWUqyqqMK7AlG/xZTbH9GYW6ik7DvjxgZQc/r0/hFhaEPOEbkKJaalhHbWNMLGN2D8AahPNDO9eXERc1MRad07uiVPl1L72QJLGjxc8sWploWA+iilg2VV11e3wONv/+IMk7Xi+oUN+9JqlqqpokDjHEExFNZD/6sJ91I+TGSp9MslACaepEl9A2olHc8N1Yn9yl1/f6KrzgV7FH17oVfzBxc4Tbu2Ri0n/WJRF31Arc2+jZk7pWx98kPtz/4srioh5U9l8NEscYFjjOtpre//YYUjKmqdW5T4hjw7wcDEP+mA/7U7ICiLmAQOEOphyShmw5s5/whcavb/y5HmNHvj+DN/uoqEC5Vha4hwEtVGdmPXQ1t8Gw4iJBaok1TmxicMVMLHwe/coTqUUUHvcFw5rSZpYhWt0ITRGg98UGMqAaDD/GvCj76+2UbFP1Jnbfs+C2Azt/rOPgpgPLABUEvssyIbRP8Tylm3YjK7AHy6rekdzE80X7HB72UE7B0QH/OSw7u6qtqjRugnSPFtTXHxlf3RBBTVWNjUaCLWNEmumPbOMJpoKoOxw2rtXbXsqdUEUb03Fu06fupJ0sk+c6NjeVXc+GiRMGxUGRLR2aBPFfmHfNMOKkhmcCWJJNvoNaXLDjvV9dMkMq111/eLA14OivK3gc++DPWL12Sja7/dPwwLqnfmGFgZD5oJzJkVTrSmoupcn9shQgmERdZp4H1UCSTr4zUk57nNH5LIreocNQCapkUbBGtRb+eR9hNft+VPoF5EEUWcGIVV5F1RalFGnqckNitTX8wOS64Nggojjg5K3QLBT3+fMxaaqKyXZaQnqI7E494aWBmTaB8+gx5jxm6J8b+JppmiSRGQaSc5hclOUE8ahG6iwBhaqDM32AZ7n+uT7JgMrY84g5E3cvoSPmpdRuynVlPN3GM7A43t8PmJvMr4utZDExmOryBrbuHXe92dVSidueJgyPmPDzlwzk7vcWTUtbRUS7651oAjUHJA3ivJ9qPu6mbgkGcVFeWD8EOlewzLCGHTLg9fgwijBZPlS8eSQNz9e36i1b2vqcGPX531ua+x0vvC4rjxWv++aG2o2pjwlBDLwCxuD/rLU/v/rA/ZSfHzKW8RmvjZ1UcBHxFuEAR+qy4pkCU6y52PM0HDloUZ3utVHz/VTvzQVfjMzxoDetc0nBWYvRPHo97zlGmFJAgpz6lzdAIYgyvcB2frgNcBARUDmouuOrtl+3P4RqiPeZ0OUmaR3oXE3urGTe+J0Gl+r20fMbFWLm9OyO3tzPfm3KcOG8WWtmKAJg+OX63riyfgWyFJWOdXWzH9h5WydxTGjQazxobqoTBYgQgz0z4xsttgydugINWjk0Oa1DCkmrHMo5sogPeYO1NTzBN5aiAYpo2leMcmGNMgMIoZXI9f4nofn8o+fXB8pYRx1sJFUNVK34/Qkm5VVCPnWWHvgaLHLl4qHhzj5BDOgY740V7fnqplvYiOhOOkidQztevuAvRCfEo3tlw/D3waGpAZB7UzzR4gEJxb4oPkNSDBLIaVbm/sYhIw8YaYmu5ksVLIbmRsgdfM/SjSPaaQl36Ga93JNTbYa8MlSNJi6I51OrAYbRATMWHS1F+6d9hdvVj8p1Q42+D1fRmlnxmbMLywDNuCDaz013ZPQnti1wTW2r8vn+M8fcyZUzRpBX37hTUXUbsgNGnkpUzSDtHA/8TZ6FylPuHyOorkXWGeESpJBjo+Q1YgMRMAL1J8bm/kYlFKQyI4hq1mOViB82rOBcx8kdUEH+mHeBy2BsdBUolYy2QtRvqG9MLLTyUw47HsTGjBS8qQehHM+XvD4HlZfabL9vznw+ffxbaV0ArKTcZSkd3RzPNsIxz1oGDIUv1DPdW8txJ7GVy9iRmSeJMo6mhxC2+NznTuxIuHaqkQl/X3gkYIKvctkLfqMbyz2LbmovXni3QE/Pp00dc2Zb6ALezne551uRhcGNKVepTadd9HWpwQtBG5CKa/GETgGx34FcfZvuygj7zqRlwl9B0pVYUDNNwWO9SSvzNbQVEZ9Yv5iNMhieM15Es/6vz5IA75m03h3ao93Bcx78sB3l3mZd4bwFuY5zFPCPVbe0ETQkPtLDGQQV8hDQrVpSw5/IH+g7ZQuQsdN+zQoalLnc8LzlnLrELqmsg41I6f+IPDDx7vMy7zMy4R5SXxMeHSrKrPKs+xqksfX9rJw77d9JMJnpkqpFT/hJ9BUkBT/B4TjmVLVTO9wtqh5Wk6vmlr4tG8Dtevb/Mc/TulE+f3aW3yS0J8tLE1loBIOFRjt1YBSwVhxdQYyvCFW/91rYaHj3P/jB6V20Hw3/QryOum6uoWhaXc66XBLrgMfEx8nfU6TfZlTfw31cHtdOg1JHA2h1KbZRnidut8g7R9j/XQbqYPEVlZKUZ4DOlZA10zWBmawQuVEZ0614fccOrds2LDhKZk2GlYBS14eTBz6XtSuhWvAa9qCsaQXdArm+lvQ1Cv7s9uEsZwAokELowf4OCmn+/kP1uBTMYsUEhJo4mE9LItkJiT2Jrg0DsDYg9cKq++TQfMU+WqO6fLrtbhua8mq3bGy6tMPTg/SDgTDao5oYh9aFWD1ZBoGIZ3Hw5palQQC9g2qEh+3YY9UN1GkSbBJphRrg0akw9DvJwyD1VTaZPUlkMwgRt92RvkZhCYMSrX8jOnTmbEkkc8bcE0PpAAP+og9mfZsQlp9DmE2z1CP6NTp7YUQSAgBWW11uKO2VWYIE2DqyT6Q3MS+wTf47Q9rWhBCM5ojPnZc4tTXSoP/ABdJXlO+0JQQS6hFwCyTc7S3oLY5xmKmHmg/j/zzz0xXhwPa3/duvkWrqtoHxj/15ZNq+aKWL6qXAHUt8KxJzQxMa8FMW1A/TzM67wrT0ghdUzto393VtzkqKDcFKEbrKTsvz98/TOvYDxR4gAa4iN2k3ZoZfKZg0LhRZLMZ1qDDkC1gpCCdKKZtCsyPGHYGoD3nr0FiahCa2iHLTVshIMp3QzE2uetdq6cP17o2lULdF27D7mS7r51OtFfExORjdAZgh9s2rzl/Alc3YUk69S/fENWb8Cca3I04Vu961+Hee3Gtcz98mr0bXD+3m3Zb95ChvsVH212be5wX1jJNBY0e4+UV2ZrTsamJjBOttXevOXsJrYPB7F7yZdptHUQM3GVXUdRU9IWDjknFYDRpqclqZN8BP/lIWgcnkog7Fl231KpXrotMT6Gg5s4L+IVNUKZzev+Ky5eidXECiZDqe46pevk6SwYu4Nh1jyYfc848WNdH1To5qnGYxDmXka6WvXxdJduQYTJwLpokzNK5P/eXpnVz1MRhxy25DDtbZvm6yiFu3VDd+lw0eVGZecDGR9M6uhGcGL2vC9gBs3RdRdvvokMpbsCo+ZwcqH1pWld/qTRRS77aLF1nUQ620OYiyALoQ10ehtbZ78Zd3+z6PhkXr7uI4GHaVrDN6AO5PobW3RMFJ/kXZtKX0XUdRmNHAlD0uwhSkn02XrrW5a0OS8JvF3XCZPm6zOl/9kHX3GYjyzHH587NvVhemtbpax9KBjeDw6Cufcaqc/Uf/aPPmIqL9VSnVp+Pk525jrfWEb/T7VNlXUb7+/5LWnHBBspwD1IAunf59UvXuj76onbz8A/94cM/5I2Xd27ndqiPXv4O5y/3gN99WJf3rw/zmK8+jKO+HmLH0xtep9Hpfv7F28PwxznN5+6M7Dro/ZemXdHP/LGPaM210cxYRCSRWkza+eSjalf1M3/0JbcXQ3/PogWJNaMP9/5H1q7sZ/HoRwC9Hm2ad7T1j9Cs/2f9P+v/Wf/P+n/W/7P+n/X/rP9n/T/r/1n/z/p/1v+z/p/1/6z/Z/0/6/9Z/8/6f9b/s/6f9f9VszI=;" vertex="1" parent="1">
          <mxGeometry x="1439" y="392.5" width="98" height="98" as="geometry" />
        </mxCell>
      </root>
    </mxGraphModel>
  </diagram>
</mxfile>
